M48
INCH,LZ
;FILE_FORMAT=2:4
;TYPE=PLATED
;Layer: PTH_Through_Via
;EasyEDA v6.5.23, 2023-06-17 09:45:11
;36c83109d75f48428eebd667f423d1d4,0a61cb7f7b51421fbede6d33e3e5ec82,10
;Gerber Generator version 0.2
;Holesize 1 = 0.0120 inch
T01C0.0120
;Holesize 2 = 0.0120 inch
T02C0.0120
%
G05
G90
T01
X024557Y021260
X024006Y021260
X024833Y021535
X024557Y021811
X024006Y021811
X024006Y020709
X024557Y020709
X024833Y020984
X024281Y020984
X024281Y021535
X023730Y021535
X023730Y020984
T02
X014500Y015500
X011050Y023000
X011050Y023000
X026250Y026900
X011400Y022700
X025300Y026850
X011950Y022900
X024800Y026750
X012350Y022400
X024350Y026550
X012650Y021050
X023300Y026400
X013100Y021000
X023850Y026150
X013700Y021150
X022850Y025900
X013950Y020700
X022250Y025700
X005950Y021000
X011850Y021450
X006250Y020650
X012200Y021100
X016450Y019250
X021300Y025500
X016050Y019450
X015750Y019700
X015350Y019850
X015000Y020050
X016250Y022300
X015900Y021850
X015550Y021450
X015100Y021050
X003300Y018150
X003350Y017750
X007050Y024850
X007200Y022400
X009350Y024850
X008850Y021300
X006300Y018700
X006650Y020200
X007250Y020150
X005700Y018750
X006600Y026500
X012450Y016600
X012300Y017200
X014700Y017100
X014700Y015100
X013400Y018000
X013750Y018500
X014600Y016650
X013500Y015850
X012100Y015050
X006350Y024300
X028500Y025250
X028350Y026400
X027600Y027350
X028500Y024600
X005500Y025500
X011500Y027250
X026550Y027300
X026300Y023300
X003100Y024950
X003150Y015750
X003350Y017200
X005700Y016400
X019550Y017250
X012250Y014100
X011900Y017250
X005300Y027250
X004750Y027300
X006100Y027250
X006850Y024250
X007650Y017450
X008450Y024350
X004950Y018500
X003250Y018550
X003250Y022850
X004650Y022850
X005385Y019050
X019350Y014650
X023250Y014700
X023200Y015800
X028250Y016700
X026900Y026550
X025750Y026550
X010550Y014300
X025600Y021850
X025600Y020700
X022900Y020700
X022950Y021850
X009100Y026400
X009500Y026400
X008050Y024900
X008600Y022800
X027750Y016150
X024800Y016200
X024850Y014900
X027950Y014500
X026052Y014500
X026500Y014450
X027300Y015175
X025650Y014200
X025100Y015700
X017650Y024635
X016150Y024635
X017650Y025065
X016100Y025065
X017850Y023100
X019050Y023600
X018670Y024750
X016200Y023200
X026450Y016350
M30
