G04 Layer: TopLayer*
G04 EasyEDA v6.5.23, 2023-06-17 09:45:11*
G04 36c83109d75f48428eebd667f423d1d4,0a61cb7f7b51421fbede6d33e3e5ec82,10*
G04 Gerber Generator version 0.2*
G04 Scale: 100 percent, Rotated: No, Reflected: No *
G04 Dimensions in inches *
G04 leading zeros omitted , absolute positions ,3 integer and 6 decimal *
%FSLAX36Y36*%
%MOIN*%

%AMMACRO1*21,1,$1,$2,0,0,$3*%
%ADD10C,0.0080*%
%ADD11C,0.0060*%
%ADD12C,0.0120*%
%ADD13C,0.0200*%
%ADD14C,0.0100*%
%ADD15C,0.0150*%
%ADD16MACRO1,0.0213X0.0311X90.0000*%
%ADD17MACRO1,0.0213X0.0311X0.0000*%
%ADD18R,0.0213X0.0311*%
%ADD19MACRO1,0.0213X0.0223X-90.0000*%
%ADD20MACRO1,0.0213X0.0223X90.0000*%
%ADD21R,0.0197X0.0110*%
%ADD22R,0.0110X0.0197*%
%ADD23R,0.0157X0.0161*%
%ADD24R,0.0179X0.0161*%
%ADD25MACRO1,0.0213X0.0311X-90.0000*%
%ADD26MACRO1,0.068X0.0585X0.0000*%
%ADD27R,0.0680X0.0585*%
%ADD28R,0.1193X0.1504*%
%ADD29R,0.0236X0.0236*%
%ADD30MACRO1,0.0394X0.0551X90.0000*%
%ADD31R,0.0551X0.0394*%
%ADD32R,0.0394X0.0551*%
%ADD33R,0.0591X0.0118*%
%ADD34MACRO1,0.0118X0.0591X-90.0000*%
%ADD35R,0.1181X0.0787*%
%ADD36MACRO1,0.0213X0.0223X0.0000*%
%ADD37R,0.0213X0.0223*%
%ADD38R,0.0354X0.0591*%
%ADD39R,0.0591X0.0354*%
%ADD40R,0.0354X0.0354*%
%ADD41MACRO1,0.0262X0.011X0.0000*%
%ADD42MACRO1,0.0512X0.0551X0.0000*%
%ADD43R,0.0276X0.0492*%
%ADD44MACRO1,0.0245X0.0435X-90.0000*%
%ADD45R,0.0209X0.0422*%
%ADD46R,0.0512X0.0118*%
%ADD47MACRO1,0.0535X0.0484X-90.0000*%
%ADD48R,0.0484X0.0535*%
%ADD49O,0.070866X0.047244*%
%ADD50O,0.07873999999999999X0.047244*%
%ADD51C,0.0197*%
%ADD52C,0.0240*%
%ADD53C,0.0144*%

%LPD*%
G36*
X2339000Y2025000D02*
G01*
X2337460Y2025300D01*
X2336180Y2026180D01*
X2335300Y2027460D01*
X2335000Y2029000D01*
X2335000Y2213340D01*
X2335300Y2214880D01*
X2336180Y2216180D01*
X2338820Y2218820D01*
X2340120Y2219700D01*
X2341660Y2220000D01*
X2516000Y2220000D01*
X2517540Y2219700D01*
X2518820Y2218820D01*
X2519700Y2217540D01*
X2520000Y2216000D01*
X2520000Y2036660D01*
X2519700Y2035120D01*
X2518820Y2033820D01*
X2511180Y2026180D01*
X2509880Y2025300D01*
X2508340Y2025000D01*
G37*

%LPC*%
G36*
X2355540Y2042960D02*
G01*
X2361660Y2042960D01*
X2361660Y2059520D01*
X2345120Y2059520D01*
X2345120Y2053380D01*
X2345400Y2050900D01*
X2346140Y2048740D01*
X2347360Y2046819D01*
X2348960Y2045200D01*
X2350900Y2044000D01*
X2353040Y2043240D01*
G37*
G36*
X2494620Y2042960D02*
G01*
X2500760Y2042960D01*
X2503240Y2043240D01*
X2505400Y2044000D01*
X2507320Y2045200D01*
X2508940Y2046819D01*
X2510140Y2048740D01*
X2510900Y2050900D01*
X2511180Y2053380D01*
X2511180Y2059520D01*
X2494620Y2059520D01*
G37*
G36*
X2384380Y2042960D02*
G01*
X2390520Y2042960D01*
X2393000Y2043240D01*
X2395160Y2044000D01*
X2397080Y2045200D01*
X2397760Y2045880D01*
X2399060Y2046740D01*
X2400580Y2047040D01*
X2402120Y2046740D01*
X2403420Y2045880D01*
X2404080Y2045200D01*
X2406000Y2044000D01*
X2408160Y2043240D01*
X2410640Y2042960D01*
X2416780Y2042960D01*
X2416780Y2059520D01*
X2384380Y2059520D01*
G37*
G36*
X2439500Y2042960D02*
G01*
X2445640Y2042960D01*
X2448120Y2043240D01*
X2450280Y2044000D01*
X2452200Y2045200D01*
X2452880Y2045880D01*
X2454160Y2046740D01*
X2455700Y2047060D01*
X2457240Y2046740D01*
X2458520Y2045880D01*
X2459200Y2045200D01*
X2461120Y2044000D01*
X2463280Y2043240D01*
X2465760Y2042960D01*
X2471900Y2042960D01*
X2471900Y2059520D01*
X2439500Y2059520D01*
G37*
G36*
X2494620Y2082240D02*
G01*
X2511180Y2082240D01*
X2511180Y2088360D01*
X2510900Y2090860D01*
X2510140Y2093000D01*
X2508940Y2094940D01*
X2508260Y2095620D01*
X2507400Y2096900D01*
X2507080Y2098440D01*
X2507400Y2099960D01*
X2508260Y2101260D01*
X2508940Y2101940D01*
X2510140Y2103860D01*
X2510900Y2106020D01*
X2511180Y2108500D01*
X2511180Y2114640D01*
X2494620Y2114640D01*
G37*
G36*
X2345120Y2082240D02*
G01*
X2361660Y2082240D01*
X2361660Y2114640D01*
X2345100Y2114640D01*
X2345100Y2108500D01*
X2345380Y2106020D01*
X2346140Y2103860D01*
X2347360Y2101940D01*
X2348020Y2101260D01*
X2348900Y2099960D01*
X2349200Y2098440D01*
X2348900Y2096900D01*
X2348020Y2095600D01*
X2347360Y2094940D01*
X2346140Y2093000D01*
X2345400Y2090860D01*
X2345120Y2088360D01*
G37*
G36*
X2384380Y2082240D02*
G01*
X2416780Y2082240D01*
X2416780Y2114640D01*
X2384380Y2114640D01*
G37*
G36*
X2439500Y2082240D02*
G01*
X2471900Y2082240D01*
X2471900Y2114640D01*
X2439500Y2114640D01*
G37*
G36*
X2494620Y2137360D02*
G01*
X2511180Y2137360D01*
X2511180Y2143500D01*
X2510900Y2145980D01*
X2510140Y2148140D01*
X2508940Y2150060D01*
X2508260Y2150720D01*
X2507400Y2152020D01*
X2507100Y2153560D01*
X2507400Y2155080D01*
X2508260Y2156380D01*
X2508940Y2157060D01*
X2510140Y2158980D01*
X2510900Y2161140D01*
X2511180Y2163620D01*
X2511180Y2169760D01*
X2494620Y2169760D01*
G37*
G36*
X2345100Y2137360D02*
G01*
X2361660Y2137360D01*
X2361660Y2169760D01*
X2345120Y2169760D01*
X2345120Y2163620D01*
X2345400Y2161140D01*
X2346140Y2158980D01*
X2347360Y2157060D01*
X2348020Y2156380D01*
X2348880Y2155080D01*
X2349200Y2153560D01*
X2348880Y2152020D01*
X2348020Y2150720D01*
X2347360Y2150060D01*
X2346140Y2148140D01*
X2345380Y2145980D01*
X2345100Y2143500D01*
G37*
G36*
X2384380Y2137360D02*
G01*
X2416780Y2137360D01*
X2416780Y2169760D01*
X2384380Y2169760D01*
G37*
G36*
X2439500Y2137360D02*
G01*
X2471900Y2137360D01*
X2471900Y2169760D01*
X2439500Y2169760D01*
G37*
G36*
X2345120Y2192480D02*
G01*
X2361660Y2192480D01*
X2361660Y2209020D01*
X2355540Y2209020D01*
X2353040Y2208740D01*
X2350900Y2208000D01*
X2348960Y2206780D01*
X2347360Y2205180D01*
X2346140Y2203240D01*
X2345400Y2201100D01*
X2345120Y2198600D01*
G37*
G36*
X2494620Y2192480D02*
G01*
X2511180Y2192480D01*
X2511180Y2198600D01*
X2510900Y2201100D01*
X2510140Y2203240D01*
X2508940Y2205180D01*
X2507320Y2206780D01*
X2505400Y2208000D01*
X2503240Y2208740D01*
X2500760Y2209020D01*
X2494620Y2209020D01*
G37*
G36*
X2384380Y2192480D02*
G01*
X2416780Y2192480D01*
X2416780Y2209020D01*
X2410640Y2209020D01*
X2408160Y2208740D01*
X2406000Y2208000D01*
X2404080Y2206780D01*
X2403420Y2206120D01*
X2402120Y2205240D01*
X2400580Y2204940D01*
X2399060Y2205240D01*
X2397760Y2206120D01*
X2397080Y2206780D01*
X2395160Y2208000D01*
X2393000Y2208740D01*
X2390520Y2209020D01*
X2384380Y2209020D01*
G37*
G36*
X2439500Y2192480D02*
G01*
X2471900Y2192480D01*
X2471900Y2209020D01*
X2465760Y2209020D01*
X2463280Y2208740D01*
X2461120Y2208000D01*
X2459200Y2206780D01*
X2458520Y2206120D01*
X2457240Y2205240D01*
X2455700Y2204940D01*
X2454160Y2205240D01*
X2452880Y2206120D01*
X2452200Y2206780D01*
X2450280Y2208000D01*
X2448120Y2208740D01*
X2445640Y2209020D01*
X2439500Y2209020D01*
G37*

%LPD*%
D10*
X2644530Y1564450D02*
G01*
X2645000Y1564918D01*
X2645000Y1635000D01*
D11*
X1220000Y2110000D02*
G01*
X1320000Y2210000D01*
X1320000Y2400000D01*
X1480000Y2560000D01*
X2010000Y2560000D01*
X2082100Y2487899D01*
X2082100Y2411399D01*
D10*
X1692960Y2305000D02*
G01*
X1635000Y2305000D01*
X1620000Y2320000D01*
X1862039Y2360000D02*
G01*
X1905000Y2360000D01*
X1867039Y2430000D02*
G01*
X1867039Y2475000D01*
X1757318Y2351649D02*
G01*
X1757318Y2337680D01*
X1785000Y2310000D01*
X1660000Y2506460D02*
G01*
X1610000Y2506460D01*
X1710000Y2506460D02*
G01*
X1765000Y2506460D01*
X1660000Y2463539D02*
G01*
X1615000Y2463539D01*
X1710000Y2463539D02*
G01*
X1765000Y2463539D01*
X1710000Y2463539D02*
G01*
X1710000Y2430000D01*
X1707790Y2427790D01*
X1707790Y2408350D01*
X1660000Y2463539D02*
G01*
X1660000Y2440000D01*
X1682680Y2417319D01*
X1682680Y2408350D01*
D11*
X1828000Y2360000D02*
G01*
X1828000Y2331999D01*
X1850000Y2310000D01*
X1955000Y2310000D01*
X1975000Y2290000D01*
X2031700Y2290000D01*
X2031700Y2291900D01*
X1833000Y2430000D02*
G01*
X1833000Y2405000D01*
X1840000Y2400000D01*
X1935000Y2400000D01*
X1965000Y2365000D01*
X1988100Y2341900D01*
X2031700Y2341900D01*
X1757319Y2408350D02*
G01*
X1795000Y2408350D01*
X1816649Y2430000D01*
X1832960Y2430000D01*
X1732201Y2408350D02*
G01*
X1732201Y2392800D01*
X1740000Y2385000D01*
X1790000Y2385000D01*
X1815000Y2360000D01*
X1827960Y2360000D01*
X1727039Y2305000D02*
G01*
X1727039Y2337037D01*
X1732201Y2342199D01*
X1732201Y2351649D01*
X1925069Y2243299D02*
G01*
X1818299Y2243299D01*
X1800000Y2225000D01*
X1630000Y2225000D01*
X1625000Y2230000D01*
D10*
X2605160Y1564450D02*
G01*
X2605160Y1590000D01*
X2530000Y1590000D01*
X2510000Y1570000D01*
X2526459Y1450000D02*
G01*
X2560000Y1450000D01*
X2565000Y1445000D01*
X2565000Y1420000D01*
X2672470Y1517528D02*
G01*
X2730000Y1517528D01*
X2624840Y1495549D02*
G01*
X2624840Y1470160D01*
X2650000Y1445000D01*
X2605159Y1495549D02*
G01*
X2605159Y1450000D01*
X2741459Y1450000D02*
G01*
X2795000Y1450000D01*
X2483540Y1450000D02*
G01*
X2483540Y1488539D01*
X2485000Y1490000D01*
X2526459Y1450000D02*
G01*
X2559997Y1450000D01*
X2585469Y1475470D01*
X2585469Y1495549D01*
X2698540Y1450000D02*
G01*
X2698540Y1491460D01*
X2669840Y1520160D01*
X2649449Y1520160D01*
D11*
X2649399Y1539800D02*
G01*
X2664799Y1539800D01*
X2688000Y1563000D01*
X2688000Y1615000D01*
X2624840Y1564450D02*
G01*
X2624840Y1605160D01*
X2610000Y1620000D01*
X2572039Y1620000D01*
D12*
X2537960Y1620000D02*
G01*
X2480000Y1620000D01*
X2722039Y1615000D02*
G01*
X2775000Y1615000D01*
D11*
X2687960Y1615000D02*
G01*
X2682079Y1620880D01*
X2682079Y1722440D01*
X2572039Y1620000D02*
G01*
X2632079Y1680039D01*
X2632079Y1722440D01*
D13*
X2732084Y1721999D02*
G01*
X2732084Y1702921D01*
X2765005Y1670000D01*
X2825000Y1670000D01*
D14*
X508465Y2167314D02*
G01*
X508465Y2155504D01*
D10*
X508454Y1966525D02*
G01*
X508454Y1978344D01*
D15*
X1187399Y1635626D02*
G01*
X1187399Y1577600D01*
X1219584Y1545416D01*
X1261688Y1545416D01*
X1261688Y1545414D02*
G01*
X1256274Y1540000D01*
X1005240Y1540000D01*
D13*
X1364048Y1545414D02*
G01*
X1368632Y1550000D01*
X1450000Y1550000D01*
D11*
X782328Y2214385D02*
G01*
X1084385Y2214385D01*
X1140000Y2270000D01*
X2625000Y2690000D02*
G01*
X2625000Y2610349D01*
X2622109Y2610349D01*
X2530000Y2685000D02*
G01*
X2527109Y2682109D01*
X2527109Y2610349D01*
X782328Y2175023D02*
G01*
X1080024Y2175023D01*
X1195000Y2290000D01*
X2480000Y2675000D02*
G01*
X2480000Y2535000D01*
X2480000Y2522046D01*
X2435000Y2655000D02*
G01*
X2435000Y2550000D01*
X2430000Y2545000D01*
X2430000Y2522046D01*
X782330Y2076585D02*
G01*
X1236584Y2076585D01*
X1265000Y2105000D01*
X2330000Y2640000D02*
G01*
X2330000Y2522046D01*
X782330Y2056905D02*
G01*
X1266904Y2056905D01*
X1310000Y2100000D01*
X782330Y2037215D02*
G01*
X1292214Y2037215D01*
X1370000Y2115000D01*
X2285000Y2590000D02*
G01*
X2285000Y2527046D01*
X2280000Y2522046D01*
X2385000Y2615000D02*
G01*
X2385000Y2521999D01*
X2380000Y2521999D01*
X782299Y1997874D02*
G01*
X1322875Y1997874D01*
X1395000Y2070000D01*
X2225000Y2570000D02*
G01*
X2230000Y2565000D01*
X2230000Y2522044D01*
X508463Y2096455D02*
G01*
X591455Y2096455D01*
X595000Y2100000D01*
X508463Y2076765D02*
G01*
X613234Y2076765D01*
X625000Y2065000D01*
X508465Y2096455D02*
G01*
X476455Y2096455D01*
X460000Y2080000D01*
X460000Y2060000D01*
X462914Y2057085D01*
X508465Y2057085D01*
X508499Y2076799D02*
G01*
X545000Y2076799D01*
X508465Y2076765D02*
G01*
X538234Y2076765D01*
X560000Y2055000D01*
X560000Y2045000D01*
X552395Y2037395D01*
X508465Y2037395D01*
X782349Y1978173D02*
G01*
X1393173Y1978173D01*
X1450000Y2035000D01*
X782330Y1958505D02*
G01*
X1453504Y1958505D01*
X1500000Y2005000D01*
X782330Y1938825D02*
G01*
X1488824Y1938825D01*
X1535000Y1985000D01*
X782209Y1919054D02*
G01*
X1524054Y1919054D01*
X1575000Y1970000D01*
X782209Y1899355D02*
G01*
X1559354Y1899355D01*
X1605000Y1945000D01*
X782209Y1879684D02*
G01*
X1599684Y1879684D01*
X1645000Y1925000D01*
X2130000Y2550000D02*
G01*
X2159650Y2520349D01*
X2177110Y2520349D01*
X1448009Y2033009D02*
G01*
X1455000Y2040000D01*
X1922955Y2040000D01*
X1590000Y2185000D02*
G01*
X1598305Y2193305D01*
X1925065Y2193305D01*
X1555000Y2145000D02*
G01*
X1558999Y2140999D01*
X1923954Y2140999D01*
X1510000Y2105000D02*
G01*
X1523999Y2090999D01*
X1923954Y2090999D01*
D12*
X385470Y1825000D02*
G01*
X375470Y1815000D01*
X330000Y1815000D01*
X388539Y1780000D02*
G01*
X383539Y1775000D01*
X335000Y1775000D01*
D11*
X490000Y2347950D02*
G01*
X490000Y2325000D01*
X555000Y2260000D01*
X555000Y2130000D01*
X541134Y2116134D01*
X508463Y2116134D01*
D12*
X767601Y2630239D02*
G01*
X805002Y2630239D01*
X805002Y2630239D02*
G01*
X842402Y2630239D01*
D11*
X1235000Y2240000D02*
G01*
X1150000Y2155000D01*
X855000Y2155000D01*
X834399Y2135599D01*
X782299Y2135599D01*
X782299Y2253800D02*
G01*
X923800Y2253800D01*
X970000Y2300000D01*
X1105000Y2300000D01*
D12*
X660000Y2548542D02*
G01*
X710000Y2548542D01*
X710000Y2548542D02*
G01*
X718782Y2539760D01*
X767601Y2539760D01*
X660000Y2548542D02*
G01*
X665000Y2543542D01*
X665000Y2500000D01*
X680000Y2485000D01*
X705000Y2485000D01*
X950000Y2553542D02*
G01*
X900000Y2553542D01*
X842399Y2539800D02*
G01*
X852200Y2530000D01*
X895000Y2530000D01*
X900000Y2535000D01*
X900000Y2553499D01*
X950000Y2553542D02*
G01*
X935000Y2538542D01*
X935000Y2485000D01*
D11*
X685000Y2353000D02*
G01*
X690000Y2348000D01*
X690000Y2295000D01*
X690000Y2285000D01*
X690000Y2285000D02*
G01*
X690000Y2225000D01*
X720304Y2194695D01*
X782330Y2194695D01*
X640000Y2352955D02*
G01*
X655000Y2337955D01*
X655000Y2305000D01*
X675000Y2285000D01*
X675000Y2205000D01*
X724665Y2155335D01*
X782330Y2155335D01*
X595000Y2100000D02*
G01*
X575000Y2120000D01*
X575000Y2280000D01*
X540000Y2315000D01*
X540000Y2335470D01*
X625000Y2065000D02*
G01*
X625000Y2130000D01*
X590000Y2165000D01*
X590000Y2335500D01*
D14*
X720000Y2240000D02*
G01*
X725934Y2234065D01*
X782330Y2234065D01*
X885000Y2130000D02*
G01*
X870955Y2115954D01*
X782330Y2115954D01*
D12*
X431460Y1780000D02*
G01*
X443013Y1768447D01*
X570000Y1768447D01*
X435000Y2010000D02*
G01*
X405000Y1980000D01*
X405000Y1905000D01*
X444529Y1865470D01*
X444529Y1825000D01*
D14*
X508499Y2167300D02*
G01*
X492300Y2167300D01*
X435000Y2110000D01*
X435000Y2015000D01*
X483499Y1966500D02*
G01*
X508499Y1966500D01*
X508454Y1978344D02*
G01*
X466655Y1978344D01*
X435000Y2010000D01*
X444529Y1825000D02*
G01*
X444529Y1780000D01*
X431460Y1780000D01*
X636457Y1920000D02*
G01*
X636457Y1970000D01*
X636457Y1920000D02*
G01*
X630000Y1913542D01*
X630000Y1870000D01*
D10*
X636457Y1970000D02*
G01*
X685000Y1970000D01*
X695000Y1980000D01*
X695000Y2075000D01*
X716275Y2096275D01*
X782330Y2096275D01*
X627044Y2020000D02*
G01*
X665000Y2020000D01*
X593537Y1970000D02*
G01*
X593537Y1920000D01*
D12*
X570000Y1768447D02*
G01*
X648447Y1690000D01*
X1040000Y1690000D01*
X1094372Y1635626D01*
X1112600Y1635626D01*
D10*
X660000Y2591462D02*
G01*
X660000Y2650000D01*
X710000Y2591462D02*
G01*
X660000Y2591462D01*
D12*
X715000Y2678542D02*
G01*
X763302Y2630239D01*
X767601Y2630239D01*
X590000Y2638542D02*
G01*
X630000Y2678542D01*
X715000Y2678542D01*
X435900Y2110900D02*
G01*
X415000Y2131700D01*
X415000Y2390000D01*
X475000Y2450000D01*
X555000Y2450000D01*
X590000Y2485000D01*
X590000Y2638542D01*
X1280477Y1719522D02*
G01*
X1294588Y1719522D01*
X1040000Y1690000D02*
G01*
X1110000Y1760000D01*
X1298542Y1760000D01*
X1298542Y1760000D02*
G01*
X1294588Y1756046D01*
X1294588Y1719522D01*
X1294588Y1660473D02*
G01*
X1301081Y1653980D01*
X1301081Y1622395D01*
X1294600Y1660500D02*
G01*
X1245000Y1660000D01*
X1397955Y1625000D02*
G01*
X1405408Y1632453D01*
X1405408Y1660473D01*
X1223792Y1760000D02*
G01*
X1230000Y1753791D01*
X1230000Y1720000D01*
X1470000Y1710000D02*
G01*
X1486350Y1726350D01*
X1530000Y1726350D01*
X1530000Y1643649D02*
G01*
X1511350Y1625000D01*
X1432046Y1625000D01*
D13*
X1364048Y1545414D02*
G01*
X1399462Y1510000D01*
X1470000Y1510000D01*
D11*
X1422049Y1760000D02*
G01*
X1422049Y1736159D01*
X1407290Y1721410D01*
X1405408Y1680153D02*
G01*
X1444846Y1680153D01*
X1460000Y1665000D01*
X1344002Y1622395D02*
G01*
X1350000Y1616397D01*
X1350000Y1585000D01*
X1261688Y1508047D02*
G01*
X1258643Y1505000D01*
X1210000Y1505000D01*
D13*
X2750000Y2557300D02*
G01*
X2682084Y2489385D01*
X2682084Y2411415D01*
X2820000Y2553539D02*
G01*
X2848540Y2525000D01*
X2850000Y2525000D01*
X2820000Y2553539D02*
G01*
X2816239Y2557300D01*
X2750000Y2557300D01*
X2820000Y2596460D02*
G01*
X2835000Y2611460D01*
X2835000Y2640000D01*
X2750000Y2682700D02*
G01*
X2750000Y2725000D01*
X2760000Y2735000D01*
X2732084Y2411415D02*
G01*
X2780670Y2460000D01*
X2850000Y2460000D01*
D12*
X427040Y1735000D02*
G01*
X501437Y1735000D01*
X534884Y1768447D01*
X531313Y1768447D01*
X1123447Y1484762D02*
G01*
X1124768Y1486082D01*
X1124768Y1540000D01*
X1160000Y1447955D02*
G01*
X1239008Y1447955D01*
X1261688Y1470635D01*
X1160000Y1481999D02*
G01*
X1160699Y1540000D01*
X525000Y2642948D02*
G01*
X526019Y2641929D01*
X526019Y2520000D01*
X480000Y2638539D02*
G01*
X484409Y2642948D01*
X525000Y2642948D01*
D11*
X526019Y2520000D02*
G01*
X550000Y2543980D01*
X550000Y2550000D01*
X2630000Y2330000D02*
G01*
X2632084Y2332085D01*
X2632084Y2411415D01*
D12*
X353980Y2520000D02*
G01*
X328980Y2495000D01*
X310000Y2495000D01*
X392959Y1735000D02*
G01*
X377959Y1720000D01*
X335000Y1720000D01*
D11*
X521019Y1645000D02*
G01*
X526019Y1640000D01*
X570000Y1640000D01*
X1955000Y1725000D02*
G01*
X1957565Y1722433D01*
X2082084Y1722433D01*
D13*
X1331457Y1410000D02*
G01*
X1395000Y1410000D01*
X1444017Y1459016D01*
X1444017Y1510000D01*
X1288536Y1410000D02*
G01*
X1225000Y1410000D01*
X1150000Y1714367D02*
G01*
X1160631Y1725000D01*
X1190000Y1725000D01*
X1387955Y1760000D02*
G01*
X1341463Y1760000D01*
X1387953Y1760000D02*
G01*
X1375000Y1772953D01*
X1375000Y1850000D01*
X1341464Y1760000D02*
G01*
X1340000Y1761464D01*
X1340000Y1800000D01*
X525000Y2677040D02*
G01*
X530000Y2682040D01*
X530000Y2725000D01*
X480000Y2681460D02*
G01*
X480000Y2725000D01*
X475000Y2730000D01*
X590000Y2681462D02*
G01*
X610000Y2701462D01*
X610000Y2725000D01*
X685000Y2387044D02*
G01*
X685000Y2425000D01*
X640000Y2387044D02*
G01*
X635000Y2392044D01*
X635000Y2430000D01*
D12*
X590000Y2394529D02*
G01*
X597485Y2387044D01*
X640000Y2387044D01*
X540000Y2394529D02*
G01*
X590000Y2394529D01*
X490000Y2382044D02*
G01*
X502485Y2394529D01*
X540000Y2394529D01*
D10*
X782299Y2017699D02*
G01*
X725000Y2017699D01*
X725000Y2015000D01*
D13*
X871329Y1775545D02*
G01*
X840784Y1745000D01*
X765000Y1745000D01*
X871080Y2358294D02*
G01*
X845000Y2384375D01*
X845000Y2435000D01*
X482874Y1896844D02*
G01*
X495000Y1884720D01*
X495000Y1850000D01*
X318305Y1896844D02*
G01*
X325000Y1890149D01*
X325000Y1855000D01*
X318305Y2237004D02*
G01*
X325000Y2243699D01*
X325000Y2285000D01*
X482874Y2237004D02*
G01*
X465000Y2254879D01*
X465000Y2285000D01*
D10*
X508465Y1935034D02*
G01*
X538499Y1905000D01*
X540000Y1905000D01*
X508465Y1935034D02*
G01*
X482874Y1909445D01*
X482874Y1896844D01*
D11*
X592955Y2020000D02*
G01*
X570979Y1998024D01*
X508465Y1998024D01*
D10*
X593537Y1920000D02*
G01*
X570000Y1896462D01*
X570000Y1875000D01*
D12*
X348978Y1645000D02*
G01*
X315000Y1611021D01*
X315000Y1575000D01*
X1987955Y1465000D02*
G01*
X1935000Y1465000D01*
X2022044Y1465000D02*
G01*
X2108648Y1465000D01*
X2022044Y1575000D02*
G01*
X2027044Y1580000D01*
X2108648Y1580000D01*
D11*
X1987955Y1575000D02*
G01*
X1987955Y1612955D01*
X2082084Y1707085D01*
X2082084Y1722435D01*
D12*
X2191349Y1465000D02*
G01*
X2196349Y1470000D01*
X2325000Y1470000D01*
X2191349Y1580000D02*
G01*
X2320000Y1580000D01*
D11*
X2670000Y2577955D02*
G01*
X2668305Y2576260D01*
X2622110Y2576260D01*
D12*
X2670000Y2612046D02*
G01*
X2690000Y2632046D01*
X2690000Y2655000D01*
D11*
X2622110Y2576260D02*
G01*
X2620000Y2574149D01*
X2620000Y2490000D01*
X2582084Y2452085D01*
X2582084Y2411415D01*
X2575000Y2577955D02*
G01*
X2573305Y2576260D01*
X2527110Y2576260D01*
X2527110Y2576260D02*
G01*
X2532084Y2571284D01*
X2532084Y2411415D01*
D12*
X2575000Y2612044D02*
G01*
X2575000Y2655000D01*
D11*
X2480000Y2487955D02*
G01*
X2482084Y2485870D01*
X2482084Y2411415D01*
X2430000Y2487955D02*
G01*
X2432084Y2485870D01*
X2432084Y2411415D01*
X2380000Y2487955D02*
G01*
X2382084Y2485870D01*
X2382084Y2411415D01*
X2330000Y2487955D02*
G01*
X2332084Y2485870D01*
X2332084Y2411415D01*
X2280000Y2487955D02*
G01*
X2282084Y2485870D01*
X2282084Y2411415D01*
X2230000Y2487955D02*
G01*
X2232084Y2485870D01*
X2232084Y2411415D01*
X2177110Y2486260D02*
G01*
X2182084Y2481284D01*
X2182084Y2411415D01*
X2031684Y2241925D02*
G01*
X2030304Y2243305D01*
X1959155Y2243305D01*
X2031684Y2191925D02*
G01*
X2030304Y2193305D01*
X1959155Y2193305D01*
X2031700Y2141900D02*
G01*
X1958000Y2140999D01*
X2031700Y2091900D02*
G01*
X1958000Y2090999D01*
X2031684Y2041925D02*
G01*
X2029759Y2040000D01*
X1957044Y2040000D01*
D12*
X1113447Y1441842D02*
G01*
X1101606Y1430000D01*
X1055000Y1430000D01*
X2483254Y2181104D02*
G01*
X2487150Y2185000D01*
X2560000Y2185000D01*
X2483299Y2070900D02*
G01*
X2560000Y2070000D01*
X2373000Y2070900D02*
G01*
X2290000Y2070000D01*
X2373024Y2181104D02*
G01*
X2369129Y2185000D01*
X2295000Y2185000D01*
X950000Y2596462D02*
G01*
X950000Y2640000D01*
X900000Y2596462D02*
G01*
X910000Y2606462D01*
X910000Y2640000D01*
D13*
X805000Y2539800D02*
G01*
X805000Y2490000D01*
D10*
X782299Y2273400D02*
G01*
X860000Y2273400D01*
X860000Y2280000D01*
D11*
X1185000Y2145000D02*
G01*
X1195000Y2145000D01*
X1280000Y2230000D01*
X1280000Y2410000D01*
X1455000Y2585000D01*
X2040000Y2585000D01*
X2132100Y2492899D01*
X2132100Y2411399D01*
X1150000Y2725000D02*
G01*
X1155000Y2730000D01*
X1650500Y2730000D01*
X2655000Y2730000D01*
D12*
X570000Y1768447D02*
G01*
X734760Y1603687D01*
X734760Y1540000D01*
D16*
G01*
X2741459Y1450000D03*
G01*
X2698540Y1450000D03*
D17*
G01*
X1710000Y2463541D03*
D18*
G01*
X1710000Y2506460D03*
D17*
G01*
X1660000Y2463541D03*
D18*
G01*
X1660000Y2506460D03*
D19*
G01*
X1692959Y2305000D03*
G01*
X1727040Y2305000D03*
D20*
G01*
X1867040Y2430000D03*
G01*
X1832959Y2430000D03*
G01*
X1862040Y2360000D03*
G01*
X1827959Y2360000D03*
D21*
G01*
X2649449Y1539839D03*
G01*
X2649449Y1520160D03*
D22*
G01*
X2644530Y1495549D03*
G01*
X2624840Y1495549D03*
G01*
X2605159Y1495549D03*
G01*
X2585469Y1495549D03*
D21*
G01*
X2580550Y1520160D03*
G01*
X2580550Y1539839D03*
D22*
G01*
X2585469Y1564450D03*
G01*
X2605159Y1564450D03*
G01*
X2624840Y1564450D03*
G01*
X2644530Y1564450D03*
D23*
G01*
X1732200Y2351649D03*
D24*
G01*
X1757319Y2351649D03*
G01*
X1757319Y2408350D03*
D23*
G01*
X1732200Y2408350D03*
G01*
X1707799Y2351649D03*
G01*
X1707790Y2408350D03*
D24*
G01*
X1682680Y2351649D03*
G01*
X1682680Y2408350D03*
D25*
G01*
X2483540Y1450000D03*
G01*
X2526459Y1450000D03*
D20*
G01*
X2722040Y1615000D03*
G01*
X2687959Y1615000D03*
D19*
G01*
X2537959Y1620000D03*
G01*
X2572040Y1620000D03*
D16*
G01*
X431458Y1780000D03*
G01*
X388541Y1780000D03*
D17*
G01*
X2820000Y2553541D03*
D18*
G01*
X2820000Y2596460D03*
D16*
G01*
X636458Y1970000D03*
G01*
X593541Y1970000D03*
D17*
G01*
X950000Y2553541D03*
D18*
G01*
X950000Y2596460D03*
D17*
G01*
X480000Y2638541D03*
D18*
G01*
X480000Y2681460D03*
D25*
G01*
X1298540Y1760000D03*
G01*
X1341459Y1760000D03*
G01*
X1301080Y1622395D03*
G01*
X1343998Y1622395D03*
D17*
G01*
X900000Y2553541D03*
D18*
G01*
X900000Y2596460D03*
D17*
G01*
X710000Y2548541D03*
D18*
G01*
X710000Y2591460D03*
D17*
G01*
X590000Y2638541D03*
D18*
G01*
X590000Y2681460D03*
D17*
G01*
X660000Y2548541D03*
D18*
G01*
X660000Y2591460D03*
D16*
G01*
X636458Y1920000D03*
G01*
X593541Y1920000D03*
D17*
G01*
X1113447Y1484764D03*
D18*
G01*
X1113450Y1441849D03*
D16*
G01*
X1331459Y1410000D03*
G01*
X1288540Y1410000D03*
D26*
G01*
X2750000Y2557302D03*
D27*
G01*
X2750000Y2682700D03*
D28*
G01*
X734760Y1540000D03*
G01*
X1005240Y1540000D03*
D29*
G01*
X540000Y2335470D03*
G01*
X540000Y2394529D03*
G01*
X590000Y2335470D03*
G01*
X590000Y2394529D03*
G01*
X444529Y1825000D03*
G01*
X385470Y1825000D03*
D30*
G01*
X1530000Y1643650D03*
D31*
G01*
X1530000Y1726350D03*
D32*
G01*
X2108649Y1465000D03*
G01*
X2191350Y1465000D03*
G01*
X2108649Y1580000D03*
G01*
X2191350Y1580000D03*
D33*
G01*
X782330Y2293110D03*
G01*
X782330Y2273440D03*
G01*
X782330Y2253760D03*
G01*
X782330Y2234070D03*
G01*
X782330Y2214389D03*
G01*
X782330Y2194699D03*
G01*
X782330Y2175019D03*
G01*
X782330Y2155329D03*
G01*
X782330Y2135650D03*
G01*
X782330Y2115960D03*
G01*
X782330Y2096280D03*
G01*
X782330Y2076590D03*
G01*
X782330Y2056909D03*
G01*
X782330Y2037220D03*
G01*
X782280Y2017689D03*
G01*
X782299Y1997880D03*
D34*
G01*
X782345Y1978174D03*
D33*
G01*
X782330Y1958499D03*
G01*
X782330Y1938820D03*
G01*
X782209Y1919050D03*
G01*
X782209Y1899349D03*
G01*
X782209Y1879679D03*
G01*
X782209Y1859980D03*
G01*
X782209Y1840290D03*
D35*
G01*
X871080Y2358299D03*
G01*
X871329Y1775549D03*
D20*
G01*
X627040Y2020000D03*
G01*
X592959Y2020000D03*
D36*
G01*
X490000Y2347959D03*
D37*
G01*
X490000Y2382040D03*
D36*
G01*
X525000Y2677040D03*
D37*
G01*
X525000Y2642959D03*
D36*
G01*
X2622110Y2610345D03*
D37*
G01*
X2622110Y2576260D03*
D36*
G01*
X2527110Y2610345D03*
D37*
G01*
X2527110Y2576260D03*
D36*
G01*
X2480000Y2522040D03*
D37*
G01*
X2480000Y2487959D03*
D36*
G01*
X2430000Y2522040D03*
D37*
G01*
X2430000Y2487959D03*
D36*
G01*
X2380000Y2522040D03*
D37*
G01*
X2380000Y2487959D03*
D19*
G01*
X1922959Y2040000D03*
G01*
X1957040Y2040000D03*
G01*
X1925069Y2193305D03*
G01*
X1959150Y2193305D03*
G01*
X1923959Y2140999D03*
G01*
X1958040Y2140999D03*
G01*
X1923959Y2090999D03*
G01*
X1958040Y2090999D03*
D36*
G01*
X2230000Y2522040D03*
D37*
G01*
X2230000Y2487959D03*
D36*
G01*
X2280000Y2522040D03*
D37*
G01*
X2280000Y2487959D03*
D36*
G01*
X2330000Y2522040D03*
D37*
G01*
X2330000Y2487959D03*
D19*
G01*
X1925069Y2243305D03*
G01*
X1959150Y2243305D03*
D36*
G01*
X2177110Y2520345D03*
D37*
G01*
X2177110Y2486260D03*
D36*
G01*
X2670000Y2612040D03*
D37*
G01*
X2670000Y2577959D03*
D36*
G01*
X2575000Y2612040D03*
D37*
G01*
X2575000Y2577959D03*
D20*
G01*
X1432040Y1625000D03*
G01*
X1397959Y1625000D03*
D19*
G01*
X1387959Y1760000D03*
G01*
X1422040Y1760000D03*
D36*
G01*
X640000Y2352959D03*
D37*
G01*
X640000Y2387040D03*
D36*
G01*
X685000Y2352959D03*
D37*
G01*
X685000Y2387040D03*
D20*
G01*
X427040Y1735000D03*
G01*
X392959Y1735000D03*
D36*
G01*
X1160000Y1482040D03*
D37*
G01*
X1160000Y1447959D03*
D20*
G01*
X2022040Y1465000D03*
G01*
X1987959Y1465000D03*
G01*
X2022040Y1575000D03*
G01*
X1987959Y1575000D03*
D38*
G01*
X2732079Y2411410D03*
G01*
X2682079Y2411410D03*
G01*
X2632079Y2411410D03*
G01*
X2582079Y2411410D03*
G01*
X2532079Y2411410D03*
G01*
X2482079Y2411410D03*
G01*
X2432079Y2411410D03*
G01*
X2382079Y2411410D03*
G01*
X2332079Y2411410D03*
G01*
X2282079Y2411410D03*
G01*
X2232079Y2411410D03*
G01*
X2182079Y2411410D03*
G01*
X2132079Y2411410D03*
G01*
X2082079Y2411410D03*
D39*
G01*
X2031689Y2341920D03*
G01*
X2031689Y2291920D03*
G01*
X2031689Y2241920D03*
G01*
X2031689Y2191920D03*
G01*
X2031689Y2141920D03*
G01*
X2031689Y2091920D03*
G01*
X2031689Y2041920D03*
G01*
X2031689Y1991920D03*
G01*
X2031689Y1941920D03*
G01*
X2031689Y1891920D03*
G01*
X2031689Y1841920D03*
G01*
X2032870Y1791920D03*
D38*
G01*
X2082079Y1722440D03*
G01*
X2132079Y1722440D03*
G01*
X2182079Y1722440D03*
G01*
X2232079Y1722440D03*
G01*
X2282079Y1722440D03*
G01*
X2332079Y1722440D03*
G01*
X2382079Y1722440D03*
G01*
X2432079Y1722440D03*
G01*
X2482079Y1722440D03*
G01*
X2532079Y1722440D03*
G01*
X2582079Y1722440D03*
G01*
X2632079Y1722440D03*
G01*
X2682079Y1722440D03*
G01*
X2732079Y1722440D03*
D40*
G01*
X2373019Y2070870D03*
G01*
X2373019Y2125979D03*
G01*
X2373019Y2181100D03*
G01*
X2483260Y2181100D03*
G01*
X2483260Y2125979D03*
G01*
X2483260Y2070870D03*
G01*
X2428140Y2070870D03*
G01*
X2428140Y2181100D03*
G01*
X2428140Y2125979D03*
D41*
G01*
X1294586Y1719527D03*
G01*
X1294586Y1699842D03*
G01*
X1294586Y1680157D03*
G01*
X1294586Y1660472D03*
G01*
X1405413Y1660472D03*
G01*
X1405413Y1680157D03*
G01*
X1405413Y1699842D03*
G01*
X1405413Y1719527D03*
D42*
G01*
X1350000Y1690000D03*
D43*
G01*
X1112600Y1635630D03*
G01*
X1187399Y1635630D03*
G01*
X1150000Y1714369D03*
D44*
G01*
X1364050Y1470632D03*
G01*
X1364050Y1545415D03*
G01*
X1261687Y1545416D03*
G01*
X1261687Y1508047D03*
G01*
X1261687Y1470634D03*
D45*
G01*
X842399Y2630239D03*
G01*
X805000Y2630239D03*
G01*
X767600Y2630239D03*
G01*
X767600Y2539760D03*
G01*
X805000Y2539760D03*
G01*
X842399Y2539760D03*
D46*
G01*
X508470Y2198820D03*
G01*
X508470Y2187010D03*
G01*
X508470Y2167319D03*
G01*
X508470Y2155509D03*
G01*
X508470Y2135830D03*
G01*
X508470Y2116140D03*
G01*
X508470Y2096460D03*
G01*
X508470Y2076770D03*
G01*
X508470Y2057089D03*
G01*
X508470Y2037399D03*
G01*
X508470Y1998029D03*
G01*
X508460Y1978350D03*
G01*
X508460Y1966529D03*
G01*
X508470Y1946849D03*
G01*
X508470Y1935039D03*
G01*
X508470Y2017730D03*
D47*
G01*
X353976Y2520000D03*
D48*
G01*
X526019Y2520000D03*
D47*
G01*
X348976Y1645000D03*
D48*
G01*
X521019Y1645000D03*
D49*
G01*
X318310Y2236999D03*
G01*
X318310Y1896840D03*
D50*
G01*
X482880Y1896840D03*
G01*
X482880Y2236999D03*
D51*
G01*
X2455709Y2125979D03*
G01*
X2400590Y2125979D03*
G01*
X2483270Y2153539D03*
G01*
X2455709Y2181100D03*
G01*
X2400590Y2181100D03*
G01*
X2400590Y2070859D03*
G01*
X2455709Y2070859D03*
G01*
X2483270Y2098420D03*
G01*
X2428149Y2098420D03*
G01*
X2428149Y2153539D03*
G01*
X2373029Y2153539D03*
G01*
X2373029Y2098420D03*
D52*
G01*
X1450000Y1550000D03*
G01*
X1105000Y2300000D03*
G01*
X1105000Y2300000D03*
G01*
X2625000Y2690000D03*
G01*
X1140000Y2270000D03*
G01*
X2530000Y2685000D03*
G01*
X1195000Y2290000D03*
G01*
X2480000Y2675000D03*
G01*
X1235000Y2240000D03*
G01*
X2435000Y2655000D03*
G01*
X1265000Y2105000D03*
G01*
X2330000Y2640000D03*
G01*
X1310000Y2100000D03*
G01*
X2385000Y2615000D03*
G01*
X1370000Y2115000D03*
G01*
X2285000Y2590000D03*
G01*
X1395000Y2070000D03*
G01*
X2225000Y2570000D03*
G01*
X595000Y2100000D03*
G01*
X1185000Y2145000D03*
G01*
X625000Y2065000D03*
G01*
X1220000Y2110000D03*
G01*
X1645000Y1925000D03*
G01*
X2130000Y2550000D03*
G01*
X1605000Y1945000D03*
G01*
X1575000Y1970000D03*
G01*
X1535000Y1985000D03*
G01*
X1500000Y2005000D03*
G01*
X1625000Y2230000D03*
G01*
X1590000Y2185000D03*
G01*
X1555000Y2145000D03*
G01*
X1510000Y2105000D03*
G01*
X330000Y1815000D03*
G01*
X335000Y1775000D03*
G01*
X705000Y2485000D03*
G01*
X720000Y2240000D03*
G01*
X935000Y2485000D03*
G01*
X885000Y2130000D03*
G01*
X630000Y1870000D03*
G01*
X665000Y2020000D03*
G01*
X725000Y2015000D03*
G01*
X570000Y1875000D03*
G01*
X660000Y2650000D03*
G01*
X1245000Y1660000D03*
G01*
X1230000Y1720000D03*
G01*
X1470000Y1710000D03*
G01*
X1470000Y1510000D03*
G01*
X1340000Y1800000D03*
G01*
X1375000Y1850000D03*
G01*
X1460000Y1665000D03*
G01*
X1350000Y1585000D03*
G01*
X1210000Y1505000D03*
G01*
X635000Y2430000D03*
G01*
X2850000Y2525000D03*
G01*
X2835000Y2640000D03*
G01*
X2760000Y2735000D03*
G01*
X2850000Y2460000D03*
G01*
X550000Y2550000D03*
G01*
X1150000Y2725000D03*
G01*
X2655000Y2730000D03*
G01*
X2630000Y2330000D03*
G01*
X310000Y2495000D03*
G01*
X315000Y1575000D03*
G01*
X335000Y1720000D03*
G01*
X570000Y1640000D03*
G01*
X1955000Y1725000D03*
G01*
X1225000Y1410000D03*
G01*
X1190000Y1725000D03*
G01*
X530000Y2725000D03*
G01*
X475000Y2730000D03*
G01*
X610000Y2725000D03*
G01*
X685000Y2425000D03*
G01*
X765000Y1745000D03*
G01*
X845000Y2435000D03*
G01*
X495000Y1850000D03*
G01*
X325000Y1855000D03*
G01*
X325000Y2285000D03*
G01*
X465000Y2285000D03*
G01*
X538499Y1905000D03*
G01*
X1935000Y1465000D03*
G01*
X2325000Y1470000D03*
G01*
X2320000Y1580000D03*
G01*
X2825000Y1670000D03*
G01*
X2690000Y2655000D03*
G01*
X2575000Y2655000D03*
G01*
X1055000Y1430000D03*
G01*
X2560000Y2185000D03*
G01*
X2560000Y2070000D03*
G01*
X2290000Y2070000D03*
G01*
X2295000Y2185000D03*
G01*
X910000Y2640000D03*
G01*
X950000Y2640000D03*
G01*
X805000Y2490000D03*
G01*
X860000Y2280000D03*
G01*
X2775000Y1615000D03*
G01*
X2480000Y1620000D03*
G01*
X2485000Y1490000D03*
G01*
X2795000Y1450000D03*
G01*
X2605159Y1450000D03*
G01*
X2650000Y1445000D03*
G01*
X2730000Y1517530D03*
G01*
X2565000Y1420000D03*
G01*
X2510000Y1570000D03*
G01*
X1765000Y2463539D03*
G01*
X1615000Y2463539D03*
G01*
X1765000Y2506460D03*
G01*
X1610000Y2506460D03*
G01*
X1785000Y2310000D03*
G01*
X1905000Y2360000D03*
G01*
X1867039Y2475000D03*
G01*
X1620000Y2320000D03*
G01*
X2645000Y1635000D03*
M02*
