G04 Layer: TopSolderMaskLayer*
G04 EasyEDA v6.5.23, 2023-06-17 09:45:11*
G04 36c83109d75f48428eebd667f423d1d4,0a61cb7f7b51421fbede6d33e3e5ec82,10*
G04 Gerber Generator version 0.2*
G04 Scale: 100 percent, Rotated: No, Reflected: No *
G04 Dimensions in inches *
G04 leading zeros omitted , absolute positions ,3 integer and 6 decimal *
%FSLAX36Y36*%
%MOIN*%

%AMMACRO1*1,1,$1,$2,$3*1,1,$1,$4,$5*1,1,$1,0-$2,0-$3*1,1,$1,0-$4,0-$5*20,1,$1,$2,$3,$4,$5,0*20,1,$1,$4,$5,0-$2,0-$3,0*20,1,$1,0-$2,0-$3,0-$4,0-$5,0*20,1,$1,0-$4,0-$5,$2,$3,0*4,1,4,$2,$3,$4,$5,0-$2,0-$3,0-$4,0-$5,$2,$3,0*%
%ADD10MACRO1,0.004X-0.0156X-0.0106X-0.0156X0.0106*%
%ADD11MACRO1,0.004X0.0156X-0.0106X0.0156X0.0106*%
%ADD12MACRO1,0.004X-0.0106X0.0156X0.0106X0.0156*%
%ADD13MACRO1,0.004X-0.0106X-0.0156X0.0106X-0.0156*%
%ADD14MACRO1,0.004X0.0111X0.0106X0.0111X-0.0106*%
%ADD15MACRO1,0.004X-0.0111X0.0106X-0.0111X-0.0106*%
%ADD16MACRO1,0.004X-0.0111X-0.0106X-0.0111X0.0106*%
%ADD17MACRO1,0.004X0.0111X-0.0106X0.0111X0.0106*%
%ADD18MACRO1,0.004X0.0098X-0.0055X-0.0098X-0.0055*%
%ADD19MACRO1,0.004X0.0055X-0.0098X-0.0055X-0.0098*%
%ADD20MACRO1,0.008X-0.0079X0.0081X0.0079X0.0081*%
%ADD21MACRO1,0.008X-0.009X0.0081X0.009X0.0081*%
%ADD22MACRO1,0.004X0.0156X0.0106X0.0156X-0.0106*%
%ADD23MACRO1,0.004X-0.0156X0.0106X-0.0156X-0.0106*%
%ADD24MACRO1,0.004X0.0106X-0.0156X-0.0106X-0.0156*%
%ADD25MACRO1,0.004X0.0106X0.0156X-0.0106X0.0156*%
%ADD26MACRO1,0.004X-0.034X0.0292X0.034X0.0292*%
%ADD27MACRO1,0.004X-0.034X-0.0292X0.034X-0.0292*%
%ADD28MACRO1,0.004X-0.0596X0.0752X0.0596X0.0752*%
%ADD29MACRO1,0.004X-0.0118X-0.0118X-0.0118X0.0118*%
%ADD30MACRO1,0.004X0.0118X0.0118X0.0118X-0.0118*%
%ADD31MACRO1,0.004X0.0118X-0.0118X-0.0118X-0.0118*%
%ADD32MACRO1,0.004X-0.0118X0.0118X0.0118X0.0118*%
%ADD33MACRO1,0.004X0.0276X-0.0197X0.0276X0.0197*%
%ADD34MACRO1,0.004X0.0276X0.0197X0.0276X-0.0197*%
%ADD35MACRO1,0.004X0.0197X-0.0276X-0.0197X-0.0276*%
%ADD36MACRO1,0.004X0.0295X0.0059X0.0295X-0.0059*%
%ADD37MACRO1,0.004X0.0591X0.0394X0.0591X-0.0394*%
%ADD38MACRO1,0.004X-0.059X-0.0394X-0.059X0.0394*%
%ADD39MACRO1,0.004X-0.0106X0.0111X0.0106X0.0111*%
%ADD40MACRO1,0.004X-0.0106X-0.0111X0.0106X-0.0111*%
%ADD41MACRO1,0.004X0.0106X-0.0111X-0.0106X-0.0111*%
%ADD42MACRO1,0.004X0.0106X0.0111X-0.0106X0.0111*%
%ADD43MACRO1,0.0039X0.0177X0.0295X0.0177X-0.0295*%
%ADD44MACRO1,0.0039X-0.0295X0.0177X0.0295X0.0177*%
%ADD45MACRO1,0.0039X-0.0177X-0.0295X-0.0177X0.0295*%
%ADD46MACRO1,0.004X-0.0177X0.0177X0.0177X0.0177*%
%ADD47MACRO1,0.004X-0.0131X0.0055X0.0131X0.0055*%
%ADD48MACRO1,0.004X0.0131X0.0055X-0.0131X0.0055*%
%ADD49MACRO1,0.004X-0.0256X0.0276X0.0256X0.0276*%
%ADD50MACRO1,0.004X0.0138X0.0246X0.0138X-0.0246*%
%ADD51MACRO1,0.004X-0.0218X0.0122X-0.0218X-0.0122*%
%ADD52MACRO1,0.004X-0.0218X0.0123X-0.0218X-0.0123*%
%ADD53MACRO1,0.004X-0.0217X0.0122X-0.0217X-0.0122*%
%ADD54MACRO1,0.004X0.0105X-0.0211X-0.0105X-0.0211*%
%ADD55MACRO1,0.0039X0.0256X0.0059X0.0256X-0.0059*%
%ADD56O,0.074866X0.051244000000000005*%
%ADD57O,0.08274000000000001X0.051244000000000005*%
%ADD58MACRO1,0.004X0.0242X0.0268X0.0242X-0.0268*%
%ADD59MACRO1,0.004X-0.0242X0.0268X-0.0242X-0.0268*%
%ADD60C,0.0128*%

%LPD*%
D10*
G01*
X2741459Y1450000D03*
D11*
G01*
X2698540Y1450000D03*
D12*
G01*
X1710000Y2463541D03*
D13*
G01*
X1710000Y2506459D03*
D12*
G01*
X1660000Y2463541D03*
D13*
G01*
X1660000Y2506459D03*
D14*
G01*
X1692959Y2305000D03*
D15*
G01*
X1727040Y2305000D03*
D16*
G01*
X1867040Y2430000D03*
D17*
G01*
X1832959Y2430000D03*
D16*
G01*
X1862040Y2360000D03*
D17*
G01*
X1827959Y2360000D03*
D18*
G01*
X2649447Y1539839D03*
G01*
X2649447Y1520160D03*
D19*
G01*
X2644529Y1495550D03*
G01*
X2624839Y1495550D03*
G01*
X2605160Y1495550D03*
G01*
X2585470Y1495550D03*
D18*
G01*
X2580553Y1520160D03*
G01*
X2580553Y1539839D03*
D19*
G01*
X2585470Y1564449D03*
G01*
X2605160Y1564449D03*
G01*
X2624839Y1564449D03*
G01*
X2644529Y1564449D03*
D20*
G01*
X1732204Y2351650D03*
D21*
G01*
X1757322Y2351650D03*
G01*
X1757322Y2408350D03*
D20*
G01*
X1732204Y2408350D03*
G01*
X1707795Y2351650D03*
G01*
X1707793Y2408350D03*
D21*
G01*
X1682677Y2351650D03*
G01*
X1682677Y2408350D03*
D22*
G01*
X2483540Y1450000D03*
D23*
G01*
X2526459Y1450000D03*
D16*
G01*
X2722040Y1615000D03*
D17*
G01*
X2687959Y1615000D03*
D14*
G01*
X2537959Y1620000D03*
D15*
G01*
X2572040Y1620000D03*
D10*
G01*
X431458Y1780000D03*
D11*
G01*
X388541Y1780000D03*
D12*
G01*
X2820000Y2553541D03*
D13*
G01*
X2820000Y2596459D03*
D10*
G01*
X636458Y1970000D03*
D11*
G01*
X593541Y1970000D03*
D12*
G01*
X950000Y2553541D03*
D13*
G01*
X950000Y2596459D03*
D12*
G01*
X480000Y2638541D03*
D13*
G01*
X480000Y2681459D03*
D22*
G01*
X1298540Y1760000D03*
D23*
G01*
X1341459Y1760000D03*
D22*
G01*
X1301080Y1622395D03*
D23*
G01*
X1343998Y1622395D03*
D12*
G01*
X900000Y2553541D03*
D13*
G01*
X900000Y2596459D03*
D12*
G01*
X710000Y2548541D03*
D13*
G01*
X710000Y2591459D03*
D12*
G01*
X590000Y2638541D03*
D13*
G01*
X590000Y2681459D03*
D12*
G01*
X660000Y2548541D03*
D13*
G01*
X660000Y2591459D03*
D10*
G01*
X636458Y1920000D03*
D11*
G01*
X593541Y1920000D03*
D24*
G01*
X1113447Y1484764D03*
D25*
G01*
X1113447Y1441846D03*
D10*
G01*
X1331459Y1410000D03*
D11*
G01*
X1288540Y1410000D03*
D26*
G01*
X2750000Y2557302D03*
D27*
G01*
X2750000Y2682697D03*
D28*
G01*
X734764Y1540000D03*
G01*
X1005237Y1540000D03*
D29*
G01*
X540000Y2335471D03*
D30*
G01*
X540000Y2394529D03*
D29*
G01*
X590000Y2335471D03*
D30*
G01*
X590000Y2394529D03*
D31*
G01*
X444529Y1825000D03*
D32*
G01*
X385471Y1825000D03*
D33*
G01*
X1530000Y1643650D03*
D34*
G01*
X1530000Y1726350D03*
D35*
G01*
X2108649Y1465000D03*
G01*
X2191350Y1465000D03*
G01*
X2108649Y1580000D03*
G01*
X2191350Y1580000D03*
D36*
G01*
X782329Y2293106D03*
G01*
X782329Y2273440D03*
G01*
X782329Y2253759D03*
G01*
X782329Y2234069D03*
G01*
X782329Y2214390D03*
G01*
X782329Y2194700D03*
G01*
X782329Y2175019D03*
G01*
X782329Y2155329D03*
G01*
X782329Y2135650D03*
G01*
X782329Y2115960D03*
G01*
X782329Y2096279D03*
G01*
X782329Y2076590D03*
G01*
X782329Y2056910D03*
G01*
X782329Y2037219D03*
G01*
X782279Y2017690D03*
G01*
X782300Y1997875D03*
G01*
X782345Y1978174D03*
G01*
X782329Y1958505D03*
G01*
X782329Y1938824D03*
G01*
X782210Y1919055D03*
G01*
X782210Y1899354D03*
G01*
X782210Y1879685D03*
G01*
X782210Y1859984D03*
G01*
X782210Y1840294D03*
D37*
G01*
X871075Y2358299D03*
D38*
G01*
X871329Y1775550D03*
D16*
G01*
X627040Y2020000D03*
D17*
G01*
X592959Y2020000D03*
D39*
G01*
X490000Y2347959D03*
D40*
G01*
X490000Y2382040D03*
D41*
G01*
X525000Y2677040D03*
D42*
G01*
X525000Y2642959D03*
D41*
G01*
X2622110Y2610345D03*
D42*
G01*
X2622110Y2576264D03*
D41*
G01*
X2527110Y2610345D03*
D42*
G01*
X2527110Y2576264D03*
D41*
G01*
X2480000Y2522040D03*
D42*
G01*
X2480000Y2487959D03*
D41*
G01*
X2430000Y2522040D03*
D42*
G01*
X2430000Y2487959D03*
D41*
G01*
X2380000Y2522040D03*
D42*
G01*
X2380000Y2487959D03*
D14*
G01*
X1922959Y2040000D03*
D15*
G01*
X1957040Y2040000D03*
D14*
G01*
X1925069Y2193305D03*
D15*
G01*
X1959150Y2193305D03*
D14*
G01*
X1923959Y2140999D03*
D15*
G01*
X1958040Y2140999D03*
D14*
G01*
X1923959Y2090999D03*
D15*
G01*
X1958040Y2090999D03*
D41*
G01*
X2230000Y2522040D03*
D42*
G01*
X2230000Y2487959D03*
D41*
G01*
X2280000Y2522040D03*
D42*
G01*
X2280000Y2487959D03*
D41*
G01*
X2330000Y2522040D03*
D42*
G01*
X2330000Y2487959D03*
D14*
G01*
X1925069Y2243305D03*
D15*
G01*
X1959150Y2243305D03*
D41*
G01*
X2177110Y2520345D03*
D42*
G01*
X2177110Y2486264D03*
D41*
G01*
X2670000Y2612040D03*
D42*
G01*
X2670000Y2577959D03*
D41*
G01*
X2575000Y2612040D03*
D42*
G01*
X2575000Y2577959D03*
D16*
G01*
X1432040Y1625000D03*
D17*
G01*
X1397959Y1625000D03*
D14*
G01*
X1387959Y1760000D03*
D15*
G01*
X1422040Y1760000D03*
D39*
G01*
X640000Y2352959D03*
D40*
G01*
X640000Y2387040D03*
D39*
G01*
X685000Y2352959D03*
D40*
G01*
X685000Y2387040D03*
D16*
G01*
X427040Y1735000D03*
D17*
G01*
X392959Y1735000D03*
D41*
G01*
X1160000Y1482040D03*
D42*
G01*
X1160000Y1447959D03*
D16*
G01*
X2022040Y1465000D03*
D17*
G01*
X1987959Y1465000D03*
D16*
G01*
X2022040Y1575000D03*
D17*
G01*
X1987959Y1575000D03*
D43*
G01*
X2732080Y2411413D03*
G01*
X2682080Y2411413D03*
G01*
X2632080Y2411413D03*
G01*
X2582080Y2411413D03*
G01*
X2532080Y2411413D03*
G01*
X2482080Y2411413D03*
G01*
X2432080Y2411413D03*
G01*
X2382080Y2411413D03*
G01*
X2332080Y2411413D03*
G01*
X2282080Y2411413D03*
G01*
X2232080Y2411413D03*
G01*
X2182080Y2411413D03*
G01*
X2132080Y2411413D03*
G01*
X2082080Y2411413D03*
D44*
G01*
X2031685Y2341924D03*
G01*
X2031685Y2291924D03*
G01*
X2031685Y2241924D03*
G01*
X2031685Y2191924D03*
G01*
X2031685Y2141924D03*
G01*
X2031685Y2091924D03*
G01*
X2031685Y2041924D03*
G01*
X2031685Y1991924D03*
G01*
X2031685Y1941924D03*
G01*
X2031685Y1891924D03*
G01*
X2031685Y1841924D03*
G01*
X2032869Y1791924D03*
D45*
G01*
X2082080Y1722437D03*
G01*
X2132080Y1722437D03*
G01*
X2182080Y1722437D03*
G01*
X2232080Y1722437D03*
G01*
X2282080Y1722437D03*
G01*
X2332080Y1722437D03*
G01*
X2382080Y1722437D03*
G01*
X2432080Y1722437D03*
G01*
X2482080Y1722437D03*
G01*
X2532080Y1722437D03*
G01*
X2582080Y1722437D03*
G01*
X2632080Y1722437D03*
G01*
X2682080Y1722437D03*
G01*
X2732080Y1722437D03*
D46*
G01*
X2373020Y2070866D03*
G01*
X2373017Y2125984D03*
G01*
X2373020Y2181101D03*
G01*
X2483256Y2181101D03*
G01*
X2483256Y2125984D03*
G01*
X2483256Y2070866D03*
G01*
X2428138Y2070866D03*
G01*
X2428138Y2181101D03*
G01*
X2428138Y2125984D03*
D47*
G01*
X1294586Y1719527D03*
G01*
X1294586Y1699842D03*
G01*
X1294586Y1680157D03*
G01*
X1294586Y1660472D03*
D48*
G01*
X1405413Y1660472D03*
G01*
X1405413Y1680157D03*
G01*
X1405413Y1699842D03*
G01*
X1405413Y1719527D03*
D49*
G01*
X1350000Y1690000D03*
D50*
G01*
X1112599Y1635630D03*
G01*
X1187400Y1635630D03*
G01*
X1149999Y1714369D03*
D51*
G01*
X1364050Y1470632D03*
D52*
G01*
X1364050Y1545415D03*
D51*
G01*
X1261687Y1545416D03*
G01*
X1261687Y1508047D03*
D53*
G01*
X1261687Y1470634D03*
D54*
G01*
X842399Y2630239D03*
G01*
X805000Y2630239D03*
G01*
X767599Y2630239D03*
G01*
X767599Y2539760D03*
G01*
X805000Y2539760D03*
G01*
X842399Y2539760D03*
D55*
G01*
X508468Y2198815D03*
G01*
X508468Y2187005D03*
G01*
X508468Y2167315D03*
G01*
X508468Y2155505D03*
G01*
X508465Y2135825D03*
G01*
X508467Y2116135D03*
G01*
X508468Y2096455D03*
G01*
X508467Y2076765D03*
G01*
X508468Y2057085D03*
G01*
X508467Y2037395D03*
G01*
X508467Y1998025D03*
G01*
X508459Y1978345D03*
G01*
X508459Y1966525D03*
G01*
X508467Y1946846D03*
G01*
X508467Y1935035D03*
G01*
X508465Y2017725D03*
D56*
G01*
X318310Y2236999D03*
G01*
X318310Y1896840D03*
D57*
G01*
X482880Y1896840D03*
G01*
X482880Y2236999D03*
D58*
G01*
X353976Y2520000D03*
D59*
G01*
X526023Y2520000D03*
D58*
G01*
X348976Y1645000D03*
D59*
G01*
X521023Y1645000D03*
M02*
