G04 Layer: TopPasteMaskLayer*
G04 EasyEDA v6.5.23, 2023-06-17 09:45:11*
G04 36c83109d75f48428eebd667f423d1d4,0a61cb7f7b51421fbede6d33e3e5ec82,10*
G04 Gerber Generator version 0.2*
G04 Scale: 100 percent, Rotated: No, Reflected: No *
G04 Dimensions in inches *
G04 leading zeros omitted , absolute positions ,3 integer and 6 decimal *
%FSLAX36Y36*%
%MOIN*%

%AMMACRO1*21,1,$1,$2,0,0,$3*%
%ADD10R,0.0197X0.0110*%
%ADD11R,0.0110X0.0197*%
%ADD12R,0.0157X0.0161*%
%ADD13R,0.0179X0.0161*%
%ADD14R,0.1193X0.1504*%
%ADD15R,0.0236X0.0236*%
%ADD16MACRO1,0.0394X0.0551X90.0000*%
%ADD17R,0.0551X0.0394*%
%ADD18R,0.0394X0.0551*%
%ADD19R,0.0591X0.0118*%
%ADD20MACRO1,0.0118X0.0591X-90.0000*%
%ADD21R,0.1181X0.0787*%
%ADD22R,0.0354X0.0591*%
%ADD23R,0.0591X0.0354*%
%ADD24R,0.0354X0.0354*%
%ADD25MACRO1,0.0262X0.011X0.0000*%
%ADD26MACRO1,0.0512X0.0551X0.0000*%
%ADD27R,0.0276X0.0492*%
%ADD28MACRO1,0.0245X0.0435X-90.0000*%
%ADD29R,0.0209X0.0422*%
%ADD30MACRO1,0.0535X0.0484X-90.0000*%
%ADD31R,0.0484X0.0535*%
%ADD32R,0.0145X0.0535*%

%LPD*%
G36*
X2729840Y1460820D02*
G01*
X2727880Y1458860D01*
X2727880Y1441140D01*
X2729840Y1439180D01*
X2750700Y1439180D01*
X2752679Y1441140D01*
X2752679Y1458860D01*
X2750700Y1460820D01*
G37*
G36*
X2689300Y1460820D02*
G01*
X2687320Y1458860D01*
X2687320Y1441140D01*
X2689300Y1439180D01*
X2710160Y1439180D01*
X2712120Y1441140D01*
X2712120Y1458860D01*
X2710160Y1460820D01*
G37*
G36*
X1701140Y2515700D02*
G01*
X1699180Y2513740D01*
X1699180Y2494840D01*
X1701140Y2492080D01*
X1718860Y2492080D01*
X1720820Y2494840D01*
X1720820Y2513740D01*
X1718860Y2515700D01*
G37*
G36*
X1701140Y2477920D02*
G01*
X1699180Y2475160D01*
X1699180Y2456260D01*
X1701140Y2454300D01*
X1718860Y2454300D01*
X1720820Y2456260D01*
X1720820Y2475160D01*
X1718860Y2477920D01*
G37*
G36*
X1651140Y2515700D02*
G01*
X1649180Y2513740D01*
X1649180Y2494840D01*
X1651140Y2492080D01*
X1668860Y2492080D01*
X1670820Y2494840D01*
X1670820Y2513740D01*
X1668860Y2515700D01*
G37*
G36*
X1651140Y2477920D02*
G01*
X1649180Y2475160D01*
X1649180Y2456260D01*
X1651140Y2454300D01*
X1668860Y2454300D01*
X1670820Y2456260D01*
X1670820Y2475160D01*
X1668860Y2477920D01*
G37*
G36*
X1683400Y2315640D02*
G01*
X1681819Y2314060D01*
X1681819Y2295940D01*
X1683400Y2294360D01*
X1703100Y2294360D01*
X1704680Y2295940D01*
X1704680Y2314060D01*
X1703100Y2315640D01*
G37*
G36*
X1716900Y2315640D02*
G01*
X1715320Y2314060D01*
X1715320Y2295940D01*
X1716900Y2294360D01*
X1736600Y2294360D01*
X1738180Y2295940D01*
X1738180Y2314060D01*
X1736600Y2315640D01*
G37*
G36*
X1856900Y2440640D02*
G01*
X1855320Y2439060D01*
X1855320Y2420940D01*
X1856900Y2419360D01*
X1876600Y2419360D01*
X1878180Y2420940D01*
X1878180Y2439060D01*
X1876600Y2440640D01*
G37*
G36*
X1823400Y2440640D02*
G01*
X1821819Y2439060D01*
X1821819Y2420940D01*
X1823400Y2419360D01*
X1843100Y2419360D01*
X1844680Y2420940D01*
X1844680Y2439060D01*
X1843100Y2440640D01*
G37*
G36*
X1851900Y2370640D02*
G01*
X1850320Y2369060D01*
X1850320Y2350940D01*
X1851900Y2349360D01*
X1871600Y2349360D01*
X1873180Y2350940D01*
X1873180Y2369060D01*
X1871600Y2370640D01*
G37*
G36*
X1818400Y2370640D02*
G01*
X1816819Y2369060D01*
X1816819Y2350940D01*
X1818400Y2349360D01*
X1838100Y2349360D01*
X1839680Y2350940D01*
X1839680Y2369060D01*
X1838100Y2370640D01*
G37*
G36*
X2474300Y1460820D02*
G01*
X2472320Y1458860D01*
X2472320Y1441140D01*
X2474300Y1439180D01*
X2495160Y1439180D01*
X2497120Y1441140D01*
X2497120Y1458860D01*
X2495160Y1460820D01*
G37*
G36*
X2514840Y1460820D02*
G01*
X2512880Y1458860D01*
X2512880Y1441140D01*
X2514840Y1439180D01*
X2535700Y1439180D01*
X2537680Y1441140D01*
X2537680Y1458860D01*
X2535700Y1460820D01*
G37*
G36*
X2711900Y1625640D02*
G01*
X2710320Y1624060D01*
X2710320Y1605940D01*
X2711900Y1604360D01*
X2731600Y1604360D01*
X2733180Y1605940D01*
X2733180Y1624060D01*
X2731600Y1625640D01*
G37*
G36*
X2678399Y1625640D02*
G01*
X2676820Y1624060D01*
X2676820Y1605940D01*
X2678399Y1604360D01*
X2698100Y1604360D01*
X2699680Y1605940D01*
X2699680Y1624060D01*
X2698100Y1625640D01*
G37*
G36*
X2528400Y1630640D02*
G01*
X2526820Y1629060D01*
X2526820Y1610940D01*
X2528400Y1609360D01*
X2548100Y1609360D01*
X2549680Y1610940D01*
X2549680Y1629060D01*
X2548100Y1630640D01*
G37*
G36*
X2561900Y1630640D02*
G01*
X2560320Y1629060D01*
X2560320Y1610940D01*
X2561900Y1609360D01*
X2581600Y1609360D01*
X2583180Y1610940D01*
X2583180Y1629060D01*
X2581600Y1630640D01*
G37*
G36*
X419840Y1790820D02*
G01*
X417879Y1788860D01*
X417879Y1771140D01*
X419840Y1769180D01*
X440700Y1769180D01*
X442680Y1771140D01*
X442680Y1788860D01*
X440700Y1790820D01*
G37*
G36*
X379300Y1790820D02*
G01*
X377320Y1788860D01*
X377320Y1771140D01*
X379300Y1769180D01*
X400160Y1769180D01*
X402120Y1771140D01*
X402120Y1788860D01*
X400160Y1790820D01*
G37*
G36*
X2811139Y2567120D02*
G01*
X2809180Y2565160D01*
X2809180Y2544300D01*
X2811139Y2542320D01*
X2828860Y2542320D01*
X2830820Y2544300D01*
X2830820Y2565160D01*
X2828860Y2567120D01*
G37*
G36*
X2811139Y2607679D02*
G01*
X2809180Y2605700D01*
X2809180Y2584840D01*
X2811139Y2582880D01*
X2828860Y2582880D01*
X2830820Y2584840D01*
X2830820Y2605700D01*
X2828860Y2607679D01*
G37*
G36*
X624840Y1980820D02*
G01*
X622880Y1978860D01*
X622880Y1961140D01*
X624840Y1959180D01*
X645699Y1959180D01*
X647680Y1961140D01*
X647680Y1978860D01*
X645699Y1980820D01*
G37*
G36*
X584300Y1980820D02*
G01*
X582320Y1978860D01*
X582320Y1961140D01*
X584300Y1959180D01*
X605160Y1959180D01*
X607120Y1961140D01*
X607120Y1978860D01*
X605160Y1980820D01*
G37*
G36*
X941140Y2567120D02*
G01*
X939180Y2565160D01*
X939180Y2544300D01*
X941140Y2542320D01*
X958860Y2542320D01*
X960819Y2544300D01*
X960819Y2565160D01*
X958860Y2567120D01*
G37*
G36*
X941140Y2607679D02*
G01*
X939180Y2605700D01*
X939180Y2584840D01*
X941140Y2582880D01*
X958860Y2582880D01*
X960819Y2584840D01*
X960819Y2605700D01*
X958860Y2607679D01*
G37*
G36*
X471140Y2652120D02*
G01*
X469180Y2650160D01*
X469180Y2629300D01*
X471140Y2627320D01*
X488860Y2627320D01*
X490820Y2629300D01*
X490820Y2650160D01*
X488860Y2652120D01*
G37*
G36*
X471140Y2692679D02*
G01*
X469180Y2690700D01*
X469180Y2669840D01*
X471140Y2667880D01*
X488860Y2667880D01*
X490820Y2669840D01*
X490820Y2690700D01*
X488860Y2692679D01*
G37*
G36*
X1329840Y1770820D02*
G01*
X1327080Y1768860D01*
X1327080Y1751140D01*
X1329840Y1749180D01*
X1348740Y1749180D01*
X1350700Y1751140D01*
X1350700Y1768860D01*
X1348740Y1770820D01*
G37*
G36*
X1291260Y1770820D02*
G01*
X1289300Y1768860D01*
X1289300Y1751140D01*
X1291260Y1749180D01*
X1310160Y1749180D01*
X1312920Y1751140D01*
X1312920Y1768860D01*
X1310160Y1770820D01*
G37*
G36*
X1332380Y1633220D02*
G01*
X1329620Y1631260D01*
X1329620Y1613540D01*
X1332380Y1611560D01*
X1351279Y1611560D01*
X1353240Y1613540D01*
X1353240Y1631260D01*
X1351279Y1633220D01*
G37*
G36*
X1293800Y1633220D02*
G01*
X1291840Y1631260D01*
X1291840Y1613540D01*
X1293800Y1611560D01*
X1312700Y1611560D01*
X1315460Y1613540D01*
X1315460Y1631260D01*
X1312700Y1633220D01*
G37*
G36*
X891140Y2605700D02*
G01*
X889180Y2603740D01*
X889180Y2584840D01*
X891140Y2582080D01*
X908860Y2582080D01*
X910819Y2584840D01*
X910819Y2603740D01*
X908860Y2605700D01*
G37*
G36*
X891140Y2567919D02*
G01*
X889180Y2565160D01*
X889180Y2546260D01*
X891140Y2544300D01*
X908860Y2544300D01*
X910819Y2546260D01*
X910819Y2565160D01*
X908860Y2567919D01*
G37*
G36*
X701140Y2600700D02*
G01*
X699180Y2598740D01*
X699180Y2579840D01*
X701140Y2577080D01*
X718860Y2577080D01*
X720819Y2579840D01*
X720819Y2598740D01*
X718860Y2600700D01*
G37*
G36*
X701140Y2562919D02*
G01*
X699180Y2560160D01*
X699180Y2541260D01*
X701140Y2539300D01*
X718860Y2539300D01*
X720819Y2541260D01*
X720819Y2560160D01*
X718860Y2562919D01*
G37*
G36*
X581140Y2690700D02*
G01*
X579180Y2688740D01*
X579180Y2669840D01*
X581140Y2667080D01*
X598860Y2667080D01*
X600820Y2669840D01*
X600820Y2688740D01*
X598860Y2690700D01*
G37*
G36*
X581140Y2652919D02*
G01*
X579180Y2650160D01*
X579180Y2631259D01*
X581140Y2629300D01*
X598860Y2629300D01*
X600820Y2631259D01*
X600820Y2650160D01*
X598860Y2652919D01*
G37*
G36*
X651140Y2600700D02*
G01*
X649180Y2598740D01*
X649180Y2579840D01*
X651140Y2577080D01*
X668860Y2577080D01*
X670819Y2579840D01*
X670819Y2598740D01*
X668860Y2600700D01*
G37*
G36*
X651140Y2562919D02*
G01*
X649180Y2560160D01*
X649180Y2541260D01*
X651140Y2539300D01*
X668860Y2539300D01*
X670819Y2541260D01*
X670819Y2560160D01*
X668860Y2562919D01*
G37*
G36*
X586260Y1930820D02*
G01*
X584300Y1928860D01*
X584300Y1911140D01*
X586260Y1909180D01*
X605160Y1909180D01*
X607920Y1911140D01*
X607920Y1928860D01*
X605160Y1930820D01*
G37*
G36*
X624840Y1930820D02*
G01*
X622080Y1928860D01*
X622080Y1911140D01*
X624840Y1909180D01*
X643740Y1909180D01*
X645699Y1911140D01*
X645699Y1928860D01*
X643740Y1930820D01*
G37*
G36*
X1104580Y1456220D02*
G01*
X1102620Y1453460D01*
X1102620Y1434560D01*
X1104580Y1432600D01*
X1122300Y1432600D01*
X1124280Y1434560D01*
X1124280Y1453460D01*
X1122300Y1456220D01*
G37*
G36*
X1104580Y1494019D02*
G01*
X1102620Y1492040D01*
X1102620Y1473140D01*
X1104580Y1470400D01*
X1122300Y1470400D01*
X1124280Y1473140D01*
X1124280Y1492040D01*
X1122300Y1494019D01*
G37*
G36*
X1281260Y1420820D02*
G01*
X1279300Y1418860D01*
X1279300Y1401140D01*
X1281260Y1399180D01*
X1300160Y1399180D01*
X1302920Y1401140D01*
X1302920Y1418860D01*
X1300160Y1420820D01*
G37*
G36*
X1319840Y1420820D02*
G01*
X1317080Y1418860D01*
X1317080Y1401140D01*
X1319840Y1399180D01*
X1338740Y1399180D01*
X1340700Y1401140D01*
X1340700Y1418860D01*
X1338740Y1420820D01*
G37*
G36*
X2719920Y2586540D02*
G01*
X2715980Y2582600D01*
X2715980Y2532000D01*
X2719920Y2528080D01*
X2780080Y2528080D01*
X2784020Y2532000D01*
X2784020Y2582600D01*
X2780080Y2586540D01*
X2765500Y2586540D01*
X2761560Y2582600D01*
X2761560Y2570600D01*
X2757620Y2566660D01*
X2742380Y2566660D01*
X2738440Y2570600D01*
X2738440Y2582600D01*
X2734500Y2586540D01*
G37*
G36*
X2719920Y2711920D02*
G01*
X2715980Y2708000D01*
X2715980Y2657400D01*
X2719920Y2653460D01*
X2734500Y2653460D01*
X2738440Y2657400D01*
X2738440Y2669400D01*
X2742380Y2673340D01*
X2757620Y2673340D01*
X2761560Y2669400D01*
X2761560Y2657400D01*
X2765500Y2653460D01*
X2780080Y2653460D01*
X2784020Y2657400D01*
X2784020Y2708000D01*
X2780080Y2711920D01*
G37*
G36*
X616880Y2030640D02*
G01*
X615320Y2029060D01*
X615320Y2010940D01*
X616880Y2009360D01*
X636600Y2009360D01*
X638180Y2010940D01*
X638180Y2029060D01*
X636600Y2030640D01*
G37*
G36*
X583400Y2030640D02*
G01*
X581820Y2029060D01*
X581820Y2010940D01*
X583400Y2009360D01*
X603120Y2009360D01*
X604680Y2010940D01*
X604680Y2029060D01*
X603120Y2030640D01*
G37*
G36*
X480940Y2359680D02*
G01*
X479360Y2358120D01*
X479360Y2338400D01*
X480940Y2336820D01*
X499060Y2336820D01*
X500640Y2338400D01*
X500640Y2358120D01*
X499060Y2359680D01*
G37*
G36*
X480940Y2393180D02*
G01*
X479360Y2391600D01*
X479360Y2371880D01*
X480940Y2370320D01*
X499060Y2370320D01*
X500640Y2371880D01*
X500640Y2391600D01*
X499060Y2393180D01*
G37*
G36*
X515940Y2688180D02*
G01*
X514360Y2686600D01*
X514360Y2666880D01*
X515940Y2665320D01*
X534060Y2665320D01*
X535640Y2666880D01*
X535640Y2686600D01*
X534060Y2688180D01*
G37*
G36*
X515940Y2654680D02*
G01*
X514360Y2653120D01*
X514360Y2633399D01*
X515940Y2631820D01*
X534060Y2631820D01*
X535640Y2633399D01*
X535640Y2653120D01*
X534060Y2654680D01*
G37*
G36*
X2613060Y2621480D02*
G01*
X2611480Y2619900D01*
X2611480Y2600200D01*
X2613060Y2598620D01*
X2631160Y2598620D01*
X2632740Y2600200D01*
X2632740Y2619900D01*
X2631160Y2621480D01*
G37*
G36*
X2613060Y2587980D02*
G01*
X2611480Y2586420D01*
X2611480Y2566700D01*
X2613060Y2565120D01*
X2631160Y2565120D01*
X2632740Y2566700D01*
X2632740Y2586420D01*
X2631160Y2587980D01*
G37*
G36*
X2518060Y2621480D02*
G01*
X2516480Y2619900D01*
X2516480Y2600200D01*
X2518060Y2598620D01*
X2536160Y2598620D01*
X2537740Y2600200D01*
X2537740Y2619900D01*
X2536160Y2621480D01*
G37*
G36*
X2518060Y2587980D02*
G01*
X2516480Y2586420D01*
X2516480Y2566700D01*
X2518060Y2565120D01*
X2536160Y2565120D01*
X2537740Y2566700D01*
X2537740Y2586420D01*
X2536160Y2587980D01*
G37*
G36*
X2470940Y2533180D02*
G01*
X2469360Y2531600D01*
X2469360Y2511880D01*
X2470940Y2510320D01*
X2489060Y2510320D01*
X2490640Y2511880D01*
X2490640Y2531600D01*
X2489060Y2533180D01*
G37*
G36*
X2470940Y2499680D02*
G01*
X2469360Y2498120D01*
X2469360Y2478400D01*
X2470940Y2476820D01*
X2489060Y2476820D01*
X2490640Y2478400D01*
X2490640Y2498120D01*
X2489060Y2499680D01*
G37*
G36*
X2420940Y2533180D02*
G01*
X2419360Y2531600D01*
X2419360Y2511880D01*
X2420940Y2510320D01*
X2439060Y2510320D01*
X2440640Y2511880D01*
X2440640Y2531600D01*
X2439060Y2533180D01*
G37*
G36*
X2420940Y2499680D02*
G01*
X2419360Y2498120D01*
X2419360Y2478400D01*
X2420940Y2476820D01*
X2439060Y2476820D01*
X2440640Y2478400D01*
X2440640Y2498120D01*
X2439060Y2499680D01*
G37*
G36*
X2370940Y2533180D02*
G01*
X2369360Y2531600D01*
X2369360Y2511880D01*
X2370940Y2510320D01*
X2389060Y2510320D01*
X2390640Y2511880D01*
X2390640Y2531600D01*
X2389060Y2533180D01*
G37*
G36*
X2370940Y2499680D02*
G01*
X2369360Y2498120D01*
X2369360Y2478400D01*
X2370940Y2476820D01*
X2389060Y2476820D01*
X2390640Y2478400D01*
X2390640Y2498120D01*
X2389060Y2499680D01*
G37*
G36*
X1913400Y2050640D02*
G01*
X1911819Y2049060D01*
X1911819Y2030940D01*
X1913400Y2029360D01*
X1933100Y2029360D01*
X1934680Y2030940D01*
X1934680Y2049060D01*
X1933100Y2050640D01*
G37*
G36*
X1946900Y2050640D02*
G01*
X1945320Y2049060D01*
X1945320Y2030940D01*
X1946900Y2029360D01*
X1966600Y2029360D01*
X1968180Y2030940D01*
X1968180Y2049060D01*
X1966600Y2050640D01*
G37*
G36*
X1915520Y2203940D02*
G01*
X1913940Y2202360D01*
X1913940Y2184260D01*
X1915520Y2182680D01*
X1935220Y2182680D01*
X1936800Y2184260D01*
X1936800Y2202360D01*
X1935220Y2203940D01*
G37*
G36*
X1949000Y2203940D02*
G01*
X1947420Y2202360D01*
X1947420Y2184260D01*
X1949000Y2182680D01*
X1968720Y2182680D01*
X1970280Y2184260D01*
X1970280Y2202360D01*
X1968720Y2203940D01*
G37*
G36*
X1914400Y2151640D02*
G01*
X1912820Y2150060D01*
X1912820Y2131940D01*
X1914400Y2130360D01*
X1934120Y2130360D01*
X1935680Y2131940D01*
X1935680Y2150060D01*
X1934120Y2151640D01*
G37*
G36*
X1947880Y2151640D02*
G01*
X1946320Y2150060D01*
X1946320Y2131940D01*
X1947880Y2130360D01*
X1967600Y2130360D01*
X1969180Y2131940D01*
X1969180Y2150060D01*
X1967600Y2151640D01*
G37*
G36*
X1914400Y2101640D02*
G01*
X1912820Y2100060D01*
X1912820Y2081940D01*
X1914400Y2080360D01*
X1934120Y2080360D01*
X1935680Y2081940D01*
X1935680Y2100060D01*
X1934120Y2101640D01*
G37*
G36*
X1947880Y2101640D02*
G01*
X1946320Y2100060D01*
X1946320Y2081940D01*
X1947880Y2080360D01*
X1967600Y2080360D01*
X1969180Y2081940D01*
X1969180Y2100060D01*
X1967600Y2101640D01*
G37*
G36*
X2220940Y2533180D02*
G01*
X2219360Y2531600D01*
X2219360Y2511880D01*
X2220940Y2510320D01*
X2239060Y2510320D01*
X2240640Y2511880D01*
X2240640Y2531600D01*
X2239060Y2533180D01*
G37*
G36*
X2220940Y2499680D02*
G01*
X2219360Y2498120D01*
X2219360Y2478400D01*
X2220940Y2476820D01*
X2239060Y2476820D01*
X2240640Y2478400D01*
X2240640Y2498120D01*
X2239060Y2499680D01*
G37*
G36*
X2270940Y2533180D02*
G01*
X2269360Y2531600D01*
X2269360Y2511880D01*
X2270940Y2510320D01*
X2289060Y2510320D01*
X2290640Y2511880D01*
X2290640Y2531600D01*
X2289060Y2533180D01*
G37*
G36*
X2270940Y2499680D02*
G01*
X2269360Y2498120D01*
X2269360Y2478400D01*
X2270940Y2476820D01*
X2289060Y2476820D01*
X2290640Y2478400D01*
X2290640Y2498120D01*
X2289060Y2499680D01*
G37*
G36*
X2320940Y2533180D02*
G01*
X2319360Y2531600D01*
X2319360Y2511880D01*
X2320940Y2510320D01*
X2339060Y2510320D01*
X2340640Y2511880D01*
X2340640Y2531600D01*
X2339060Y2533180D01*
G37*
G36*
X2320940Y2499680D02*
G01*
X2319360Y2498120D01*
X2319360Y2478400D01*
X2320940Y2476820D01*
X2339060Y2476820D01*
X2340640Y2478400D01*
X2340640Y2498120D01*
X2339060Y2499680D01*
G37*
G36*
X1915520Y2253940D02*
G01*
X1913940Y2252360D01*
X1913940Y2234260D01*
X1915520Y2232680D01*
X1935220Y2232680D01*
X1936800Y2234260D01*
X1936800Y2252360D01*
X1935220Y2253940D01*
G37*
G36*
X1949000Y2253940D02*
G01*
X1947420Y2252360D01*
X1947420Y2234260D01*
X1949000Y2232680D01*
X1968720Y2232680D01*
X1970280Y2234260D01*
X1970280Y2252360D01*
X1968720Y2253940D01*
G37*
G36*
X2168060Y2531480D02*
G01*
X2166480Y2529900D01*
X2166480Y2510200D01*
X2168060Y2508620D01*
X2186160Y2508620D01*
X2187740Y2510200D01*
X2187740Y2529900D01*
X2186160Y2531480D01*
G37*
G36*
X2168060Y2497980D02*
G01*
X2166480Y2496420D01*
X2166480Y2476700D01*
X2168060Y2475120D01*
X2186160Y2475120D01*
X2187740Y2476700D01*
X2187740Y2496420D01*
X2186160Y2497980D01*
G37*
G36*
X2660940Y2623180D02*
G01*
X2659360Y2621600D01*
X2659360Y2601880D01*
X2660940Y2600320D01*
X2679060Y2600320D01*
X2680640Y2601880D01*
X2680640Y2621600D01*
X2679060Y2623180D01*
G37*
G36*
X2660940Y2589680D02*
G01*
X2659360Y2588120D01*
X2659360Y2568399D01*
X2660940Y2566820D01*
X2679060Y2566820D01*
X2680640Y2568399D01*
X2680640Y2588120D01*
X2679060Y2589680D01*
G37*
G36*
X2565940Y2623180D02*
G01*
X2564360Y2621600D01*
X2564360Y2601880D01*
X2565940Y2600320D01*
X2584060Y2600320D01*
X2585640Y2601880D01*
X2585640Y2621600D01*
X2584060Y2623180D01*
G37*
G36*
X2565940Y2589680D02*
G01*
X2564360Y2588120D01*
X2564360Y2568399D01*
X2565940Y2566820D01*
X2584060Y2566820D01*
X2585640Y2568399D01*
X2585640Y2588120D01*
X2584060Y2589680D01*
G37*
G36*
X1421900Y1635640D02*
G01*
X1420320Y1634060D01*
X1420320Y1615940D01*
X1421900Y1614360D01*
X1441600Y1614360D01*
X1443180Y1615940D01*
X1443180Y1634060D01*
X1441600Y1635640D01*
G37*
G36*
X1388400Y1635640D02*
G01*
X1386819Y1634060D01*
X1386819Y1615940D01*
X1388400Y1614360D01*
X1408100Y1614360D01*
X1409680Y1615940D01*
X1409680Y1634060D01*
X1408100Y1635640D01*
G37*
G36*
X1378400Y1770640D02*
G01*
X1376819Y1769060D01*
X1376819Y1750940D01*
X1378400Y1749360D01*
X1398100Y1749360D01*
X1399680Y1750940D01*
X1399680Y1769060D01*
X1398100Y1770640D01*
G37*
G36*
X1411900Y1770640D02*
G01*
X1410320Y1769060D01*
X1410320Y1750940D01*
X1411900Y1749360D01*
X1431600Y1749360D01*
X1433180Y1750940D01*
X1433180Y1769060D01*
X1431600Y1770640D01*
G37*
G36*
X630940Y2364680D02*
G01*
X629360Y2363120D01*
X629360Y2343400D01*
X630940Y2341820D01*
X649060Y2341820D01*
X650639Y2343400D01*
X650639Y2363120D01*
X649060Y2364680D01*
G37*
G36*
X630940Y2398180D02*
G01*
X629360Y2396600D01*
X629360Y2376880D01*
X630940Y2375320D01*
X649060Y2375320D01*
X650639Y2376880D01*
X650639Y2396600D01*
X649060Y2398180D01*
G37*
G36*
X675939Y2364680D02*
G01*
X674360Y2363120D01*
X674360Y2343400D01*
X675939Y2341820D01*
X694060Y2341820D01*
X695639Y2343400D01*
X695639Y2363120D01*
X694060Y2364680D01*
G37*
G36*
X675939Y2398180D02*
G01*
X674360Y2396600D01*
X674360Y2376880D01*
X675939Y2375320D01*
X694060Y2375320D01*
X695639Y2376880D01*
X695639Y2396600D01*
X694060Y2398180D01*
G37*
G36*
X416880Y1745640D02*
G01*
X415319Y1744060D01*
X415319Y1725940D01*
X416880Y1724360D01*
X436599Y1724360D01*
X438180Y1725940D01*
X438180Y1744060D01*
X436599Y1745640D01*
G37*
G36*
X383400Y1745640D02*
G01*
X381820Y1744060D01*
X381820Y1725940D01*
X383400Y1724360D01*
X403120Y1724360D01*
X404680Y1725940D01*
X404680Y1744060D01*
X403120Y1745640D01*
G37*
G36*
X1150940Y1493180D02*
G01*
X1149360Y1491600D01*
X1149360Y1471879D01*
X1150940Y1470320D01*
X1169060Y1470320D01*
X1170640Y1471879D01*
X1170640Y1491600D01*
X1169060Y1493180D01*
G37*
G36*
X1150940Y1459680D02*
G01*
X1149360Y1458120D01*
X1149360Y1438400D01*
X1150940Y1436819D01*
X1169060Y1436819D01*
X1170640Y1438400D01*
X1170640Y1458120D01*
X1169060Y1459680D01*
G37*
G36*
X2011900Y1475640D02*
G01*
X2010320Y1474060D01*
X2010320Y1455940D01*
X2011900Y1454360D01*
X2031600Y1454360D01*
X2033180Y1455940D01*
X2033180Y1474060D01*
X2031600Y1475640D01*
G37*
G36*
X1978400Y1475640D02*
G01*
X1976819Y1474060D01*
X1976819Y1455940D01*
X1978400Y1454360D01*
X1998100Y1454360D01*
X1999680Y1455940D01*
X1999680Y1474060D01*
X1998100Y1475640D01*
G37*
G36*
X2011900Y1585640D02*
G01*
X2010320Y1584060D01*
X2010320Y1565940D01*
X2011900Y1564360D01*
X2031600Y1564360D01*
X2033180Y1565940D01*
X2033180Y1584060D01*
X2031600Y1585640D01*
G37*
G36*
X1978400Y1585640D02*
G01*
X1976819Y1584060D01*
X1976819Y1565940D01*
X1978400Y1564360D01*
X1998100Y1564360D01*
X1999680Y1565940D01*
X1999680Y1584060D01*
X1998100Y1585640D01*
G37*
G36*
X467120Y2260620D02*
G01*
X464780Y2260500D01*
X462440Y2260160D01*
X460160Y2259580D01*
X457960Y2258780D01*
X455840Y2257760D01*
X453820Y2256520D01*
X451940Y2255100D01*
X450220Y2253500D01*
X448660Y2251740D01*
X447280Y2249820D01*
X446100Y2247780D01*
X445140Y2245640D01*
X444380Y2243400D01*
X443860Y2241100D01*
X443579Y2238760D01*
X443519Y2236420D01*
X443680Y2234060D01*
X444099Y2231740D01*
X444739Y2229480D01*
X445600Y2227280D01*
X446659Y2225200D01*
X447939Y2223220D01*
X449420Y2221380D01*
X451060Y2219680D01*
X452860Y2218180D01*
X454820Y2216840D01*
X456880Y2215720D01*
X459040Y2214800D01*
X461300Y2214120D01*
X463600Y2213640D01*
X465940Y2213420D01*
X498620Y2213380D01*
X500980Y2213500D01*
X503300Y2213860D01*
X505580Y2214440D01*
X507800Y2215240D01*
X509920Y2216260D01*
X511940Y2217480D01*
X513800Y2218900D01*
X515540Y2220520D01*
X517100Y2222280D01*
X518459Y2224180D01*
X519640Y2226220D01*
X520620Y2228380D01*
X521360Y2230600D01*
X521880Y2232900D01*
X522180Y2235240D01*
X522239Y2237600D01*
X522060Y2239940D01*
X521659Y2242260D01*
X521019Y2244520D01*
X520160Y2246720D01*
X519080Y2248820D01*
X517800Y2250800D01*
X516340Y2252640D01*
X514700Y2254320D01*
X512879Y2255840D01*
X510940Y2257160D01*
X508880Y2258280D01*
X506700Y2259200D01*
X504460Y2259900D01*
X502140Y2260360D01*
X499799Y2260600D01*
G37*
G36*
X467120Y1920460D02*
G01*
X464780Y1920340D01*
X462440Y1920000D01*
X460160Y1919420D01*
X457960Y1918620D01*
X455840Y1917600D01*
X453820Y1916360D01*
X451940Y1914940D01*
X450220Y1913340D01*
X448660Y1911579D01*
X447280Y1909660D01*
X446100Y1907620D01*
X445140Y1905480D01*
X444380Y1903240D01*
X443860Y1900940D01*
X443579Y1898600D01*
X443519Y1896260D01*
X443680Y1893899D01*
X444099Y1891579D01*
X444739Y1889319D01*
X445600Y1887140D01*
X446659Y1885040D01*
X447939Y1883060D01*
X449420Y1881220D01*
X451060Y1879520D01*
X452860Y1878020D01*
X454820Y1876680D01*
X456880Y1875560D01*
X459040Y1874640D01*
X461300Y1873959D01*
X463600Y1873480D01*
X465940Y1873260D01*
X498620Y1873220D01*
X500980Y1873340D01*
X503300Y1873700D01*
X505580Y1874280D01*
X507800Y1875080D01*
X509920Y1876100D01*
X511940Y1877320D01*
X513800Y1878740D01*
X515540Y1880360D01*
X517100Y1882120D01*
X518459Y1884019D01*
X519640Y1886060D01*
X520620Y1888220D01*
X521360Y1890440D01*
X521880Y1892740D01*
X522180Y1895080D01*
X522239Y1897440D01*
X522060Y1899780D01*
X521659Y1902100D01*
X521019Y1904360D01*
X520160Y1906560D01*
X519080Y1908660D01*
X517800Y1910640D01*
X516340Y1912480D01*
X514700Y1914160D01*
X512879Y1915680D01*
X510940Y1917000D01*
X508880Y1918120D01*
X506700Y1919040D01*
X504460Y1919740D01*
X502140Y1920200D01*
X499799Y1920440D01*
G37*
G36*
X306500Y2260620D02*
G01*
X304140Y2260500D01*
X301820Y2260160D01*
X299540Y2259580D01*
X297320Y2258780D01*
X295200Y2257760D01*
X293180Y2256520D01*
X291300Y2255100D01*
X289580Y2253500D01*
X288020Y2251740D01*
X286660Y2249820D01*
X285480Y2247780D01*
X284500Y2245640D01*
X283760Y2243400D01*
X283240Y2241100D01*
X282940Y2238760D01*
X282880Y2236420D01*
X283060Y2234060D01*
X283460Y2231740D01*
X284100Y2229480D01*
X284960Y2227280D01*
X286040Y2225200D01*
X287320Y2223220D01*
X288780Y2221380D01*
X290420Y2219680D01*
X292240Y2218180D01*
X294180Y2216840D01*
X296240Y2215720D01*
X298420Y2214800D01*
X300660Y2214120D01*
X302980Y2213640D01*
X305320Y2213420D01*
X330120Y2213380D01*
X332460Y2213500D01*
X334799Y2213860D01*
X337080Y2214440D01*
X339300Y2215240D01*
X341420Y2216260D01*
X343420Y2217480D01*
X345300Y2218900D01*
X347020Y2220520D01*
X348579Y2222280D01*
X349960Y2224180D01*
X351140Y2226220D01*
X352100Y2228380D01*
X352860Y2230600D01*
X353380Y2232900D01*
X353680Y2235240D01*
X353740Y2237600D01*
X353560Y2239940D01*
X353140Y2242260D01*
X352500Y2244520D01*
X351640Y2246720D01*
X350580Y2248820D01*
X349300Y2250800D01*
X347819Y2252640D01*
X346180Y2254320D01*
X344380Y2255840D01*
X342440Y2257160D01*
X340360Y2258280D01*
X338200Y2259200D01*
X335940Y2259900D01*
X333640Y2260360D01*
X331300Y2260600D01*
G37*
G36*
X306500Y1920460D02*
G01*
X304140Y1920340D01*
X301820Y1920000D01*
X299540Y1919420D01*
X297320Y1918620D01*
X295200Y1917600D01*
X293180Y1916360D01*
X291300Y1914940D01*
X289580Y1913340D01*
X288020Y1911579D01*
X286660Y1909660D01*
X285480Y1907620D01*
X284500Y1905480D01*
X283760Y1903240D01*
X283240Y1900940D01*
X282940Y1898600D01*
X282880Y1896260D01*
X283060Y1893899D01*
X283460Y1891579D01*
X284100Y1889319D01*
X284960Y1887140D01*
X286040Y1885040D01*
X287320Y1883060D01*
X288780Y1881220D01*
X290420Y1879520D01*
X292240Y1878020D01*
X294180Y1876680D01*
X296240Y1875560D01*
X298420Y1874640D01*
X300660Y1873959D01*
X302980Y1873480D01*
X305320Y1873260D01*
X330120Y1873220D01*
X332460Y1873340D01*
X334799Y1873700D01*
X337080Y1874280D01*
X339300Y1875080D01*
X341420Y1876100D01*
X343420Y1877320D01*
X345300Y1878740D01*
X347020Y1880360D01*
X348579Y1882120D01*
X349960Y1884019D01*
X351140Y1886060D01*
X352100Y1888220D01*
X352860Y1890440D01*
X353380Y1892740D01*
X353680Y1895080D01*
X353740Y1897440D01*
X353560Y1899780D01*
X353140Y1902100D01*
X352500Y1904360D01*
X351640Y1906560D01*
X350580Y1908660D01*
X349300Y1910640D01*
X347819Y1912480D01*
X346180Y1914160D01*
X344380Y1915680D01*
X342440Y1917000D01*
X340360Y1918120D01*
X338200Y1919040D01*
X335940Y1919740D01*
X333640Y1920200D01*
X331300Y1920440D01*
G37*
G36*
X482879Y2204720D02*
G01*
X482879Y2181100D01*
X534060Y2181100D01*
X534060Y2204720D01*
G37*
G36*
X482879Y2063000D02*
G01*
X482879Y2051180D01*
X534060Y2051180D01*
X534060Y2063000D01*
G37*
G36*
X482879Y2102360D02*
G01*
X482879Y2090540D01*
X534060Y2090540D01*
X534060Y2102360D01*
G37*
G36*
X482879Y2173220D02*
G01*
X482879Y2149600D01*
X534060Y2149600D01*
X534060Y2173220D01*
G37*
G36*
X482879Y2122040D02*
G01*
X482879Y2110240D01*
X534060Y2110240D01*
X534060Y2122040D01*
G37*
G36*
X482879Y1952760D02*
G01*
X482879Y1929139D01*
X534060Y1929139D01*
X534060Y1952760D01*
G37*
G36*
X482879Y2082680D02*
G01*
X482879Y2070860D01*
X534060Y2070860D01*
X534060Y2082680D01*
G37*
G36*
X482879Y2003940D02*
G01*
X482879Y1992120D01*
X534060Y1992120D01*
X534060Y2003940D01*
G37*
G36*
X482879Y2043300D02*
G01*
X482879Y2031480D01*
X534060Y2031480D01*
X534060Y2043300D01*
G37*
G36*
X482879Y2023640D02*
G01*
X482879Y2011819D01*
X534060Y2011819D01*
X534060Y2023640D01*
G37*
G36*
X482879Y2141740D02*
G01*
X482879Y2129920D01*
X534060Y2129920D01*
X534060Y2141740D01*
G37*
G36*
X482860Y1984240D02*
G01*
X482860Y1960620D01*
X534040Y1960620D01*
X534040Y1984240D01*
G37*
D10*
G01*
X2649449Y1539839D03*
G01*
X2649449Y1520160D03*
D11*
G01*
X2644530Y1495549D03*
G01*
X2624840Y1495549D03*
G01*
X2605159Y1495549D03*
G01*
X2585469Y1495549D03*
D10*
G01*
X2580550Y1520160D03*
G01*
X2580550Y1539839D03*
D11*
G01*
X2585469Y1564450D03*
G01*
X2605159Y1564450D03*
G01*
X2624840Y1564450D03*
G01*
X2644530Y1564450D03*
D12*
G01*
X1732200Y2351649D03*
D13*
G01*
X1757319Y2351649D03*
G01*
X1757319Y2408350D03*
D12*
G01*
X1732200Y2408350D03*
G01*
X1707799Y2351649D03*
G01*
X1707790Y2408350D03*
D13*
G01*
X1682680Y2351649D03*
G01*
X1682680Y2408350D03*
D14*
G01*
X734760Y1540000D03*
G01*
X1005240Y1540000D03*
D15*
G01*
X540000Y2335470D03*
G01*
X540000Y2394529D03*
G01*
X590000Y2335470D03*
G01*
X590000Y2394529D03*
G01*
X444529Y1825000D03*
G01*
X385470Y1825000D03*
D16*
G01*
X1530000Y1643650D03*
D17*
G01*
X1530000Y1726350D03*
D18*
G01*
X2108649Y1465000D03*
G01*
X2191350Y1465000D03*
G01*
X2108649Y1580000D03*
G01*
X2191350Y1580000D03*
D19*
G01*
X782330Y2293110D03*
G01*
X782330Y2273440D03*
G01*
X782330Y2253760D03*
G01*
X782330Y2234070D03*
G01*
X782330Y2214389D03*
G01*
X782330Y2194699D03*
G01*
X782330Y2175019D03*
G01*
X782330Y2155329D03*
G01*
X782330Y2135650D03*
G01*
X782330Y2115960D03*
G01*
X782330Y2096280D03*
G01*
X782330Y2076590D03*
G01*
X782330Y2056909D03*
G01*
X782330Y2037220D03*
G01*
X782280Y2017689D03*
G01*
X782299Y1997880D03*
D20*
G01*
X782345Y1978175D03*
D19*
G01*
X782330Y1958499D03*
G01*
X782330Y1938820D03*
G01*
X782209Y1919050D03*
G01*
X782209Y1899349D03*
G01*
X782209Y1879679D03*
G01*
X782209Y1859980D03*
G01*
X782209Y1840290D03*
D21*
G01*
X871080Y2358299D03*
G01*
X871329Y1775549D03*
D22*
G01*
X2732079Y2411410D03*
G01*
X2682079Y2411410D03*
G01*
X2632079Y2411410D03*
G01*
X2582079Y2411410D03*
G01*
X2532079Y2411410D03*
G01*
X2482079Y2411410D03*
G01*
X2432079Y2411410D03*
G01*
X2382079Y2411410D03*
G01*
X2332079Y2411410D03*
G01*
X2282079Y2411410D03*
G01*
X2232079Y2411410D03*
G01*
X2182079Y2411410D03*
G01*
X2132079Y2411410D03*
G01*
X2082079Y2411410D03*
D23*
G01*
X2031689Y2341920D03*
G01*
X2031689Y2291920D03*
G01*
X2031689Y2241920D03*
G01*
X2031689Y2191920D03*
G01*
X2031689Y2141920D03*
G01*
X2031689Y2091920D03*
G01*
X2031689Y2041920D03*
G01*
X2031689Y1991920D03*
G01*
X2031689Y1941920D03*
G01*
X2031689Y1891920D03*
G01*
X2031689Y1841920D03*
G01*
X2032870Y1791920D03*
D22*
G01*
X2082079Y1722440D03*
G01*
X2132079Y1722440D03*
G01*
X2182079Y1722440D03*
G01*
X2232079Y1722440D03*
G01*
X2282079Y1722440D03*
G01*
X2332079Y1722440D03*
G01*
X2382079Y1722440D03*
G01*
X2432079Y1722440D03*
G01*
X2482079Y1722440D03*
G01*
X2532079Y1722440D03*
G01*
X2582079Y1722440D03*
G01*
X2632079Y1722440D03*
G01*
X2682079Y1722440D03*
G01*
X2732079Y1722440D03*
D24*
G01*
X2373019Y2070870D03*
G01*
X2373019Y2125979D03*
G01*
X2373019Y2181100D03*
G01*
X2483260Y2181100D03*
G01*
X2483260Y2125979D03*
G01*
X2483260Y2070870D03*
G01*
X2428140Y2070870D03*
G01*
X2428140Y2181100D03*
G01*
X2428140Y2125979D03*
D25*
G01*
X1294586Y1719527D03*
G01*
X1294586Y1699842D03*
G01*
X1294586Y1680157D03*
G01*
X1294586Y1660472D03*
G01*
X1405413Y1660472D03*
G01*
X1405413Y1680157D03*
G01*
X1405413Y1699842D03*
G01*
X1405413Y1719527D03*
D26*
G01*
X1350000Y1690000D03*
D27*
G01*
X1112600Y1635630D03*
G01*
X1187399Y1635630D03*
G01*
X1150000Y1714369D03*
D28*
G01*
X1364050Y1470632D03*
G01*
X1364050Y1545414D03*
G01*
X1261687Y1545416D03*
G01*
X1261687Y1508047D03*
G01*
X1261687Y1470633D03*
D29*
G01*
X842399Y2630239D03*
G01*
X805000Y2630239D03*
G01*
X767600Y2630239D03*
G01*
X767600Y2539760D03*
G01*
X805000Y2539760D03*
G01*
X842399Y2539760D03*
D30*
G01*
X353976Y2520000D03*
D31*
G01*
X526019Y2520000D03*
D30*
G01*
X348976Y1645000D03*
D31*
G01*
X521019Y1645000D03*
M02*
