G04 Layer: TopSilkscreenLayer*
G04 EasyEDA v6.5.23, 2023-06-17 09:45:11*
G04 36c83109d75f48428eebd667f423d1d4,0a61cb7f7b51421fbede6d33e3e5ec82,10*
G04 Gerber Generator version 0.2*
G04 Scale: 100 percent, Rotated: No, Reflected: No *
G04 Dimensions in inches *
G04 leading zeros omitted , absolute positions ,3 integer and 6 decimal *
%FSLAX36Y36*%
%MOIN*%

%ADD10C,0.0080*%
%ADD11C,0.0060*%
%ADD12C,0.0039*%
%ADD13C,0.0079*%
%ADD14C,0.0100*%
%ADD15C,0.0051*%
%ADD16C,0.0098*%
%ADD17C,0.0059*%
%ADD18C,0.0118*%
%ADD19C,0.0191*%

%LPD*%
D10*
X2294700Y1505000D02*
G01*
X2257100Y1505000D01*
X2294700Y1505000D02*
G01*
X2294700Y1488899D01*
X2292899Y1483499D01*
X2291099Y1481700D01*
X2287600Y1479899D01*
X2282200Y1479899D01*
X2278599Y1481700D01*
X2276800Y1483499D01*
X2275000Y1488899D01*
X2275000Y1505000D01*
X2294700Y1468099D02*
G01*
X2257100Y1459200D01*
X2294700Y1450199D02*
G01*
X2257100Y1459200D01*
X2294700Y1450199D02*
G01*
X2257100Y1441300D01*
X2294700Y1432300D02*
G01*
X2257100Y1441300D01*
X2294700Y1420500D02*
G01*
X2257100Y1420500D01*
X2294700Y1420500D02*
G01*
X2294700Y1404400D01*
X2292899Y1399099D01*
X2291099Y1397300D01*
X2287600Y1395500D01*
X2283999Y1395500D01*
X2280399Y1397300D01*
X2278599Y1399099D01*
X2276800Y1404400D01*
X2276800Y1420500D01*
X2276800Y1408000D02*
G01*
X2257100Y1395500D01*
X2294700Y1665000D02*
G01*
X2257100Y1665000D01*
X2294700Y1665000D02*
G01*
X2294700Y1652500D01*
X2292899Y1647100D01*
X2289399Y1643499D01*
X2285799Y1641700D01*
X2280399Y1639899D01*
X2271499Y1639899D01*
X2266099Y1641700D01*
X2262500Y1643499D01*
X2258900Y1647100D01*
X2257100Y1652500D01*
X2257100Y1665000D01*
X2294700Y1613800D02*
G01*
X2257100Y1628099D01*
X2294700Y1613800D02*
G01*
X2257100Y1599499D01*
X2269700Y1622800D02*
G01*
X2269700Y1604899D01*
X2294700Y1575199D02*
G01*
X2257100Y1575199D01*
X2294700Y1587699D02*
G01*
X2294700Y1562600D01*
X2294700Y1536500D02*
G01*
X2257100Y1550799D01*
X2294700Y1536500D02*
G01*
X2257100Y1522199D01*
X2269700Y1545500D02*
G01*
X2269700Y1527600D01*
X1620799Y1768200D02*
G01*
X1624399Y1769899D01*
X1627899Y1773499D01*
X1629700Y1777100D01*
X1629700Y1784299D01*
X1627899Y1787800D01*
X1624399Y1791399D01*
X1620799Y1793200D01*
X1615399Y1795000D01*
X1606499Y1795000D01*
X1601099Y1793200D01*
X1597500Y1791399D01*
X1593900Y1787800D01*
X1592100Y1784299D01*
X1592100Y1777100D01*
X1593900Y1773499D01*
X1597500Y1769899D01*
X1601099Y1768200D01*
X1629700Y1756300D02*
G01*
X1592100Y1756300D01*
X1629700Y1731300D02*
G01*
X1592100Y1731300D01*
X1611800Y1756300D02*
G01*
X1611800Y1731300D01*
X1629700Y1705199D02*
G01*
X1592100Y1719499D01*
X1629700Y1705199D02*
G01*
X1592100Y1690799D01*
X1604700Y1714099D02*
G01*
X1604700Y1696199D01*
X1629700Y1679000D02*
G01*
X1592100Y1679000D01*
X1629700Y1679000D02*
G01*
X1629700Y1662899D01*
X1627899Y1657600D01*
X1626099Y1655799D01*
X1622600Y1654000D01*
X1618999Y1654000D01*
X1615399Y1655799D01*
X1613599Y1657600D01*
X1611800Y1662899D01*
X1611800Y1679000D01*
X1611800Y1666500D02*
G01*
X1592100Y1654000D01*
X1620799Y1615300D02*
G01*
X1624399Y1617100D01*
X1627899Y1620700D01*
X1629700Y1624299D01*
X1629700Y1631399D01*
X1627899Y1635000D01*
X1624399Y1638600D01*
X1620799Y1640399D01*
X1615399Y1642199D01*
X1606499Y1642199D01*
X1601099Y1640399D01*
X1597500Y1638600D01*
X1593900Y1635000D01*
X1592100Y1631399D01*
X1592100Y1624299D01*
X1593900Y1620700D01*
X1597500Y1617100D01*
X1601099Y1615300D01*
X1606499Y1615300D01*
X1606499Y1624299D02*
G01*
X1606499Y1615300D01*
X1629700Y1603499D02*
G01*
X1592100Y1603499D01*
X1629700Y1603499D02*
G01*
X1629700Y1580300D01*
X1611800Y1603499D02*
G01*
X1611800Y1589200D01*
X1592100Y1603499D02*
G01*
X1592100Y1580300D01*
X599699Y2570000D02*
G01*
X562100Y2570000D01*
X599699Y2570000D02*
G01*
X599699Y2553899D01*
X597899Y2548499D01*
X596100Y2546700D01*
X592600Y2544899D01*
X589000Y2544899D01*
X585399Y2546700D01*
X583600Y2548499D01*
X581799Y2553899D01*
X581799Y2570000D01*
X581799Y2557500D02*
G01*
X562100Y2544899D01*
X594400Y2508099D02*
G01*
X597899Y2511700D01*
X599699Y2516999D01*
X599699Y2524200D01*
X597899Y2529600D01*
X594400Y2533099D01*
X590799Y2533099D01*
X587199Y2531300D01*
X585399Y2529600D01*
X583600Y2525999D01*
X580000Y2515200D01*
X578299Y2511700D01*
X576500Y2509899D01*
X572899Y2508099D01*
X567500Y2508099D01*
X563899Y2511700D01*
X562100Y2516999D01*
X562100Y2524200D01*
X563899Y2529600D01*
X567500Y2533099D01*
X599699Y2483699D02*
G01*
X562100Y2483699D01*
X599699Y2496300D02*
G01*
X599699Y2471199D01*
X594699Y1705000D02*
G01*
X557100Y1705000D01*
X594699Y1705000D02*
G01*
X594699Y1688899D01*
X592899Y1683499D01*
X591100Y1681700D01*
X587600Y1679899D01*
X584000Y1679899D01*
X580399Y1681700D01*
X578600Y1683499D01*
X576799Y1688899D01*
X576799Y1705000D02*
G01*
X576799Y1688899D01*
X575000Y1683499D01*
X573299Y1681700D01*
X569699Y1679899D01*
X564299Y1679899D01*
X560700Y1681700D01*
X558899Y1683499D01*
X557100Y1688899D01*
X557100Y1705000D01*
X594699Y1657399D02*
G01*
X592899Y1660999D01*
X589400Y1664600D01*
X585799Y1666300D01*
X580399Y1668099D01*
X571500Y1668099D01*
X566100Y1666300D01*
X562500Y1664600D01*
X558899Y1660999D01*
X557100Y1657399D01*
X557100Y1650199D01*
X558899Y1646700D01*
X562500Y1643099D01*
X566100Y1641300D01*
X571500Y1639499D01*
X580399Y1639499D01*
X585799Y1641300D01*
X589400Y1643099D01*
X592899Y1646700D01*
X594699Y1650199D01*
X594699Y1657399D01*
X594699Y1616999D02*
G01*
X592899Y1620500D01*
X589400Y1624099D01*
X585799Y1625900D01*
X580399Y1627699D01*
X571500Y1627699D01*
X566100Y1625900D01*
X562500Y1624099D01*
X558899Y1620500D01*
X557100Y1616999D01*
X557100Y1609800D01*
X558899Y1606199D01*
X562500Y1602600D01*
X566100Y1600799D01*
X571500Y1599099D01*
X580399Y1599099D01*
X585799Y1600799D01*
X589400Y1602600D01*
X592899Y1606199D01*
X594699Y1609800D01*
X594699Y1616999D01*
X594699Y1574699D02*
G01*
X557100Y1574699D01*
X594699Y1587199D02*
G01*
X594699Y1562199D01*
X1665799Y2118200D02*
G01*
X1669399Y2119899D01*
X1672899Y2123499D01*
X1674700Y2127100D01*
X1674700Y2134299D01*
X1672899Y2137800D01*
X1669399Y2141399D01*
X1665799Y2143200D01*
X1660399Y2145000D01*
X1651499Y2145000D01*
X1646099Y2143200D01*
X1642500Y2141399D01*
X1638900Y2137800D01*
X1637100Y2134299D01*
X1637100Y2127100D01*
X1638900Y2123499D01*
X1642500Y2119899D01*
X1646099Y2118200D01*
X1674700Y2091999D02*
G01*
X1637100Y2106300D01*
X1674700Y2091999D02*
G01*
X1637100Y2077699D01*
X1649700Y2100999D02*
G01*
X1649700Y2083099D01*
X1674700Y2065900D02*
G01*
X1637100Y2065900D01*
X1674700Y2065900D02*
G01*
X1637100Y2051599D01*
X1674700Y2037300D02*
G01*
X1637100Y2051599D01*
X1674700Y2037300D02*
G01*
X1637100Y2037300D01*
X1476800Y2710799D02*
G01*
X1475100Y2714400D01*
X1471499Y2717899D01*
X1467899Y2719699D01*
X1460699Y2719699D01*
X1457200Y2717899D01*
X1453599Y2714400D01*
X1451800Y2710799D01*
X1450000Y2705399D01*
X1450000Y2696500D01*
X1451800Y2691100D01*
X1453599Y2687500D01*
X1457200Y2683899D01*
X1460699Y2682100D01*
X1467899Y2682100D01*
X1471499Y2683899D01*
X1475100Y2687500D01*
X1476800Y2691100D01*
X1503000Y2719699D02*
G01*
X1488699Y2682100D01*
X1503000Y2719699D02*
G01*
X1517299Y2682100D01*
X1493999Y2694699D02*
G01*
X1511899Y2694699D01*
X1529099Y2719699D02*
G01*
X1529099Y2682100D01*
X1529099Y2719699D02*
G01*
X1543400Y2682100D01*
X1557700Y2719699D02*
G01*
X1543400Y2682100D01*
X1557700Y2719699D02*
G01*
X1557700Y2682100D01*
X1569499Y2698299D02*
G01*
X1601800Y2698299D01*
X1613599Y2719699D02*
G01*
X1613599Y2682100D01*
X1613599Y2719699D02*
G01*
X1629700Y2719699D01*
X1635000Y2717899D01*
X1636800Y2716100D01*
X1638599Y2712600D01*
X1638599Y2707199D01*
X1636800Y2703600D01*
X1635000Y2701799D01*
X1629700Y2700000D01*
X1613599Y2700000D01*
X1650399Y2719699D02*
G01*
X1650399Y2682100D01*
X1650399Y2719699D02*
G01*
X1666499Y2719699D01*
X1671899Y2717899D01*
X1673699Y2716100D01*
X1675500Y2712600D01*
X1675500Y2709000D01*
X1673699Y2705399D01*
X1671899Y2703600D01*
X1666499Y2701799D01*
X1650399Y2701799D01*
X1663000Y2701799D02*
G01*
X1675500Y2682100D01*
X1698000Y2719699D02*
G01*
X1694499Y2717899D01*
X1690900Y2714400D01*
X1689099Y2710799D01*
X1687299Y2705399D01*
X1687299Y2696500D01*
X1689099Y2691100D01*
X1690900Y2687500D01*
X1694499Y2683899D01*
X1698000Y2682100D01*
X1705200Y2682100D01*
X1708800Y2683899D01*
X1712299Y2687500D01*
X1714099Y2691100D01*
X1715900Y2696500D01*
X1715900Y2705399D01*
X1714099Y2710799D01*
X1712299Y2714400D01*
X1708800Y2717899D01*
X1705200Y2719699D01*
X1698000Y2719699D01*
X1727700Y2719699D02*
G01*
X1752799Y2682100D01*
X1752799Y2719699D02*
G01*
X1727700Y2682100D01*
X1764600Y2719699D02*
G01*
X1764600Y2682100D01*
X1776400Y2698299D02*
G01*
X1808599Y2698299D01*
X1820399Y2719699D02*
G01*
X1834799Y2682100D01*
X1849099Y2719699D02*
G01*
X1834799Y2682100D01*
X1860900Y2712600D02*
G01*
X1864499Y2714400D01*
X1869799Y2719699D01*
X1869799Y2682100D01*
X1420500Y2674299D02*
G01*
X1410000Y2646599D01*
X1420500Y2674299D02*
G01*
X1431099Y2646599D01*
X1413999Y2655799D02*
G01*
X1427100Y2655799D01*
X1439799Y2674299D02*
G01*
X1439799Y2646599D01*
X1439799Y2661100D02*
G01*
X1442399Y2663699D01*
X1445100Y2665000D01*
X1448999Y2665000D01*
X1451700Y2663699D01*
X1454300Y2661100D01*
X1455600Y2657100D01*
X1455600Y2654499D01*
X1454300Y2650500D01*
X1451700Y2647899D01*
X1448999Y2646599D01*
X1445100Y2646599D01*
X1442399Y2647899D01*
X1439799Y2650500D01*
X1480100Y2674299D02*
G01*
X1480100Y2646599D01*
X1480100Y2661100D02*
G01*
X1477500Y2663699D01*
X1474899Y2665000D01*
X1470900Y2665000D01*
X1468299Y2663699D01*
X1465600Y2661100D01*
X1464300Y2657100D01*
X1464300Y2654499D01*
X1465600Y2650500D01*
X1468299Y2647899D01*
X1470900Y2646599D01*
X1474899Y2646599D01*
X1477500Y2647899D01*
X1480100Y2650500D01*
X1488800Y2665000D02*
G01*
X1488800Y2651900D01*
X1490100Y2647899D01*
X1492799Y2646599D01*
X1496700Y2646599D01*
X1499399Y2647899D01*
X1503299Y2651900D01*
X1503299Y2665000D02*
G01*
X1503299Y2646599D01*
X1511999Y2674299D02*
G01*
X1511999Y2646599D01*
X1520699Y2665000D02*
G01*
X1520699Y2646599D01*
X1520699Y2657100D02*
G01*
X1521999Y2661100D01*
X1524700Y2663699D01*
X1527299Y2665000D01*
X1531300Y2665000D01*
X1555799Y2665000D02*
G01*
X1555799Y2646599D01*
X1555799Y2661100D02*
G01*
X1553199Y2663699D01*
X1550500Y2665000D01*
X1546599Y2665000D01*
X1543900Y2663699D01*
X1541300Y2661100D01*
X1540000Y2657100D01*
X1540000Y2654499D01*
X1541300Y2650500D01*
X1543900Y2647899D01*
X1546599Y2646599D01*
X1550500Y2646599D01*
X1553199Y2647899D01*
X1555799Y2650500D01*
X1564499Y2674299D02*
G01*
X1564499Y2646599D01*
X1564499Y2659800D02*
G01*
X1568400Y2663699D01*
X1571099Y2665000D01*
X1575000Y2665000D01*
X1577700Y2663699D01*
X1578999Y2659800D01*
X1578999Y2646599D01*
X1587700Y2665000D02*
G01*
X1587700Y2646599D01*
X1587700Y2659800D02*
G01*
X1591599Y2663699D01*
X1594300Y2665000D01*
X1598199Y2665000D01*
X1600900Y2663699D01*
X1602200Y2659800D01*
X1602200Y2646599D01*
X1602200Y2659800D02*
G01*
X1606099Y2663699D01*
X1608800Y2665000D01*
X1612700Y2665000D01*
X1615399Y2663699D01*
X1616700Y2659800D01*
X1616700Y2646599D01*
X1641199Y2665000D02*
G01*
X1641199Y2646599D01*
X1641199Y2661100D02*
G01*
X1638599Y2663699D01*
X1635900Y2665000D01*
X1631999Y2665000D01*
X1629300Y2663699D01*
X1626700Y2661100D01*
X1625399Y2657100D01*
X1625399Y2654499D01*
X1626700Y2650500D01*
X1629300Y2647899D01*
X1631999Y2646599D01*
X1635900Y2646599D01*
X1638599Y2647899D01*
X1641199Y2650500D01*
X1649899Y2665000D02*
G01*
X1649899Y2646599D01*
X1649899Y2659800D02*
G01*
X1653900Y2663699D01*
X1656499Y2665000D01*
X1660500Y2665000D01*
X1663100Y2663699D01*
X1664399Y2659800D01*
X1664399Y2646599D01*
X1693400Y2674299D02*
G01*
X1693400Y2646599D01*
X1693400Y2674299D02*
G01*
X1705299Y2674299D01*
X1709200Y2672899D01*
X1710500Y2671599D01*
X1711899Y2669000D01*
X1711899Y2666399D01*
X1710500Y2663699D01*
X1709200Y2662399D01*
X1705299Y2661100D01*
X1693400Y2661100D02*
G01*
X1705299Y2661100D01*
X1709200Y2659800D01*
X1710500Y2658400D01*
X1711899Y2655799D01*
X1711899Y2651900D01*
X1710500Y2649200D01*
X1709200Y2647899D01*
X1705299Y2646599D01*
X1693400Y2646599D01*
X1720600Y2674299D02*
G01*
X1721899Y2672899D01*
X1723199Y2674299D01*
X1721899Y2675599D01*
X1720600Y2674299D01*
X1721899Y2665000D02*
G01*
X1721899Y2646599D01*
X1731899Y2665000D02*
G01*
X1731899Y2646599D01*
X1731899Y2659800D02*
G01*
X1735900Y2663699D01*
X1738500Y2665000D01*
X1742399Y2665000D01*
X1745100Y2663699D01*
X1746400Y2659800D01*
X1746400Y2646599D01*
X1755100Y2665000D02*
G01*
X1755100Y2646599D01*
X1755100Y2659800D02*
G01*
X1759099Y2663699D01*
X1761700Y2665000D01*
X1765600Y2665000D01*
X1768299Y2663699D01*
X1769600Y2659800D01*
X1769600Y2646599D01*
X1769600Y2659800D02*
G01*
X1773599Y2663699D01*
X1776199Y2665000D01*
X1780100Y2665000D01*
X1782799Y2663699D01*
X1784099Y2659800D01*
X1784099Y2646599D01*
X1808599Y2665000D02*
G01*
X1808599Y2646599D01*
X1808599Y2661100D02*
G01*
X1806000Y2663699D01*
X1803299Y2665000D01*
X1799399Y2665000D01*
X1796800Y2663699D01*
X1794099Y2661100D01*
X1792799Y2657100D01*
X1792799Y2654499D01*
X1794099Y2650500D01*
X1796800Y2647899D01*
X1799399Y2646599D01*
X1803299Y2646599D01*
X1806000Y2647899D01*
X1808599Y2650500D01*
X1817299Y2674299D02*
G01*
X1817299Y2646599D01*
X1817299Y2659800D02*
G01*
X1821300Y2663699D01*
X1823900Y2665000D01*
X1827899Y2665000D01*
X1830500Y2663699D01*
X1831800Y2659800D01*
X1831800Y2646599D01*
X1851099Y2674299D02*
G01*
X1848400Y2674299D01*
X1845799Y2672899D01*
X1844499Y2669000D01*
X1844499Y2646599D01*
X1840500Y2665000D02*
G01*
X1849700Y2665000D01*
X1859799Y2665000D02*
G01*
X1859799Y2651900D01*
X1861099Y2647899D01*
X1863699Y2646599D01*
X1867700Y2646599D01*
X1870299Y2647899D01*
X1874300Y2651900D01*
X1874300Y2665000D02*
G01*
X1874300Y2646599D01*
X1886899Y2674299D02*
G01*
X1886899Y2651900D01*
X1888199Y2647899D01*
X1890900Y2646599D01*
X1893500Y2646599D01*
X1883000Y2665000D02*
G01*
X1892200Y2665000D01*
X1902200Y2674299D02*
G01*
X1902200Y2646599D01*
X1902200Y2659800D02*
G01*
X1906199Y2663699D01*
X1908800Y2665000D01*
X1912799Y2665000D01*
X1915399Y2663699D01*
X1916700Y2659800D01*
X1916700Y2646599D01*
G36*
X540000Y2365000D02*
G01*
X529000Y2356000D01*
X551000Y2356000D01*
G37*
G36*
X529000Y2374000D02*
G01*
X540000Y2365000D01*
X551000Y2374000D01*
G37*
G36*
X590000Y2365000D02*
G01*
X579000Y2356000D01*
X601000Y2356000D01*
G37*
G36*
X579000Y2374000D02*
G01*
X590000Y2365000D01*
X601000Y2374000D01*
G37*
G36*
X424000Y1836000D02*
G01*
X415000Y1825000D01*
X424000Y1814000D01*
G37*
G36*
X406000Y1836000D02*
G01*
X406000Y1814000D01*
X415000Y1825000D01*
G37*
G36*
X516780Y2487220D02*
G01*
X516780Y2456320D01*
X528780Y2456320D01*
X528780Y2487220D01*
G37*
G36*
X516780Y2583680D02*
G01*
X516780Y2552780D01*
X528780Y2552780D01*
X528780Y2583680D01*
G37*
G36*
X511780Y1612220D02*
G01*
X511780Y1581320D01*
X523780Y1581320D01*
X523780Y1612220D01*
G37*
G36*
X511780Y1708680D02*
G01*
X511780Y1677780D01*
X523780Y1677780D01*
X523780Y1708680D01*
G37*
D11*
X2679988Y1469630D02*
G01*
X2711094Y1469630D01*
X2728905Y1430369D02*
G01*
X2760011Y1430369D01*
X2760011Y1469630D02*
G01*
X2728905Y1469630D01*
X2766012Y1436370D02*
G01*
X2766012Y1463629D01*
X2711094Y1430369D02*
G01*
X2679988Y1430369D01*
X2673987Y1436370D02*
G01*
X2673987Y1463629D01*
X1729629Y2444987D02*
G01*
X1729629Y2476093D01*
X1690370Y2476093D02*
G01*
X1690370Y2444987D01*
X1696369Y2438987D02*
G01*
X1723630Y2438987D01*
X1729629Y2525012D02*
G01*
X1729629Y2493906D01*
X1690370Y2493906D02*
G01*
X1690370Y2525012D01*
X1696369Y2531012D02*
G01*
X1723630Y2531012D01*
X1679629Y2444987D02*
G01*
X1679629Y2476093D01*
X1640370Y2476093D02*
G01*
X1640370Y2444987D01*
X1646369Y2438987D02*
G01*
X1673630Y2438987D01*
X1679629Y2525012D02*
G01*
X1679629Y2493906D01*
X1640370Y2493906D02*
G01*
X1640370Y2525012D01*
X1646369Y2531012D02*
G01*
X1673630Y2531012D01*
X1718905Y2324630D02*
G01*
X1747174Y2324630D01*
X1747174Y2285369D01*
X1718905Y2285369D01*
X1701094Y2324630D02*
G01*
X1672825Y2324630D01*
X1672825Y2285369D01*
X1701094Y2285369D01*
X1841094Y2410369D02*
G01*
X1812825Y2410369D01*
X1812825Y2449630D01*
X1841094Y2449630D01*
X1858905Y2410369D02*
G01*
X1887174Y2410369D01*
X1887174Y2449630D01*
X1858905Y2449630D01*
X1836094Y2340369D02*
G01*
X1807825Y2340369D01*
X1807825Y2379630D01*
X1836094Y2379630D01*
X1853905Y2340369D02*
G01*
X1882174Y2340369D01*
X1882174Y2379630D01*
X1853905Y2379630D01*
D12*
X2665000Y1550000D02*
G01*
X2665000Y1575000D01*
X2656107Y1575000D01*
X2655000Y1485000D02*
G01*
X2665000Y1485000D01*
X2665000Y1510000D01*
X2565000Y1550000D02*
G01*
X2565000Y1575000D01*
X2575000Y1575000D01*
X2575000Y1485000D02*
G01*
X2565000Y1485000D01*
X2565000Y1510000D01*
D13*
X1771199Y2427199D02*
G01*
X1779099Y2427199D01*
X1779099Y2427199D01*
X1779099Y2336700D01*
X1660000Y2336700D01*
X1660000Y2427199D01*
X1664899Y2427199D01*
X1779099Y2427199D01*
X1779099Y2427199D01*
X1779099Y2419400D01*
X1785114Y2328816D02*
G01*
X1775114Y2338816D01*
D11*
X2545011Y1430369D02*
G01*
X2513905Y1430369D01*
X2496094Y1469630D02*
G01*
X2464988Y1469630D01*
X2464988Y1430369D02*
G01*
X2496094Y1430369D01*
X2458987Y1463629D02*
G01*
X2458987Y1436370D01*
X2513905Y1469630D02*
G01*
X2545011Y1469630D01*
X2551012Y1463629D02*
G01*
X2551012Y1436370D01*
X2696094Y1595369D02*
G01*
X2667825Y1595369D01*
X2667825Y1634630D01*
X2696094Y1634630D01*
X2713905Y1595369D02*
G01*
X2742174Y1595369D01*
X2742174Y1634630D01*
X2713905Y1634630D01*
X2563905Y1639630D02*
G01*
X2592174Y1639630D01*
X2592174Y1600369D01*
X2563905Y1600369D01*
X2546094Y1639630D02*
G01*
X2517825Y1639630D01*
X2517825Y1600369D01*
X2546094Y1600369D01*
X369987Y1799630D02*
G01*
X401093Y1799630D01*
X418906Y1760369D02*
G01*
X450012Y1760369D01*
X450012Y1799630D02*
G01*
X418906Y1799630D01*
X456012Y1766370D02*
G01*
X456012Y1793629D01*
X401093Y1760369D02*
G01*
X369987Y1760369D01*
X363987Y1766370D02*
G01*
X363987Y1793629D01*
X2839629Y2615012D02*
G01*
X2839629Y2583906D01*
X2800370Y2566093D02*
G01*
X2800370Y2534987D01*
X2839629Y2534987D02*
G01*
X2839629Y2566093D01*
X2806369Y2528987D02*
G01*
X2833630Y2528987D01*
X2800370Y2583906D02*
G01*
X2800370Y2615012D01*
X2806369Y2621012D02*
G01*
X2833630Y2621012D01*
X574987Y1989630D02*
G01*
X606093Y1989630D01*
X623906Y1950369D02*
G01*
X655012Y1950369D01*
X655012Y1989630D02*
G01*
X623906Y1989630D01*
X661012Y1956370D02*
G01*
X661012Y1983629D01*
X606093Y1950369D02*
G01*
X574987Y1950369D01*
X568987Y1956370D02*
G01*
X568987Y1983629D01*
X969629Y2615012D02*
G01*
X969629Y2583906D01*
X930370Y2566093D02*
G01*
X930370Y2534987D01*
X969629Y2534987D02*
G01*
X969629Y2566093D01*
X936369Y2528987D02*
G01*
X963630Y2528987D01*
X930370Y2583906D02*
G01*
X930370Y2615012D01*
X936369Y2621012D02*
G01*
X963630Y2621012D01*
X499630Y2700012D02*
G01*
X499630Y2668906D01*
X460369Y2651093D02*
G01*
X460369Y2619987D01*
X499630Y2619987D02*
G01*
X499630Y2651093D01*
X466370Y2613987D02*
G01*
X493629Y2613987D01*
X460369Y2668906D02*
G01*
X460369Y2700012D01*
X466370Y2706012D02*
G01*
X493629Y2706012D01*
X1279988Y1740369D02*
G01*
X1311094Y1740369D01*
X1311094Y1779630D02*
G01*
X1279988Y1779630D01*
X1273987Y1773629D02*
G01*
X1273987Y1746370D01*
X1360011Y1740369D02*
G01*
X1328905Y1740369D01*
X1328905Y1779630D02*
G01*
X1360011Y1779630D01*
X1366012Y1773629D02*
G01*
X1366012Y1746370D01*
X1282527Y1602766D02*
G01*
X1313632Y1602766D01*
X1313632Y1642026D02*
G01*
X1282527Y1642026D01*
X1276526Y1636026D02*
G01*
X1276526Y1608766D01*
X1362551Y1602766D02*
G01*
X1331445Y1602766D01*
X1331445Y1642026D02*
G01*
X1362551Y1642026D01*
X1368550Y1636026D02*
G01*
X1368550Y1608766D01*
X919629Y2534987D02*
G01*
X919629Y2566093D01*
X880370Y2566093D02*
G01*
X880370Y2534987D01*
X886369Y2528987D02*
G01*
X913630Y2528987D01*
X919629Y2615012D02*
G01*
X919629Y2583906D01*
X880370Y2583906D02*
G01*
X880370Y2615012D01*
X886369Y2621012D02*
G01*
X913630Y2621012D01*
X729630Y2529987D02*
G01*
X729630Y2561093D01*
X690369Y2561093D02*
G01*
X690369Y2529987D01*
X696370Y2523987D02*
G01*
X723629Y2523987D01*
X729630Y2610012D02*
G01*
X729630Y2578906D01*
X690369Y2578906D02*
G01*
X690369Y2610012D01*
X696370Y2616012D02*
G01*
X723629Y2616012D01*
X609630Y2619987D02*
G01*
X609630Y2651093D01*
X570369Y2651093D02*
G01*
X570369Y2619987D01*
X576370Y2613987D02*
G01*
X603629Y2613987D01*
X609630Y2700012D02*
G01*
X609630Y2668906D01*
X570369Y2668906D02*
G01*
X570369Y2700012D01*
X576370Y2706012D02*
G01*
X603629Y2706012D01*
X679630Y2529987D02*
G01*
X679630Y2561093D01*
X640369Y2561093D02*
G01*
X640369Y2529987D01*
X646370Y2523987D02*
G01*
X673629Y2523987D01*
X679630Y2610012D02*
G01*
X679630Y2578906D01*
X640369Y2578906D02*
G01*
X640369Y2610012D01*
X646370Y2616012D02*
G01*
X673629Y2616012D01*
X655012Y1939630D02*
G01*
X623906Y1939630D01*
X623906Y1900369D02*
G01*
X655012Y1900369D01*
X661012Y1906370D02*
G01*
X661012Y1933629D01*
X574987Y1939630D02*
G01*
X606093Y1939630D01*
X606093Y1900369D02*
G01*
X574987Y1900369D01*
X568987Y1906370D02*
G01*
X568987Y1933629D01*
X1093818Y1503317D02*
G01*
X1093818Y1472211D01*
X1133077Y1472211D02*
G01*
X1133077Y1503317D01*
X1127078Y1509317D02*
G01*
X1099817Y1509317D01*
X1093818Y1423292D02*
G01*
X1093818Y1454398D01*
X1133077Y1454398D02*
G01*
X1133077Y1423292D01*
X1127078Y1417292D02*
G01*
X1099817Y1417292D01*
X1350011Y1429630D02*
G01*
X1318905Y1429630D01*
X1318905Y1390369D02*
G01*
X1350011Y1390369D01*
X1356012Y1396370D02*
G01*
X1356012Y1423629D01*
X1269988Y1429630D02*
G01*
X1301094Y1429630D01*
X1301094Y1390369D02*
G01*
X1269988Y1390369D01*
X1263987Y1396370D02*
G01*
X1263987Y1423629D01*
X2793015Y2525070D02*
G01*
X2793015Y2583535D01*
X2706984Y2583535D02*
G01*
X2706984Y2525070D01*
X2712983Y2519070D02*
G01*
X2787016Y2519070D01*
X2793015Y2714929D02*
G01*
X2793015Y2656464D01*
X2706984Y2656464D02*
G01*
X2706984Y2714929D01*
X2712983Y2720929D02*
G01*
X2787016Y2720929D01*
D14*
X916922Y1417559D02*
G01*
X916922Y1662440D01*
X1011733Y1624297D02*
G01*
X1011733Y1662440D01*
X1011733Y1417559D02*
G01*
X1011733Y1455702D01*
X728269Y1624297D02*
G01*
X728269Y1662440D01*
X728269Y1417559D02*
G01*
X728269Y1455702D01*
X1011733Y1662440D02*
G01*
X728269Y1662440D01*
X1011733Y1417559D02*
G01*
X728269Y1417559D01*
X870001Y1540000D02*
G01*
X830001Y1560000D01*
X830001Y1560000D02*
G01*
X830001Y1520000D01*
X830001Y1520000D02*
G01*
X870001Y1540000D01*
X870001Y1540000D02*
G01*
X870001Y1560000D01*
X870001Y1560000D02*
G01*
X870001Y1520000D01*
X810001Y1540000D02*
G01*
X890001Y1540000D01*
D15*
X559684Y2390590D02*
G01*
X559684Y2339409D01*
X520315Y2390590D02*
G01*
X520315Y2339409D01*
D12*
X549000Y2365000D02*
G01*
X530000Y2365000D01*
D15*
X609684Y2390590D02*
G01*
X609684Y2339409D01*
X570315Y2390590D02*
G01*
X570315Y2339409D01*
D12*
X599000Y2365000D02*
G01*
X580000Y2365000D01*
D15*
X389409Y1844684D02*
G01*
X440590Y1844684D01*
X389409Y1805315D02*
G01*
X440590Y1805315D01*
D12*
X415000Y1834000D02*
G01*
X415000Y1815000D01*
D14*
X1510315Y1692874D02*
G01*
X1526063Y1677125D01*
X1530000Y1673189D01*
X1533946Y1677125D01*
X1549695Y1692874D01*
X1510315Y1692874D02*
G01*
X1549695Y1692874D01*
X1570050Y1702449D02*
G01*
X1570050Y1763449D01*
X1490050Y1763449D01*
X1490050Y1702449D01*
X1571049Y1671449D02*
G01*
X1571049Y1613449D01*
X1555050Y1597449D01*
X1505050Y1597449D01*
X1490050Y1612449D01*
X1490050Y1672449D01*
X2167449Y1424949D02*
G01*
X2228450Y1424949D01*
X2228450Y1504949D01*
X2167449Y1504949D01*
X2136450Y1423949D02*
G01*
X2078450Y1423949D01*
X2062449Y1439949D01*
X2062449Y1489949D01*
X2077449Y1504949D01*
X2137449Y1504949D01*
X2157874Y1484684D02*
G01*
X2157874Y1445304D01*
X2153940Y1465000D02*
G01*
X2143350Y1465000D01*
X2167449Y1539949D02*
G01*
X2228450Y1539949D01*
X2228450Y1619949D01*
X2167449Y1619949D01*
X2136450Y1538949D02*
G01*
X2078450Y1538949D01*
X2062449Y1554949D01*
X2062449Y1604949D01*
X2077449Y1619949D01*
X2137449Y1619949D01*
X2157874Y1599684D02*
G01*
X2157874Y1560304D01*
X2153940Y1580000D02*
G01*
X2143350Y1580000D01*
X797948Y2311017D02*
G01*
X797948Y2413379D01*
X986925Y2413379D01*
X986925Y1720464D01*
X986925Y1716806D02*
G01*
X797948Y1716806D01*
X797948Y1822827D01*
D11*
X601093Y2000369D02*
G01*
X572824Y2000369D01*
X572824Y2039630D01*
X601093Y2039630D01*
X618906Y2000369D02*
G01*
X647175Y2000369D01*
X647175Y2039630D01*
X618906Y2039630D01*
X470369Y2373906D02*
G01*
X470369Y2402175D01*
X509630Y2402175D01*
X509630Y2373906D01*
X470369Y2356093D02*
G01*
X470369Y2327824D01*
X509630Y2327824D01*
X509630Y2356093D01*
X544630Y2651093D02*
G01*
X544630Y2622824D01*
X505369Y2622824D01*
X505369Y2651093D01*
X544630Y2668906D02*
G01*
X544630Y2697175D01*
X505369Y2697175D01*
X505369Y2668906D01*
X2641740Y2584398D02*
G01*
X2641740Y2556129D01*
X2602479Y2556129D01*
X2602479Y2584398D01*
X2641740Y2602211D02*
G01*
X2641740Y2630479D01*
X2602479Y2630479D01*
X2602479Y2602211D01*
X2546740Y2584398D02*
G01*
X2546740Y2556129D01*
X2507479Y2556129D01*
X2507479Y2584398D01*
X2546740Y2602211D02*
G01*
X2546740Y2630479D01*
X2507479Y2630479D01*
X2507479Y2602211D01*
X2499629Y2496093D02*
G01*
X2499629Y2467824D01*
X2460370Y2467824D01*
X2460370Y2496093D01*
X2499629Y2513906D02*
G01*
X2499629Y2542175D01*
X2460370Y2542175D01*
X2460370Y2513906D01*
X2449629Y2496093D02*
G01*
X2449629Y2467824D01*
X2410370Y2467824D01*
X2410370Y2496093D01*
X2449629Y2513906D02*
G01*
X2449629Y2542175D01*
X2410370Y2542175D01*
X2410370Y2513906D01*
X2399629Y2496093D02*
G01*
X2399629Y2467824D01*
X2360370Y2467824D01*
X2360370Y2496093D01*
X2399629Y2513906D02*
G01*
X2399629Y2542175D01*
X2360370Y2542175D01*
X2360370Y2513906D01*
X1948905Y2059630D02*
G01*
X1977174Y2059630D01*
X1977174Y2020369D01*
X1948905Y2020369D01*
X1931094Y2059630D02*
G01*
X1902825Y2059630D01*
X1902825Y2020369D01*
X1931094Y2020369D01*
X1951015Y2212935D02*
G01*
X1979284Y2212935D01*
X1979284Y2173674D01*
X1951015Y2173674D01*
X1933203Y2212935D02*
G01*
X1904934Y2212935D01*
X1904934Y2173674D01*
X1933203Y2173674D01*
X1949906Y2160630D02*
G01*
X1978175Y2160630D01*
X1978175Y2121370D01*
X1949906Y2121370D01*
X1932093Y2160630D02*
G01*
X1903824Y2160630D01*
X1903824Y2121370D01*
X1932093Y2121370D01*
X1949906Y2110630D02*
G01*
X1978175Y2110630D01*
X1978175Y2071370D01*
X1949906Y2071370D01*
X1932093Y2110630D02*
G01*
X1903824Y2110630D01*
X1903824Y2071370D01*
X1932093Y2071370D01*
X2249629Y2496093D02*
G01*
X2249629Y2467824D01*
X2210370Y2467824D01*
X2210370Y2496093D01*
X2249629Y2513906D02*
G01*
X2249629Y2542175D01*
X2210370Y2542175D01*
X2210370Y2513906D01*
X2299629Y2496093D02*
G01*
X2299629Y2467824D01*
X2260370Y2467824D01*
X2260370Y2496093D01*
X2299629Y2513906D02*
G01*
X2299629Y2542175D01*
X2260370Y2542175D01*
X2260370Y2513906D01*
X2349629Y2496093D02*
G01*
X2349629Y2467824D01*
X2310370Y2467824D01*
X2310370Y2496093D01*
X2349629Y2513906D02*
G01*
X2349629Y2542175D01*
X2310370Y2542175D01*
X2310370Y2513906D01*
X1951015Y2262935D02*
G01*
X1979284Y2262935D01*
X1979284Y2223674D01*
X1951015Y2223674D01*
X1933203Y2262935D02*
G01*
X1904934Y2262935D01*
X1904934Y2223674D01*
X1933203Y2223674D01*
X2196740Y2494398D02*
G01*
X2196740Y2466129D01*
X2157479Y2466129D01*
X2157479Y2494398D01*
X2196740Y2512211D02*
G01*
X2196740Y2540479D01*
X2157479Y2540479D01*
X2157479Y2512211D01*
X2689629Y2586093D02*
G01*
X2689629Y2557824D01*
X2650370Y2557824D01*
X2650370Y2586093D01*
X2689629Y2603906D02*
G01*
X2689629Y2632175D01*
X2650370Y2632175D01*
X2650370Y2603906D01*
X2594629Y2586093D02*
G01*
X2594629Y2557824D01*
X2555370Y2557824D01*
X2555370Y2586093D01*
X2594629Y2603906D02*
G01*
X2594629Y2632175D01*
X2555370Y2632175D01*
X2555370Y2603906D01*
X1406094Y1605369D02*
G01*
X1377825Y1605369D01*
X1377825Y1644630D01*
X1406094Y1644630D01*
X1423905Y1605369D02*
G01*
X1452174Y1605369D01*
X1452174Y1644630D01*
X1423905Y1644630D01*
X1413905Y1779630D02*
G01*
X1442174Y1779630D01*
X1442174Y1740369D01*
X1413905Y1740369D01*
X1396094Y1779630D02*
G01*
X1367825Y1779630D01*
X1367825Y1740369D01*
X1396094Y1740369D01*
X620369Y2378906D02*
G01*
X620369Y2407175D01*
X659630Y2407175D01*
X659630Y2378906D01*
X620369Y2361093D02*
G01*
X620369Y2332824D01*
X659630Y2332824D01*
X659630Y2361093D01*
X665369Y2378906D02*
G01*
X665369Y2407175D01*
X704630Y2407175D01*
X704630Y2378906D01*
X665369Y2361093D02*
G01*
X665369Y2332824D01*
X704630Y2332824D01*
X704630Y2361093D01*
X401093Y1715369D02*
G01*
X372824Y1715369D01*
X372824Y1754630D01*
X401093Y1754630D01*
X418906Y1715369D02*
G01*
X447175Y1715369D01*
X447175Y1754630D01*
X418906Y1754630D01*
X1179629Y1456093D02*
G01*
X1179629Y1427824D01*
X1140370Y1427824D01*
X1140370Y1456093D01*
X1179629Y1473906D02*
G01*
X1179629Y1502175D01*
X1140370Y1502175D01*
X1140370Y1473906D01*
X1996094Y1445369D02*
G01*
X1967825Y1445369D01*
X1967825Y1484630D01*
X1996094Y1484630D01*
X2013905Y1445369D02*
G01*
X2042174Y1445369D01*
X2042174Y1484630D01*
X2013905Y1484630D01*
X1996094Y1555369D02*
G01*
X1967825Y1555369D01*
X1967825Y1594630D01*
X1996094Y1594630D01*
X2013905Y1555369D02*
G01*
X2042174Y1555369D01*
X2042174Y1594630D01*
X2013905Y1594630D01*
D14*
X2789575Y1779634D02*
G01*
X2981882Y1779634D01*
X2981882Y1867635D01*
X2789575Y1859634D02*
G01*
X2981882Y1859634D01*
X2981882Y1971925D01*
X2896882Y1971925D01*
X2896882Y2071925D01*
X2981882Y2071925D01*
X2981882Y2171925D01*
X2896882Y2171925D01*
X2896882Y2261925D01*
X2981882Y2261925D01*
X2981882Y2351925D01*
X2836882Y2351925D01*
X2789575Y2421255D02*
G01*
X2789575Y1711925D01*
X2758896Y1711925D02*
G01*
X3026882Y1711925D01*
X2021882Y1765108D02*
G01*
X2021882Y1711925D01*
X2055263Y1711925D01*
X2055263Y2421255D02*
G01*
X2021882Y2421255D01*
X2021882Y2368742D01*
X3027356Y2421255D02*
G01*
X2758896Y2421255D01*
X3027356Y1712593D02*
G01*
X3027356Y2421255D01*
D11*
X1287944Y1732370D02*
G01*
X1412055Y1732370D01*
X1287944Y1647629D02*
G01*
X1412055Y1647629D01*
X1210087Y1646408D02*
G01*
X1210087Y1703591D01*
X1169471Y1703591D01*
X1089912Y1646408D02*
G01*
X1089912Y1703591D01*
X1130528Y1703591D01*
X1167929Y1646408D02*
G01*
X1132070Y1646408D01*
D14*
X1293168Y1452435D02*
G01*
X1293168Y1562636D01*
X1293168Y1562636D02*
G01*
X1332569Y1562636D01*
X1332569Y1452435D01*
X1293168Y1452435D01*
D11*
X744402Y2620007D02*
G01*
X744402Y2549992D01*
X865598Y2620007D02*
G01*
X865598Y2549992D01*
D14*
X361289Y1886925D02*
G01*
X435947Y1886925D01*
X275313Y2246925D02*
G01*
X213382Y2246925D01*
X213382Y1886925D01*
X275313Y1886925D01*
X435947Y2246925D02*
G01*
X361289Y2246925D01*
D11*
X519771Y2459322D02*
G01*
X360228Y2459322D01*
X360228Y2459322D02*
G01*
X360228Y2485228D01*
X519771Y2580677D02*
G01*
X360228Y2580677D01*
X360228Y2580677D02*
G01*
X360228Y2554771D01*
X514771Y1584322D02*
G01*
X355228Y1584322D01*
X355228Y1584322D02*
G01*
X355228Y1610228D01*
X514771Y1705677D02*
G01*
X355228Y1705677D01*
X355228Y1705677D02*
G01*
X355228Y1679771D01*
G75*
G01*
X2760012Y1430370D02*
G03*
X2766012Y1436370I0J6000D01*
G75*
G01*
X2766012Y1463630D02*
G03*
X2760012Y1469630I-6000J0D01*
G75*
G01*
X2679988Y1430370D02*
G02*
X2673988Y1436370I0J6000D01*
G75*
G01*
X2673988Y1463630D02*
G02*
X2679988Y1469630I6000J0D01*
G75*
G01*
X1690370Y2444988D02*
G03*
X1696370Y2438988I6000J0D01*
G75*
G01*
X1723630Y2438988D02*
G03*
X1729630Y2444988I0J6000D01*
G75*
G01*
X1690370Y2525012D02*
G02*
X1696370Y2531012I6000J0D01*
G75*
G01*
X1723630Y2531012D02*
G02*
X1729630Y2525012I0J-6000D01*
G75*
G01*
X1640370Y2444988D02*
G03*
X1646370Y2438988I6000J0D01*
G75*
G01*
X1673630Y2438988D02*
G03*
X1679630Y2444988I0J6000D01*
G75*
G01*
X1640370Y2525012D02*
G02*
X1646370Y2531012I6000J0D01*
G75*
G01*
X1673630Y2531012D02*
G02*
X1679630Y2525012I0J-6000D01*
G75*
G01*
X2464988Y1469630D02*
G03*
X2458988Y1463630I0J-6000D01*
G75*
G01*
X2458988Y1436370D02*
G03*
X2464988Y1430370I6000J0D01*
G75*
G01*
X2545012Y1469630D02*
G02*
X2551012Y1463630I0J-6000D01*
G75*
G01*
X2551012Y1436370D02*
G02*
X2545012Y1430370I-6000J0D01*
G75*
G01*
X450012Y1760370D02*
G03*
X456012Y1766370I0J6000D01*
G75*
G01*
X456012Y1793630D02*
G03*
X450012Y1799630I-6000J0D01*
G75*
G01*
X369988Y1760370D02*
G02*
X363988Y1766370I0J6000D01*
G75*
G01*
X363988Y1793630D02*
G02*
X369988Y1799630I6000J0D01*
G75*
G01*
X2800370Y2534988D02*
G03*
X2806370Y2528988I6000J0D01*
G75*
G01*
X2833630Y2528988D02*
G03*
X2839630Y2534988I0J6000D01*
G75*
G01*
X2800370Y2615012D02*
G02*
X2806370Y2621012I6000J0D01*
G75*
G01*
X2833630Y2621012D02*
G02*
X2839630Y2615012I0J-6000D01*
G75*
G01*
X655012Y1950370D02*
G03*
X661012Y1956370I0J6000D01*
G75*
G01*
X661012Y1983630D02*
G03*
X655012Y1989630I-6000J0D01*
G75*
G01*
X574988Y1950370D02*
G02*
X568988Y1956370I0J6000D01*
G75*
G01*
X568988Y1983630D02*
G02*
X574988Y1989630I6000J0D01*
G75*
G01*
X930370Y2534988D02*
G03*
X936370Y2528988I6000J0D01*
G75*
G01*
X963630Y2528988D02*
G03*
X969630Y2534988I0J6000D01*
G75*
G01*
X930370Y2615012D02*
G02*
X936370Y2621012I6000J0D01*
G75*
G01*
X963630Y2621012D02*
G02*
X969630Y2615012I0J-6000D01*
G75*
G01*
X460370Y2619988D02*
G03*
X466370Y2613988I6000J0D01*
G75*
G01*
X493630Y2613988D02*
G03*
X499630Y2619988I0J6000D01*
G75*
G01*
X460370Y2700012D02*
G02*
X466370Y2706012I6000J0D01*
G75*
G01*
X493630Y2706012D02*
G02*
X499630Y2700012I0J-6000D01*
G75*
G01*
X1279988Y1779630D02*
G03*
X1273988Y1773630I0J-6000D01*
G75*
G01*
X1273988Y1746370D02*
G03*
X1279988Y1740370I6000J0D01*
G75*
G01*
X1360012Y1779630D02*
G02*
X1366012Y1773630I0J-6000D01*
G75*
G01*
X1366012Y1746370D02*
G02*
X1360012Y1740370I-6000J0D01*
G75*
G01*
X1282527Y1642026D02*
G03*
X1276527Y1636026I0J-6000D01*
G75*
G01*
X1276527Y1608766D02*
G03*
X1282527Y1602766I6000J0D01*
G75*
G01*
X1362551Y1642026D02*
G02*
X1368551Y1636026I0J-6000D01*
G75*
G01*
X1368551Y1608766D02*
G02*
X1362551Y1602766I-6000J0D01*
G75*
G01*
X880370Y2534988D02*
G03*
X886370Y2528988I6000J0D01*
G75*
G01*
X913630Y2528988D02*
G03*
X919630Y2534988I0J6000D01*
G75*
G01*
X880370Y2615012D02*
G02*
X886370Y2621012I6000J0D01*
G75*
G01*
X913630Y2621012D02*
G02*
X919630Y2615012I0J-6000D01*
G75*
G01*
X690370Y2529988D02*
G03*
X696370Y2523988I6000J0D01*
G75*
G01*
X723630Y2523988D02*
G03*
X729630Y2529988I0J6000D01*
G75*
G01*
X690370Y2610012D02*
G02*
X696370Y2616012I6000J0D01*
G75*
G01*
X723630Y2616012D02*
G02*
X729630Y2610012I0J-6000D01*
G75*
G01*
X570370Y2619988D02*
G03*
X576370Y2613988I6000J0D01*
G75*
G01*
X603630Y2613988D02*
G03*
X609630Y2619988I0J6000D01*
G75*
G01*
X570370Y2700012D02*
G02*
X576370Y2706012I6000J0D01*
G75*
G01*
X603630Y2706012D02*
G02*
X609630Y2700012I0J-6000D01*
G75*
G01*
X640370Y2529988D02*
G03*
X646370Y2523988I6000J0D01*
G75*
G01*
X673630Y2523988D02*
G03*
X679630Y2529988I0J6000D01*
G75*
G01*
X640370Y2610012D02*
G02*
X646370Y2616012I6000J0D01*
G75*
G01*
X673630Y2616012D02*
G02*
X679630Y2610012I0J-6000D01*
G75*
G01*
X655012Y1900370D02*
G03*
X661012Y1906370I0J6000D01*
G75*
G01*
X661012Y1933630D02*
G03*
X655012Y1939630I-6000J0D01*
G75*
G01*
X574988Y1900370D02*
G02*
X568988Y1906370I0J6000D01*
G75*
G01*
X568988Y1933630D02*
G02*
X574988Y1939630I6000J0D01*
G75*
G01*
X1133078Y1503317D02*
G03*
X1127078Y1509317I-6000J0D01*
G75*
G01*
X1099818Y1509317D02*
G03*
X1093818Y1503317I0J-6000D01*
G75*
G01*
X1133078Y1423293D02*
G02*
X1127078Y1417293I-6000J0D01*
G75*
G01*
X1099818Y1417293D02*
G02*
X1093818Y1423293I0J6000D01*
G75*
G01*
X1350012Y1390370D02*
G03*
X1356012Y1396370I0J6000D01*
G75*
G01*
X1356012Y1423630D02*
G03*
X1350012Y1429630I-6000J0D01*
G75*
G01*
X1269988Y1390370D02*
G02*
X1263988Y1396370I0J6000D01*
G75*
G01*
X1263988Y1423630D02*
G02*
X1269988Y1429630I6000J0D01*
G75*
G01*
X2706984Y2525071D02*
G03*
X2712984Y2519071I6000J0D01*
G75*
G01*
X2787016Y2519071D02*
G03*
X2793016Y2525071I0J6000D01*
G75*
G01*
X2706984Y2714929D02*
G02*
X2712984Y2720929I6000J0D01*
G75*
G01*
X2787016Y2720929D02*
G02*
X2793016Y2714929I0J-6000D01*
D16*
G75*
G01*
X1252969Y1578085D02*
G02*
X1252969Y1577985I4900J-50D01*
D17*
G75*
G01
X2647480Y1587380D02*
G03X2647480Y1587380I-2950J0D01*
D14*
G75*
G01
X785470Y2326760D02*
G03X785470Y2326760I-11140J0D01*
G75*
G01
X2772700Y2476920D02*
G03X2772700Y2476920I-15810J0D01*
D17*
G75*
G01
X1272630Y1719530D02*
G03X1272630Y1719530I-2950J0D01*
D18*
G75*
G01
X876590Y2636240D02*
G03X876590Y2636240I-5910J0D01*
D14*
G75*
G01
X475430Y2520000D02*
G03X475430Y2520000I-35430J0D01*
G75*
G01
X470430Y1645000D02*
G03X470430Y1645000I-35430J0D01*
X1525000Y2205000D02*
G01*
X1785000Y2205000D01*
X1785000Y1970000D01*
X1525000Y1970000D01*
X1525000Y2205000D01*
M02*
