G04 Layer: InnerLayer2*
G04 EasyEDA v6.5.23, 2023-06-17 09:45:11*
G04 36c83109d75f48428eebd667f423d1d4,0a61cb7f7b51421fbede6d33e3e5ec82,10*
G04 Gerber Generator version 0.2*
G04 Scale: 100 percent, Rotated: No, Reflected: No *
G04 Dimensions in inches *
G04 leading zeros omitted , absolute positions ,3 integer and 6 decimal *
%FSLAX36Y36*%
%MOIN*%

%ADD10O,0.070866X0.047244*%
%ADD11O,0.07873999999999999X0.047244*%
%ADD12C,0.0197*%
%ADD13C,0.0240*%

%LPD*%
G36*
X393699Y1377950D02*
G01*
X390626Y1377989D01*
X387555Y1378110D01*
X384488Y1378310D01*
X381426Y1378589D01*
X378373Y1378948D01*
X375331Y1379387D01*
X372301Y1379904D01*
X369286Y1380500D01*
X366287Y1381174D01*
X363308Y1381927D01*
X360347Y1382757D01*
X357411Y1383663D01*
X354499Y1384645D01*
X351613Y1385702D01*
X348755Y1386835D01*
X345927Y1388042D01*
X343134Y1389322D01*
X340372Y1390673D01*
X337649Y1392096D01*
X334962Y1393591D01*
X332316Y1395154D01*
X329711Y1396786D01*
X327150Y1398483D01*
X324632Y1400248D01*
X322163Y1402078D01*
X319742Y1403971D01*
X317370Y1405927D01*
X315050Y1407944D01*
X312784Y1410021D01*
X310572Y1412156D01*
X308418Y1414346D01*
X306320Y1416594D01*
X304281Y1418895D01*
X302305Y1421248D01*
X300389Y1423650D01*
X298535Y1426104D01*
X296747Y1428604D01*
X295025Y1431149D01*
X293369Y1433739D01*
X291781Y1436370D01*
X290264Y1439043D01*
X288814Y1441754D01*
X287436Y1444502D01*
X286131Y1447285D01*
X284899Y1450100D01*
X283739Y1452946D01*
X282654Y1455823D01*
X281646Y1458726D01*
X280711Y1461655D01*
X279854Y1464605D01*
X279074Y1467579D01*
X278373Y1470572D01*
X277748Y1473582D01*
X277202Y1476606D01*
X276736Y1479645D01*
X276349Y1482694D01*
X276041Y1485752D01*
X275812Y1488816D01*
X275664Y1491887D01*
X275594Y1494960D01*
X275590Y1496060D01*
X275590Y2637790D01*
X275630Y2640862D01*
X275749Y2643935D01*
X275949Y2647002D01*
X276228Y2650063D01*
X276588Y2653116D01*
X277026Y2656158D01*
X277543Y2659187D01*
X278141Y2662202D01*
X278814Y2665201D01*
X279567Y2668182D01*
X280396Y2671142D01*
X281302Y2674079D01*
X282285Y2676990D01*
X283342Y2679877D01*
X284475Y2682734D01*
X285682Y2685562D01*
X286961Y2688355D01*
X288314Y2691116D01*
X289737Y2693841D01*
X291230Y2696527D01*
X292793Y2699173D01*
X294425Y2701779D01*
X296123Y2704340D01*
X297889Y2706857D01*
X299719Y2709326D01*
X301612Y2711747D01*
X303568Y2714119D01*
X305585Y2716439D01*
X307660Y2718705D01*
X309796Y2720916D01*
X311986Y2723072D01*
X314234Y2725169D01*
X316534Y2727208D01*
X318888Y2729185D01*
X321291Y2731100D01*
X323744Y2732953D01*
X326244Y2734742D01*
X328789Y2736464D01*
X331379Y2738119D01*
X334011Y2739708D01*
X336682Y2741226D01*
X339394Y2742674D01*
X342141Y2744052D01*
X344924Y2745358D01*
X347739Y2746590D01*
X350587Y2747750D01*
X353463Y2748834D01*
X356365Y2749843D01*
X359295Y2750778D01*
X362246Y2751635D01*
X365219Y2752415D01*
X368211Y2753117D01*
X371221Y2753741D01*
X374247Y2754286D01*
X377285Y2754753D01*
X380333Y2755140D01*
X383391Y2755448D01*
X386457Y2755677D01*
X389526Y2755826D01*
X392600Y2755895D01*
X393699Y2755900D01*
X2913379Y2755900D01*
X2916453Y2755859D01*
X2919525Y2755740D01*
X2922592Y2755540D01*
X2925653Y2755261D01*
X2928706Y2754901D01*
X2931747Y2754463D01*
X2934777Y2753946D01*
X2937793Y2753348D01*
X2940792Y2752674D01*
X2943771Y2751923D01*
X2946732Y2751093D01*
X2949669Y2750187D01*
X2952581Y2749205D01*
X2955466Y2748146D01*
X2958325Y2747013D01*
X2961152Y2745808D01*
X2963945Y2744528D01*
X2966706Y2743175D01*
X2969431Y2741752D01*
X2972116Y2740259D01*
X2974763Y2738696D01*
X2977368Y2737064D01*
X2979930Y2735365D01*
X2982447Y2733600D01*
X2984916Y2731770D01*
X2987337Y2729877D01*
X2989709Y2727921D01*
X2992029Y2725904D01*
X2994295Y2723829D01*
X2996507Y2721694D01*
X2998662Y2719502D01*
X3000758Y2717256D01*
X3002798Y2714955D01*
X3004774Y2712602D01*
X3006691Y2710198D01*
X3008544Y2707746D01*
X3010331Y2705246D01*
X3012053Y2702700D01*
X3013710Y2700111D01*
X3015298Y2697478D01*
X3016815Y2694807D01*
X3018265Y2692096D01*
X3019642Y2689348D01*
X3020947Y2686565D01*
X3022181Y2683750D01*
X3023339Y2680902D01*
X3024425Y2678027D01*
X3025433Y2675124D01*
X3026368Y2672195D01*
X3027224Y2669243D01*
X3028005Y2666269D01*
X3028707Y2663278D01*
X3029331Y2660268D01*
X3029876Y2657242D01*
X3030343Y2654205D01*
X3030730Y2651156D01*
X3031039Y2648098D01*
X3031268Y2645032D01*
X3031415Y2641963D01*
X3031485Y2638890D01*
X3031490Y2637790D01*
X3031490Y1496060D01*
X3031450Y1492986D01*
X3031329Y1489915D01*
X3031130Y1486848D01*
X3030851Y1483787D01*
X3030491Y1480734D01*
X3030052Y1477692D01*
X3029535Y1474661D01*
X3028939Y1471646D01*
X3028265Y1468647D01*
X3027512Y1465668D01*
X3026683Y1462707D01*
X3025776Y1459771D01*
X3024795Y1456858D01*
X3023737Y1453973D01*
X3022604Y1451114D01*
X3021397Y1448287D01*
X3020118Y1445493D01*
X3018765Y1442732D01*
X3017343Y1440009D01*
X3015848Y1437323D01*
X3014286Y1434675D01*
X3012654Y1432071D01*
X3010955Y1429510D01*
X3009191Y1426993D01*
X3007361Y1424522D01*
X3005468Y1422101D01*
X3003512Y1419731D01*
X3001495Y1417411D01*
X2999418Y1415145D01*
X2997283Y1412932D01*
X2995092Y1410778D01*
X2992845Y1408681D01*
X2990545Y1406642D01*
X2988191Y1404665D01*
X2985789Y1402748D01*
X2983335Y1400895D01*
X2980835Y1399108D01*
X2978289Y1397386D01*
X2975700Y1395729D01*
X2973068Y1394142D01*
X2970397Y1392624D01*
X2967686Y1391174D01*
X2964938Y1389796D01*
X2962155Y1388492D01*
X2959340Y1387258D01*
X2956493Y1386100D01*
X2953617Y1385014D01*
X2950713Y1384005D01*
X2947785Y1383072D01*
X2944834Y1382215D01*
X2941859Y1381435D01*
X2938868Y1380733D01*
X2935857Y1380109D01*
X2932833Y1379562D01*
X2929795Y1379095D01*
X2926746Y1378708D01*
X2923688Y1378400D01*
X2920622Y1378171D01*
X2917552Y1378024D01*
X2914480Y1377955D01*
X2913379Y1377950D01*
G37*

%LPC*%
G36*
X2564449Y1404909D02*
G01*
X2565550Y1404909D01*
X2566652Y1404991D01*
X2567743Y1405151D01*
X2568819Y1405390D01*
X2569875Y1405709D01*
X2570906Y1406102D01*
X2571904Y1406570D01*
X2572866Y1407110D01*
X2573786Y1407719D01*
X2574659Y1408393D01*
X2575481Y1409128D01*
X2576246Y1409922D01*
X2576952Y1410770D01*
X2577592Y1411667D01*
X2578167Y1412609D01*
X2578671Y1413591D01*
X2579103Y1414605D01*
X2579459Y1415650D01*
X2579738Y1416716D01*
X2579939Y1417800D01*
X2580060Y1418897D01*
X2580100Y1420000D01*
X2580060Y1421102D01*
X2579939Y1422199D01*
X2579738Y1423283D01*
X2579459Y1424349D01*
X2579103Y1425394D01*
X2578671Y1426408D01*
X2578167Y1427390D01*
X2577592Y1428332D01*
X2576952Y1429229D01*
X2576246Y1430077D01*
X2575481Y1430871D01*
X2574659Y1431606D01*
X2573786Y1432280D01*
X2572866Y1432889D01*
X2571904Y1433429D01*
X2570906Y1433897D01*
X2569875Y1434290D01*
X2568819Y1434609D01*
X2567743Y1434848D01*
X2566652Y1435009D01*
X2565550Y1435090D01*
X2564449Y1435090D01*
X2563347Y1435009D01*
X2562256Y1434848D01*
X2561180Y1434609D01*
X2560124Y1434290D01*
X2559093Y1433897D01*
X2558095Y1433429D01*
X2557133Y1432889D01*
X2556214Y1432280D01*
X2555340Y1431606D01*
X2554519Y1430871D01*
X2553753Y1430077D01*
X2553047Y1429229D01*
X2552407Y1428332D01*
X2551832Y1427390D01*
X2551328Y1426408D01*
X2550896Y1425394D01*
X2550540Y1424349D01*
X2550261Y1423283D01*
X2550060Y1422199D01*
X2549939Y1421102D01*
X2549899Y1420000D01*
X2549939Y1418897D01*
X2550060Y1417800D01*
X2550261Y1416716D01*
X2550540Y1415650D01*
X2550896Y1414605D01*
X2551328Y1413591D01*
X2551832Y1412609D01*
X2552407Y1411667D01*
X2553047Y1410770D01*
X2553753Y1409922D01*
X2554519Y1409128D01*
X2555340Y1408393D01*
X2556214Y1407719D01*
X2557133Y1407110D01*
X2558095Y1406570D01*
X2559093Y1406102D01*
X2560124Y1405709D01*
X2561180Y1405390D01*
X2562256Y1405151D01*
X2563347Y1404991D01*
G37*
G36*
X365466Y1436903D02*
G01*
X367332Y1436963D01*
X369194Y1437105D01*
X371050Y1437327D01*
X372892Y1437629D01*
X374720Y1438009D01*
X376529Y1438470D01*
X378319Y1439009D01*
X380082Y1439625D01*
X381817Y1440315D01*
X383519Y1441082D01*
X385187Y1441921D01*
X386819Y1442831D01*
X388409Y1443811D01*
X389953Y1444859D01*
X391453Y1445972D01*
X392901Y1447150D01*
X394299Y1448389D01*
X395641Y1449688D01*
X396925Y1451044D01*
X398150Y1452455D01*
X399311Y1453917D01*
X400408Y1455428D01*
X401439Y1456984D01*
X402402Y1458584D01*
X403296Y1460225D01*
X404117Y1461903D01*
X404863Y1463613D01*
X405536Y1465356D01*
X406131Y1467125D01*
X406651Y1468919D01*
X407091Y1470734D01*
X407453Y1472566D01*
X407735Y1474412D01*
X407937Y1476269D01*
X408060Y1478132D01*
X408099Y1480000D01*
X408060Y1481867D01*
X407937Y1483730D01*
X407735Y1485587D01*
X407453Y1487433D01*
X407091Y1489265D01*
X406651Y1491080D01*
X406131Y1492874D01*
X405536Y1494643D01*
X404863Y1496386D01*
X404117Y1498096D01*
X403296Y1499774D01*
X402402Y1501415D01*
X401439Y1503015D01*
X400408Y1504571D01*
X399311Y1506082D01*
X398150Y1507545D01*
X396925Y1508955D01*
X395641Y1510311D01*
X394299Y1511610D01*
X392901Y1512849D01*
X391453Y1514027D01*
X389953Y1515140D01*
X388409Y1516188D01*
X386819Y1517168D01*
X385187Y1518078D01*
X383519Y1518917D01*
X381817Y1519684D01*
X380082Y1520374D01*
X378319Y1520990D01*
X376529Y1521529D01*
X374720Y1521990D01*
X372892Y1522370D01*
X371050Y1522672D01*
X369194Y1522894D01*
X367332Y1523036D01*
X365466Y1523096D01*
X363600Y1523076D01*
X361734Y1522975D01*
X359875Y1522793D01*
X358027Y1522532D01*
X356190Y1522190D01*
X354371Y1521768D01*
X352573Y1521269D01*
X350796Y1520691D01*
X349047Y1520039D01*
X347328Y1519310D01*
X345641Y1518508D01*
X343991Y1517633D01*
X342381Y1516687D01*
X340812Y1515673D01*
X339290Y1514591D01*
X337815Y1513445D01*
X336392Y1512237D01*
X335023Y1510967D01*
X333710Y1509639D01*
X332454Y1508256D01*
X331262Y1506819D01*
X330131Y1505333D01*
X329067Y1503798D01*
X328069Y1502220D01*
X327141Y1500599D01*
X326284Y1498939D01*
X325500Y1497246D01*
X324791Y1495518D01*
X324155Y1493762D01*
X323598Y1491979D01*
X323117Y1490174D01*
X322716Y1488350D01*
X322395Y1486511D01*
X322152Y1484659D01*
X321990Y1482799D01*
X321909Y1480934D01*
X321909Y1479065D01*
X321990Y1477201D01*
X322152Y1475340D01*
X322395Y1473488D01*
X322716Y1471649D01*
X323117Y1469825D01*
X323598Y1468020D01*
X324155Y1466237D01*
X324791Y1464481D01*
X325500Y1462754D01*
X326284Y1461060D01*
X327141Y1459400D01*
X328069Y1457779D01*
X329067Y1456201D01*
X330131Y1454666D01*
X331262Y1453180D01*
X332454Y1451743D01*
X333710Y1450360D01*
X335023Y1449032D01*
X336392Y1447763D01*
X337815Y1446554D01*
X339290Y1445408D01*
X340812Y1444326D01*
X342381Y1443312D01*
X343991Y1442366D01*
X345641Y1441491D01*
X347328Y1440689D01*
X349047Y1439960D01*
X350796Y1439308D01*
X352573Y1438730D01*
X354371Y1438231D01*
X356190Y1437809D01*
X358027Y1437467D01*
X359875Y1437206D01*
X361734Y1437024D01*
X363600Y1436923D01*
G37*
G36*
X2900466Y1441903D02*
G01*
X2902332Y1441963D01*
X2904194Y1442105D01*
X2906049Y1442327D01*
X2907893Y1442629D01*
X2909720Y1443009D01*
X2911530Y1443470D01*
X2913319Y1444009D01*
X2915082Y1444625D01*
X2916817Y1445315D01*
X2918519Y1446082D01*
X2920187Y1446921D01*
X2921818Y1447831D01*
X2923409Y1448811D01*
X2924953Y1449859D01*
X2926453Y1450972D01*
X2927902Y1452150D01*
X2929299Y1453389D01*
X2930640Y1454688D01*
X2931925Y1456044D01*
X2933149Y1457455D01*
X2934312Y1458917D01*
X2935408Y1460428D01*
X2936440Y1461984D01*
X2937403Y1463584D01*
X2938296Y1465225D01*
X2939116Y1466903D01*
X2939863Y1468613D01*
X2940536Y1470356D01*
X2941131Y1472125D01*
X2941651Y1473919D01*
X2942092Y1475734D01*
X2942453Y1477566D01*
X2942736Y1479412D01*
X2942938Y1481269D01*
X2943059Y1483132D01*
X2943100Y1485000D01*
X2943059Y1486867D01*
X2942938Y1488730D01*
X2942736Y1490587D01*
X2942453Y1492433D01*
X2942092Y1494265D01*
X2941651Y1496080D01*
X2941131Y1497874D01*
X2940536Y1499643D01*
X2939863Y1501386D01*
X2939116Y1503096D01*
X2938296Y1504774D01*
X2937403Y1506415D01*
X2936440Y1508015D01*
X2935408Y1509571D01*
X2934312Y1511082D01*
X2933149Y1512545D01*
X2931925Y1513955D01*
X2930640Y1515311D01*
X2929299Y1516610D01*
X2927902Y1517849D01*
X2926453Y1519027D01*
X2924953Y1520140D01*
X2923409Y1521188D01*
X2921818Y1522168D01*
X2920187Y1523078D01*
X2918519Y1523917D01*
X2916817Y1524684D01*
X2915082Y1525374D01*
X2913319Y1525990D01*
X2911530Y1526529D01*
X2909720Y1526990D01*
X2907893Y1527370D01*
X2906049Y1527672D01*
X2904194Y1527894D01*
X2902332Y1528036D01*
X2900466Y1528096D01*
X2898599Y1528076D01*
X2896734Y1527975D01*
X2894876Y1527793D01*
X2893027Y1527532D01*
X2891190Y1527190D01*
X2889372Y1526768D01*
X2887573Y1526269D01*
X2885796Y1525691D01*
X2884047Y1525039D01*
X2882327Y1524310D01*
X2880640Y1523508D01*
X2878990Y1522633D01*
X2877380Y1521687D01*
X2875812Y1520673D01*
X2874290Y1519591D01*
X2872816Y1518445D01*
X2871392Y1517237D01*
X2870023Y1515967D01*
X2868710Y1514639D01*
X2867455Y1513256D01*
X2866261Y1511819D01*
X2865131Y1510333D01*
X2864066Y1508798D01*
X2863068Y1507220D01*
X2862142Y1505599D01*
X2861284Y1503939D01*
X2860501Y1502246D01*
X2859790Y1500518D01*
X2859156Y1498762D01*
X2858598Y1496979D01*
X2858118Y1495174D01*
X2857717Y1493350D01*
X2857394Y1491511D01*
X2857152Y1489659D01*
X2856990Y1487799D01*
X2856909Y1485934D01*
X2856909Y1484065D01*
X2856990Y1482201D01*
X2857152Y1480340D01*
X2857394Y1478488D01*
X2857717Y1476649D01*
X2858118Y1474825D01*
X2858598Y1473020D01*
X2859156Y1471237D01*
X2859790Y1469481D01*
X2860501Y1467754D01*
X2861284Y1466060D01*
X2862142Y1464400D01*
X2863068Y1462779D01*
X2864066Y1461201D01*
X2865131Y1459666D01*
X2866261Y1458180D01*
X2867455Y1456743D01*
X2868710Y1455360D01*
X2870023Y1454032D01*
X2871392Y1452763D01*
X2872816Y1451554D01*
X2874290Y1450408D01*
X2875812Y1449326D01*
X2877380Y1448312D01*
X2878990Y1447366D01*
X2880640Y1446491D01*
X2882327Y1445689D01*
X2884047Y1444960D01*
X2885796Y1444308D01*
X2887573Y1443730D01*
X2889372Y1443231D01*
X2891190Y1442809D01*
X2893027Y1442467D01*
X2894876Y1442206D01*
X2896734Y1442024D01*
X2898599Y1441923D01*
G37*
G36*
X2324449Y1454909D02*
G01*
X2325550Y1454909D01*
X2326652Y1454991D01*
X2327743Y1455151D01*
X2328819Y1455390D01*
X2329875Y1455709D01*
X2330906Y1456102D01*
X2331904Y1456570D01*
X2332866Y1457110D01*
X2333786Y1457719D01*
X2334659Y1458393D01*
X2335481Y1459128D01*
X2336246Y1459922D01*
X2336952Y1460770D01*
X2337592Y1461667D01*
X2338167Y1462609D01*
X2338671Y1463591D01*
X2339103Y1464605D01*
X2339459Y1465650D01*
X2339738Y1466716D01*
X2339939Y1467800D01*
X2340060Y1468897D01*
X2340100Y1470000D01*
X2340060Y1471102D01*
X2339939Y1472199D01*
X2339738Y1473283D01*
X2339459Y1474349D01*
X2339103Y1475394D01*
X2338671Y1476408D01*
X2338167Y1477390D01*
X2337592Y1478332D01*
X2336952Y1479229D01*
X2336246Y1480077D01*
X2335481Y1480871D01*
X2334659Y1481606D01*
X2333786Y1482280D01*
X2332866Y1482889D01*
X2331904Y1483429D01*
X2330906Y1483897D01*
X2329875Y1484290D01*
X2328819Y1484609D01*
X2327743Y1484848D01*
X2326652Y1485009D01*
X2325550Y1485090D01*
X2324449Y1485090D01*
X2323347Y1485009D01*
X2322256Y1484848D01*
X2321180Y1484609D01*
X2320124Y1484290D01*
X2319093Y1483897D01*
X2318095Y1483429D01*
X2317133Y1482889D01*
X2316214Y1482280D01*
X2315340Y1481606D01*
X2314519Y1480871D01*
X2313753Y1480077D01*
X2313047Y1479229D01*
X2312407Y1478332D01*
X2311832Y1477390D01*
X2311328Y1476408D01*
X2310896Y1475394D01*
X2310540Y1474349D01*
X2310261Y1473283D01*
X2310060Y1472199D01*
X2309939Y1471102D01*
X2309899Y1470000D01*
X2309939Y1468897D01*
X2310060Y1467800D01*
X2310261Y1466716D01*
X2310540Y1465650D01*
X2310896Y1464605D01*
X2311328Y1463591D01*
X2311832Y1462609D01*
X2312407Y1461667D01*
X2313047Y1460770D01*
X2313753Y1459922D01*
X2314519Y1459128D01*
X2315340Y1458393D01*
X2316214Y1457719D01*
X2317133Y1457110D01*
X2318095Y1456570D01*
X2319093Y1456102D01*
X2320124Y1455709D01*
X2321180Y1455390D01*
X2322256Y1455151D01*
X2323347Y1454991D01*
G37*
G36*
X1469449Y1494909D02*
G01*
X1470550Y1494909D01*
X1471652Y1494991D01*
X1472743Y1495151D01*
X1473819Y1495390D01*
X1474875Y1495709D01*
X1475906Y1496102D01*
X1476904Y1496570D01*
X1477866Y1497110D01*
X1478786Y1497719D01*
X1479659Y1498393D01*
X1480480Y1499128D01*
X1481246Y1499922D01*
X1481952Y1500770D01*
X1482592Y1501667D01*
X1483167Y1502609D01*
X1483671Y1503591D01*
X1484103Y1504605D01*
X1484459Y1505650D01*
X1484738Y1506716D01*
X1484939Y1507800D01*
X1485060Y1508897D01*
X1485100Y1510000D01*
X1485060Y1511102D01*
X1484939Y1512199D01*
X1484738Y1513283D01*
X1484459Y1514349D01*
X1484103Y1515394D01*
X1483671Y1516408D01*
X1483167Y1517390D01*
X1482592Y1518332D01*
X1481952Y1519229D01*
X1481246Y1520077D01*
X1480480Y1520871D01*
X1479659Y1521606D01*
X1478786Y1522280D01*
X1477866Y1522889D01*
X1476904Y1523429D01*
X1475906Y1523897D01*
X1474875Y1524290D01*
X1473819Y1524609D01*
X1472743Y1524848D01*
X1471652Y1525009D01*
X1470550Y1525090D01*
X1469449Y1525090D01*
X1468347Y1525009D01*
X1467256Y1524848D01*
X1466180Y1524609D01*
X1465124Y1524290D01*
X1464093Y1523897D01*
X1463095Y1523429D01*
X1462133Y1522889D01*
X1461214Y1522280D01*
X1460340Y1521606D01*
X1459519Y1520871D01*
X1458753Y1520077D01*
X1458047Y1519229D01*
X1457407Y1518332D01*
X1456832Y1517390D01*
X1456328Y1516408D01*
X1455896Y1515394D01*
X1455540Y1514349D01*
X1455261Y1513283D01*
X1455060Y1512199D01*
X1454939Y1511102D01*
X1454899Y1510000D01*
X1454939Y1508897D01*
X1455060Y1507800D01*
X1455261Y1506716D01*
X1455540Y1505650D01*
X1455896Y1504605D01*
X1456328Y1503591D01*
X1456832Y1502609D01*
X1457407Y1501667D01*
X1458047Y1500770D01*
X1458753Y1499922D01*
X1459519Y1499128D01*
X1460340Y1498393D01*
X1461214Y1497719D01*
X1462133Y1497110D01*
X1463095Y1496570D01*
X1464093Y1496102D01*
X1465124Y1495709D01*
X1466180Y1495390D01*
X1467256Y1495151D01*
X1468347Y1494991D01*
G37*
G36*
X2729449Y1502440D02*
G01*
X2730550Y1502440D01*
X2731652Y1502521D01*
X2732743Y1502680D01*
X2733819Y1502921D01*
X2734875Y1503238D01*
X2735906Y1503632D01*
X2736904Y1504101D01*
X2737866Y1504641D01*
X2738786Y1505248D01*
X2739659Y1505922D01*
X2740481Y1506658D01*
X2741246Y1507453D01*
X2741952Y1508301D01*
X2742592Y1509198D01*
X2743167Y1510140D01*
X2743671Y1511120D01*
X2744103Y1512136D01*
X2744459Y1513180D01*
X2744738Y1514247D01*
X2744939Y1515331D01*
X2745060Y1516428D01*
X2745100Y1517530D01*
X2745060Y1518631D01*
X2744939Y1519729D01*
X2744738Y1520812D01*
X2744459Y1521880D01*
X2744103Y1522923D01*
X2743671Y1523939D01*
X2743167Y1524920D01*
X2742592Y1525862D01*
X2741952Y1526759D01*
X2741246Y1527606D01*
X2740481Y1528400D01*
X2739659Y1529137D01*
X2738786Y1529810D01*
X2737866Y1530419D01*
X2736904Y1530958D01*
X2735906Y1531426D01*
X2734875Y1531821D01*
X2733819Y1532139D01*
X2732743Y1532379D01*
X2731652Y1532539D01*
X2730550Y1532620D01*
X2729449Y1532620D01*
X2728347Y1532539D01*
X2727256Y1532379D01*
X2726180Y1532139D01*
X2725124Y1531821D01*
X2724093Y1531426D01*
X2723095Y1530958D01*
X2722133Y1530419D01*
X2721214Y1529810D01*
X2720340Y1529137D01*
X2719519Y1528400D01*
X2718753Y1527606D01*
X2718047Y1526759D01*
X2717407Y1525862D01*
X2716832Y1524920D01*
X2716328Y1523939D01*
X2715896Y1522923D01*
X2715540Y1521880D01*
X2715261Y1520812D01*
X2715060Y1519729D01*
X2714939Y1518631D01*
X2714899Y1517530D01*
X2714939Y1516428D01*
X2715060Y1515331D01*
X2715261Y1514247D01*
X2715540Y1513180D01*
X2715896Y1512136D01*
X2716328Y1511120D01*
X2716832Y1510140D01*
X2717407Y1509198D01*
X2718047Y1508301D01*
X2718753Y1507453D01*
X2719519Y1506658D01*
X2720340Y1505922D01*
X2721214Y1505248D01*
X2722133Y1504641D01*
X2723095Y1504101D01*
X2724093Y1503632D01*
X2725124Y1503238D01*
X2726180Y1502921D01*
X2727256Y1502680D01*
X2728347Y1502521D01*
G37*
G36*
X1449449Y1534909D02*
G01*
X1450550Y1534909D01*
X1451652Y1534991D01*
X1452743Y1535151D01*
X1453819Y1535390D01*
X1454875Y1535709D01*
X1455906Y1536102D01*
X1456904Y1536570D01*
X1457866Y1537110D01*
X1458786Y1537719D01*
X1459659Y1538393D01*
X1460480Y1539128D01*
X1461246Y1539922D01*
X1461952Y1540770D01*
X1462592Y1541667D01*
X1463167Y1542609D01*
X1463671Y1543591D01*
X1464103Y1544605D01*
X1464459Y1545650D01*
X1464738Y1546716D01*
X1464939Y1547800D01*
X1465060Y1548897D01*
X1465100Y1550000D01*
X1465060Y1551102D01*
X1464939Y1552199D01*
X1464738Y1553283D01*
X1464459Y1554349D01*
X1464103Y1555394D01*
X1463671Y1556408D01*
X1463167Y1557390D01*
X1462592Y1558332D01*
X1461952Y1559229D01*
X1461246Y1560077D01*
X1460480Y1560871D01*
X1459659Y1561606D01*
X1458786Y1562280D01*
X1457866Y1562889D01*
X1456904Y1563429D01*
X1455906Y1563897D01*
X1454875Y1564290D01*
X1453819Y1564609D01*
X1452743Y1564848D01*
X1451652Y1565009D01*
X1450550Y1565090D01*
X1449449Y1565090D01*
X1448347Y1565009D01*
X1447256Y1564848D01*
X1446180Y1564609D01*
X1445124Y1564290D01*
X1444093Y1563897D01*
X1443095Y1563429D01*
X1442133Y1562889D01*
X1441214Y1562280D01*
X1440340Y1561606D01*
X1439519Y1560871D01*
X1438753Y1560077D01*
X1438047Y1559229D01*
X1437407Y1558332D01*
X1436832Y1557390D01*
X1436328Y1556408D01*
X1435896Y1555394D01*
X1435540Y1554349D01*
X1435261Y1553283D01*
X1435060Y1552199D01*
X1434939Y1551102D01*
X1434899Y1550000D01*
X1434939Y1548897D01*
X1435060Y1547800D01*
X1435261Y1546716D01*
X1435540Y1545650D01*
X1435896Y1544605D01*
X1436328Y1543591D01*
X1436832Y1542609D01*
X1437407Y1541667D01*
X1438047Y1540770D01*
X1438753Y1539922D01*
X1439519Y1539128D01*
X1440340Y1538393D01*
X1441214Y1537719D01*
X1442133Y1537110D01*
X1443095Y1536570D01*
X1444093Y1536102D01*
X1445124Y1535709D01*
X1446180Y1535390D01*
X1447256Y1535151D01*
X1448347Y1534991D01*
G37*
G36*
X2509449Y1554909D02*
G01*
X2510550Y1554909D01*
X2511652Y1554991D01*
X2512743Y1555151D01*
X2513819Y1555390D01*
X2514875Y1555709D01*
X2515906Y1556102D01*
X2516904Y1556570D01*
X2517866Y1557110D01*
X2518786Y1557719D01*
X2519659Y1558393D01*
X2520481Y1559128D01*
X2521246Y1559922D01*
X2521952Y1560770D01*
X2522592Y1561667D01*
X2523167Y1562609D01*
X2523671Y1563591D01*
X2524103Y1564605D01*
X2524459Y1565650D01*
X2524738Y1566716D01*
X2524939Y1567800D01*
X2525060Y1568897D01*
X2525100Y1570000D01*
X2525060Y1571102D01*
X2524939Y1572199D01*
X2524738Y1573283D01*
X2524459Y1574349D01*
X2524103Y1575394D01*
X2523671Y1576408D01*
X2523167Y1577390D01*
X2522592Y1578332D01*
X2521952Y1579229D01*
X2521246Y1580077D01*
X2520481Y1580871D01*
X2519659Y1581606D01*
X2518786Y1582280D01*
X2517866Y1582889D01*
X2516904Y1583429D01*
X2515906Y1583897D01*
X2514875Y1584290D01*
X2513819Y1584609D01*
X2512743Y1584848D01*
X2511652Y1585009D01*
X2510550Y1585090D01*
X2509449Y1585090D01*
X2508347Y1585009D01*
X2507256Y1584848D01*
X2506180Y1584609D01*
X2505124Y1584290D01*
X2504093Y1583897D01*
X2503095Y1583429D01*
X2502133Y1582889D01*
X2501214Y1582280D01*
X2500340Y1581606D01*
X2499519Y1580871D01*
X2498753Y1580077D01*
X2498047Y1579229D01*
X2497407Y1578332D01*
X2496832Y1577390D01*
X2496328Y1576408D01*
X2495896Y1575394D01*
X2495540Y1574349D01*
X2495261Y1573283D01*
X2495060Y1572199D01*
X2494939Y1571102D01*
X2494899Y1570000D01*
X2494939Y1568897D01*
X2495060Y1567800D01*
X2495261Y1566716D01*
X2495540Y1565650D01*
X2495896Y1564605D01*
X2496328Y1563591D01*
X2496832Y1562609D01*
X2497407Y1561667D01*
X2498047Y1560770D01*
X2498753Y1559922D01*
X2499519Y1559128D01*
X2500340Y1558393D01*
X2501214Y1557719D01*
X2502133Y1557110D01*
X2503095Y1556570D01*
X2504093Y1556102D01*
X2505124Y1555709D01*
X2506180Y1555390D01*
X2507256Y1555151D01*
X2508347Y1554991D01*
G37*
G36*
X2319449Y1564909D02*
G01*
X2320550Y1564909D01*
X2321652Y1564991D01*
X2322743Y1565151D01*
X2323819Y1565390D01*
X2324875Y1565709D01*
X2325906Y1566102D01*
X2326904Y1566570D01*
X2327866Y1567110D01*
X2328786Y1567719D01*
X2329659Y1568393D01*
X2330481Y1569128D01*
X2331246Y1569922D01*
X2331952Y1570770D01*
X2332592Y1571667D01*
X2333167Y1572609D01*
X2333671Y1573591D01*
X2334103Y1574605D01*
X2334459Y1575650D01*
X2334738Y1576716D01*
X2334939Y1577800D01*
X2335060Y1578897D01*
X2335100Y1580000D01*
X2335060Y1581102D01*
X2334939Y1582199D01*
X2334738Y1583283D01*
X2334459Y1584349D01*
X2334103Y1585394D01*
X2333671Y1586408D01*
X2333167Y1587390D01*
X2332592Y1588332D01*
X2331952Y1589229D01*
X2331246Y1590077D01*
X2330481Y1590871D01*
X2329659Y1591606D01*
X2328786Y1592280D01*
X2327866Y1592889D01*
X2326904Y1593429D01*
X2325906Y1593897D01*
X2324875Y1594290D01*
X2323819Y1594609D01*
X2322743Y1594848D01*
X2321652Y1595009D01*
X2320550Y1595090D01*
X2319449Y1595090D01*
X2318347Y1595009D01*
X2317256Y1594848D01*
X2316180Y1594609D01*
X2315124Y1594290D01*
X2314093Y1593897D01*
X2313095Y1593429D01*
X2312133Y1592889D01*
X2311214Y1592280D01*
X2310340Y1591606D01*
X2309519Y1590871D01*
X2308753Y1590077D01*
X2308047Y1589229D01*
X2307407Y1588332D01*
X2306832Y1587390D01*
X2306328Y1586408D01*
X2305896Y1585394D01*
X2305540Y1584349D01*
X2305261Y1583283D01*
X2305060Y1582199D01*
X2304939Y1581102D01*
X2304899Y1580000D01*
X2304939Y1578897D01*
X2305060Y1577800D01*
X2305261Y1576716D01*
X2305540Y1575650D01*
X2305896Y1574605D01*
X2306328Y1573591D01*
X2306832Y1572609D01*
X2307407Y1571667D01*
X2308047Y1570770D01*
X2308753Y1569922D01*
X2309519Y1569128D01*
X2310340Y1568393D01*
X2311214Y1567719D01*
X2312133Y1567110D01*
X2313095Y1566570D01*
X2314093Y1566102D01*
X2315124Y1565709D01*
X2316180Y1565390D01*
X2317256Y1565151D01*
X2318347Y1564991D01*
G37*
G36*
X2774449Y1599909D02*
G01*
X2775550Y1599909D01*
X2776652Y1599991D01*
X2777743Y1600151D01*
X2778819Y1600390D01*
X2779875Y1600709D01*
X2780906Y1601102D01*
X2781904Y1601570D01*
X2782866Y1602110D01*
X2783786Y1602719D01*
X2784659Y1603393D01*
X2785481Y1604128D01*
X2786246Y1604922D01*
X2786952Y1605770D01*
X2787592Y1606667D01*
X2788167Y1607609D01*
X2788671Y1608591D01*
X2789103Y1609605D01*
X2789459Y1610650D01*
X2789738Y1611716D01*
X2789939Y1612800D01*
X2790060Y1613897D01*
X2790100Y1615000D01*
X2790060Y1616102D01*
X2789939Y1617199D01*
X2789738Y1618283D01*
X2789459Y1619349D01*
X2789103Y1620394D01*
X2788671Y1621408D01*
X2788167Y1622390D01*
X2787592Y1623332D01*
X2786952Y1624229D01*
X2786246Y1625077D01*
X2785481Y1625871D01*
X2784659Y1626606D01*
X2783786Y1627280D01*
X2782866Y1627889D01*
X2781904Y1628429D01*
X2780906Y1628897D01*
X2779875Y1629290D01*
X2778819Y1629609D01*
X2777743Y1629848D01*
X2776652Y1630009D01*
X2775550Y1630090D01*
X2774449Y1630090D01*
X2773347Y1630009D01*
X2772256Y1629848D01*
X2771180Y1629609D01*
X2770124Y1629290D01*
X2769093Y1628897D01*
X2768095Y1628429D01*
X2767133Y1627889D01*
X2766214Y1627280D01*
X2765340Y1626606D01*
X2764519Y1625871D01*
X2763753Y1625077D01*
X2763047Y1624229D01*
X2762407Y1623332D01*
X2761832Y1622390D01*
X2761328Y1621408D01*
X2760896Y1620394D01*
X2760540Y1619349D01*
X2760261Y1618283D01*
X2760060Y1617199D01*
X2759939Y1616102D01*
X2759899Y1615000D01*
X2759939Y1613897D01*
X2760060Y1612800D01*
X2760261Y1611716D01*
X2760540Y1610650D01*
X2760896Y1609605D01*
X2761328Y1608591D01*
X2761832Y1607609D01*
X2762407Y1606667D01*
X2763047Y1605770D01*
X2763753Y1604922D01*
X2764519Y1604128D01*
X2765340Y1603393D01*
X2766214Y1602719D01*
X2767133Y1602110D01*
X2768095Y1601570D01*
X2769093Y1601102D01*
X2770124Y1600709D01*
X2771180Y1600390D01*
X2772256Y1600151D01*
X2773347Y1599991D01*
G37*
G36*
X2479449Y1604909D02*
G01*
X2480550Y1604909D01*
X2481652Y1604991D01*
X2482743Y1605151D01*
X2483819Y1605390D01*
X2484875Y1605709D01*
X2485906Y1606102D01*
X2486904Y1606570D01*
X2487866Y1607110D01*
X2488786Y1607719D01*
X2489659Y1608393D01*
X2490481Y1609128D01*
X2491246Y1609922D01*
X2491952Y1610770D01*
X2492592Y1611667D01*
X2493167Y1612609D01*
X2493671Y1613591D01*
X2494103Y1614605D01*
X2494459Y1615650D01*
X2494738Y1616716D01*
X2494939Y1617800D01*
X2495060Y1618897D01*
X2495100Y1620000D01*
X2495060Y1621102D01*
X2494939Y1622199D01*
X2494738Y1623283D01*
X2494459Y1624349D01*
X2494103Y1625394D01*
X2493671Y1626408D01*
X2493167Y1627390D01*
X2492592Y1628332D01*
X2491952Y1629229D01*
X2491246Y1630077D01*
X2490481Y1630871D01*
X2489659Y1631606D01*
X2488786Y1632280D01*
X2487866Y1632889D01*
X2486904Y1633429D01*
X2485906Y1633897D01*
X2484875Y1634290D01*
X2483819Y1634609D01*
X2482743Y1634848D01*
X2481652Y1635009D01*
X2480550Y1635090D01*
X2479449Y1635090D01*
X2478347Y1635009D01*
X2477256Y1634848D01*
X2476180Y1634609D01*
X2475124Y1634290D01*
X2474093Y1633897D01*
X2473095Y1633429D01*
X2472133Y1632889D01*
X2471214Y1632280D01*
X2470340Y1631606D01*
X2469519Y1630871D01*
X2468753Y1630077D01*
X2468047Y1629229D01*
X2467407Y1628332D01*
X2466832Y1627390D01*
X2466328Y1626408D01*
X2465896Y1625394D01*
X2465540Y1624349D01*
X2465261Y1623283D01*
X2465060Y1622199D01*
X2464939Y1621102D01*
X2464899Y1620000D01*
X2464939Y1618897D01*
X2465060Y1617800D01*
X2465261Y1616716D01*
X2465540Y1615650D01*
X2465896Y1614605D01*
X2466328Y1613591D01*
X2466832Y1612609D01*
X2467407Y1611667D01*
X2468047Y1610770D01*
X2468753Y1609922D01*
X2469519Y1609128D01*
X2470340Y1608393D01*
X2471214Y1607719D01*
X2472133Y1607110D01*
X2473095Y1606570D01*
X2474093Y1606102D01*
X2475124Y1605709D01*
X2476180Y1605390D01*
X2477256Y1605151D01*
X2478347Y1604991D01*
G37*
G36*
X569448Y1624909D02*
G01*
X570551Y1624909D01*
X571651Y1624991D01*
X572743Y1625151D01*
X573818Y1625390D01*
X574875Y1625709D01*
X575906Y1626102D01*
X576903Y1626570D01*
X577865Y1627110D01*
X578786Y1627719D01*
X579659Y1628393D01*
X580480Y1629128D01*
X581246Y1629922D01*
X581952Y1630770D01*
X582593Y1631667D01*
X583168Y1632609D01*
X583672Y1633591D01*
X584104Y1634605D01*
X584459Y1635650D01*
X584738Y1636716D01*
X584938Y1637800D01*
X585059Y1638897D01*
X585100Y1640000D01*
X585059Y1641102D01*
X584938Y1642199D01*
X584738Y1643283D01*
X584459Y1644349D01*
X584104Y1645394D01*
X583672Y1646408D01*
X583168Y1647390D01*
X582593Y1648332D01*
X581952Y1649229D01*
X581246Y1650077D01*
X580480Y1650871D01*
X579659Y1651606D01*
X578786Y1652280D01*
X577865Y1652889D01*
X576903Y1653429D01*
X575906Y1653897D01*
X574875Y1654290D01*
X573818Y1654609D01*
X572743Y1654848D01*
X571651Y1655009D01*
X570551Y1655090D01*
X569448Y1655090D01*
X568348Y1655009D01*
X567256Y1654848D01*
X566181Y1654609D01*
X565124Y1654290D01*
X564094Y1653897D01*
X563096Y1653429D01*
X562134Y1652889D01*
X561214Y1652280D01*
X560340Y1651606D01*
X559519Y1650871D01*
X558753Y1650077D01*
X558047Y1649229D01*
X557406Y1648332D01*
X556831Y1647390D01*
X556327Y1646408D01*
X555895Y1645394D01*
X555540Y1644349D01*
X555261Y1643283D01*
X555061Y1642199D01*
X554940Y1641102D01*
X554899Y1640000D01*
X554940Y1638897D01*
X555061Y1637800D01*
X555261Y1636716D01*
X555540Y1635650D01*
X555895Y1634605D01*
X556327Y1633591D01*
X556831Y1632609D01*
X557406Y1631667D01*
X558047Y1630770D01*
X558753Y1629922D01*
X559519Y1629128D01*
X560340Y1628393D01*
X561214Y1627719D01*
X562134Y1627110D01*
X563096Y1626570D01*
X564094Y1626102D01*
X565124Y1625709D01*
X566181Y1625390D01*
X567256Y1625151D01*
X568348Y1624991D01*
G37*
G36*
X1244449Y1644909D02*
G01*
X1245550Y1644909D01*
X1246652Y1644991D01*
X1247743Y1645151D01*
X1248819Y1645390D01*
X1249875Y1645709D01*
X1250906Y1646102D01*
X1251904Y1646570D01*
X1252866Y1647110D01*
X1253786Y1647719D01*
X1254659Y1648393D01*
X1255480Y1649128D01*
X1256246Y1649922D01*
X1256952Y1650770D01*
X1257592Y1651667D01*
X1258167Y1652609D01*
X1258671Y1653591D01*
X1259103Y1654605D01*
X1259459Y1655650D01*
X1259738Y1656716D01*
X1259939Y1657800D01*
X1260060Y1658897D01*
X1260100Y1660000D01*
X1260060Y1661102D01*
X1259939Y1662199D01*
X1259738Y1663283D01*
X1259459Y1664349D01*
X1259103Y1665394D01*
X1258671Y1666408D01*
X1258167Y1667390D01*
X1257592Y1668332D01*
X1256952Y1669229D01*
X1256246Y1670077D01*
X1255480Y1670871D01*
X1254659Y1671606D01*
X1253786Y1672280D01*
X1252866Y1672889D01*
X1251904Y1673429D01*
X1250906Y1673897D01*
X1249875Y1674290D01*
X1248819Y1674609D01*
X1247743Y1674848D01*
X1246652Y1675009D01*
X1245550Y1675090D01*
X1244449Y1675090D01*
X1243347Y1675009D01*
X1242256Y1674848D01*
X1241180Y1674609D01*
X1240124Y1674290D01*
X1239093Y1673897D01*
X1238095Y1673429D01*
X1237133Y1672889D01*
X1236214Y1672280D01*
X1235340Y1671606D01*
X1234519Y1670871D01*
X1233753Y1670077D01*
X1233047Y1669229D01*
X1232407Y1668332D01*
X1231832Y1667390D01*
X1231328Y1666408D01*
X1230896Y1665394D01*
X1230540Y1664349D01*
X1230261Y1663283D01*
X1230060Y1662199D01*
X1229939Y1661102D01*
X1229899Y1660000D01*
X1229939Y1658897D01*
X1230060Y1657800D01*
X1230261Y1656716D01*
X1230540Y1655650D01*
X1230896Y1654605D01*
X1231328Y1653591D01*
X1231832Y1652609D01*
X1232407Y1651667D01*
X1233047Y1650770D01*
X1233753Y1649922D01*
X1234519Y1649128D01*
X1235340Y1648393D01*
X1236214Y1647719D01*
X1237133Y1647110D01*
X1238095Y1646570D01*
X1239093Y1646102D01*
X1240124Y1645709D01*
X1241180Y1645390D01*
X1242256Y1645151D01*
X1243347Y1644991D01*
G37*
G36*
X1469449Y1694909D02*
G01*
X1470550Y1694909D01*
X1471652Y1694991D01*
X1472743Y1695151D01*
X1473819Y1695390D01*
X1474875Y1695709D01*
X1475906Y1696102D01*
X1476904Y1696570D01*
X1477866Y1697110D01*
X1478786Y1697719D01*
X1479659Y1698393D01*
X1480480Y1699128D01*
X1481246Y1699922D01*
X1481952Y1700770D01*
X1482592Y1701667D01*
X1483167Y1702609D01*
X1483671Y1703591D01*
X1484103Y1704605D01*
X1484459Y1705650D01*
X1484738Y1706716D01*
X1484939Y1707800D01*
X1485060Y1708897D01*
X1485100Y1710000D01*
X1485060Y1711102D01*
X1484939Y1712199D01*
X1484738Y1713283D01*
X1484459Y1714349D01*
X1484103Y1715394D01*
X1483671Y1716408D01*
X1483167Y1717390D01*
X1482592Y1718332D01*
X1481952Y1719229D01*
X1481246Y1720077D01*
X1480480Y1720871D01*
X1479659Y1721606D01*
X1478786Y1722280D01*
X1477866Y1722889D01*
X1476904Y1723429D01*
X1475906Y1723897D01*
X1474875Y1724290D01*
X1473819Y1724609D01*
X1472743Y1724848D01*
X1471652Y1725009D01*
X1470550Y1725090D01*
X1469449Y1725090D01*
X1468347Y1725009D01*
X1467256Y1724848D01*
X1466180Y1724609D01*
X1465124Y1724290D01*
X1464093Y1723897D01*
X1463095Y1723429D01*
X1462133Y1722889D01*
X1461214Y1722280D01*
X1460340Y1721606D01*
X1459519Y1720871D01*
X1458753Y1720077D01*
X1458047Y1719229D01*
X1457407Y1718332D01*
X1456832Y1717390D01*
X1456328Y1716408D01*
X1455896Y1715394D01*
X1455540Y1714349D01*
X1455261Y1713283D01*
X1455060Y1712199D01*
X1454939Y1711102D01*
X1454899Y1710000D01*
X1454939Y1708897D01*
X1455060Y1707800D01*
X1455261Y1706716D01*
X1455540Y1705650D01*
X1455896Y1704605D01*
X1456328Y1703591D01*
X1456832Y1702609D01*
X1457407Y1701667D01*
X1458047Y1700770D01*
X1458753Y1699922D01*
X1459519Y1699128D01*
X1460340Y1698393D01*
X1461214Y1697719D01*
X1462133Y1697110D01*
X1463095Y1696570D01*
X1464093Y1696102D01*
X1465124Y1695709D01*
X1466180Y1695390D01*
X1467256Y1695151D01*
X1468347Y1694991D01*
G37*
G36*
X1229449Y1704909D02*
G01*
X1230550Y1704909D01*
X1231652Y1704991D01*
X1232743Y1705151D01*
X1233819Y1705390D01*
X1234875Y1705709D01*
X1235906Y1706102D01*
X1236904Y1706570D01*
X1237866Y1707110D01*
X1238786Y1707719D01*
X1239659Y1708393D01*
X1240480Y1709128D01*
X1241246Y1709922D01*
X1241952Y1710770D01*
X1242592Y1711667D01*
X1243167Y1712609D01*
X1243671Y1713591D01*
X1244103Y1714605D01*
X1244459Y1715650D01*
X1244738Y1716716D01*
X1244939Y1717800D01*
X1245060Y1718897D01*
X1245100Y1720000D01*
X1245060Y1721102D01*
X1244939Y1722199D01*
X1244738Y1723283D01*
X1244459Y1724349D01*
X1244103Y1725394D01*
X1243671Y1726408D01*
X1243167Y1727390D01*
X1242592Y1728332D01*
X1241952Y1729229D01*
X1241246Y1730077D01*
X1240480Y1730871D01*
X1239659Y1731606D01*
X1238786Y1732280D01*
X1237866Y1732889D01*
X1236904Y1733429D01*
X1235906Y1733897D01*
X1234875Y1734290D01*
X1233819Y1734609D01*
X1232743Y1734848D01*
X1231652Y1735009D01*
X1230550Y1735090D01*
X1229449Y1735090D01*
X1228347Y1735009D01*
X1227256Y1734848D01*
X1226180Y1734609D01*
X1225124Y1734290D01*
X1224093Y1733897D01*
X1223095Y1733429D01*
X1222133Y1732889D01*
X1221214Y1732280D01*
X1220340Y1731606D01*
X1219519Y1730871D01*
X1218753Y1730077D01*
X1218047Y1729229D01*
X1217407Y1728332D01*
X1216832Y1727390D01*
X1216328Y1726408D01*
X1215896Y1725394D01*
X1215540Y1724349D01*
X1215261Y1723283D01*
X1215060Y1722199D01*
X1214939Y1721102D01*
X1214899Y1720000D01*
X1214939Y1718897D01*
X1215060Y1717800D01*
X1215261Y1716716D01*
X1215540Y1715650D01*
X1215896Y1714605D01*
X1216328Y1713591D01*
X1216832Y1712609D01*
X1217407Y1711667D01*
X1218047Y1710770D01*
X1218753Y1709922D01*
X1219519Y1709128D01*
X1220340Y1708393D01*
X1221214Y1707719D01*
X1222133Y1707110D01*
X1223095Y1706570D01*
X1224093Y1706102D01*
X1225124Y1705709D01*
X1226180Y1705390D01*
X1227256Y1705151D01*
X1228347Y1704991D01*
G37*
G36*
X1189449Y1709909D02*
G01*
X1190550Y1709909D01*
X1191652Y1709991D01*
X1192743Y1710151D01*
X1193819Y1710390D01*
X1194875Y1710709D01*
X1195906Y1711102D01*
X1196904Y1711570D01*
X1197866Y1712110D01*
X1198786Y1712719D01*
X1199659Y1713393D01*
X1200480Y1714128D01*
X1201246Y1714922D01*
X1201952Y1715770D01*
X1202592Y1716667D01*
X1203167Y1717609D01*
X1203671Y1718591D01*
X1204103Y1719605D01*
X1204459Y1720650D01*
X1204738Y1721716D01*
X1204939Y1722800D01*
X1205060Y1723897D01*
X1205100Y1725000D01*
X1205060Y1726102D01*
X1204939Y1727199D01*
X1204738Y1728283D01*
X1204459Y1729349D01*
X1204103Y1730394D01*
X1203671Y1731408D01*
X1203167Y1732390D01*
X1202592Y1733332D01*
X1201952Y1734229D01*
X1201246Y1735077D01*
X1200480Y1735871D01*
X1199659Y1736606D01*
X1198786Y1737280D01*
X1197866Y1737889D01*
X1196904Y1738429D01*
X1195906Y1738897D01*
X1194875Y1739290D01*
X1193819Y1739609D01*
X1192743Y1739848D01*
X1191652Y1740009D01*
X1190550Y1740090D01*
X1189449Y1740090D01*
X1188347Y1740009D01*
X1187256Y1739848D01*
X1186180Y1739609D01*
X1185124Y1739290D01*
X1184093Y1738897D01*
X1183095Y1738429D01*
X1182133Y1737889D01*
X1181214Y1737280D01*
X1180340Y1736606D01*
X1179519Y1735871D01*
X1178753Y1735077D01*
X1178047Y1734229D01*
X1177407Y1733332D01*
X1176832Y1732390D01*
X1176328Y1731408D01*
X1175896Y1730394D01*
X1175540Y1729349D01*
X1175261Y1728283D01*
X1175060Y1727199D01*
X1174939Y1726102D01*
X1174899Y1725000D01*
X1174939Y1723897D01*
X1175060Y1722800D01*
X1175261Y1721716D01*
X1175540Y1720650D01*
X1175896Y1719605D01*
X1176328Y1718591D01*
X1176832Y1717609D01*
X1177407Y1716667D01*
X1178047Y1715770D01*
X1178753Y1714922D01*
X1179519Y1714128D01*
X1180340Y1713393D01*
X1181214Y1712719D01*
X1182133Y1712110D01*
X1183095Y1711570D01*
X1184093Y1711102D01*
X1185124Y1710709D01*
X1186180Y1710390D01*
X1187256Y1710151D01*
X1188347Y1709991D01*
G37*
G36*
X1954449Y1709909D02*
G01*
X1955550Y1709909D01*
X1956652Y1709991D01*
X1957743Y1710151D01*
X1958819Y1710390D01*
X1959875Y1710709D01*
X1960906Y1711102D01*
X1961904Y1711570D01*
X1962866Y1712110D01*
X1963786Y1712719D01*
X1964659Y1713393D01*
X1965480Y1714128D01*
X1966246Y1714922D01*
X1966952Y1715770D01*
X1967592Y1716667D01*
X1968167Y1717609D01*
X1968671Y1718591D01*
X1969103Y1719605D01*
X1969459Y1720650D01*
X1969738Y1721716D01*
X1969939Y1722800D01*
X1970060Y1723897D01*
X1970100Y1725000D01*
X1970060Y1726102D01*
X1969939Y1727199D01*
X1969738Y1728283D01*
X1969459Y1729349D01*
X1969103Y1730394D01*
X1968671Y1731408D01*
X1968167Y1732390D01*
X1967592Y1733332D01*
X1966952Y1734229D01*
X1966246Y1735077D01*
X1965480Y1735871D01*
X1964659Y1736606D01*
X1963786Y1737280D01*
X1962866Y1737889D01*
X1961904Y1738429D01*
X1960906Y1738897D01*
X1959875Y1739290D01*
X1958819Y1739609D01*
X1957743Y1739848D01*
X1956652Y1740009D01*
X1955550Y1740090D01*
X1954449Y1740090D01*
X1953347Y1740009D01*
X1952256Y1739848D01*
X1951180Y1739609D01*
X1950124Y1739290D01*
X1949093Y1738897D01*
X1948095Y1738429D01*
X1947133Y1737889D01*
X1946214Y1737280D01*
X1945340Y1736606D01*
X1944519Y1735871D01*
X1943753Y1735077D01*
X1943047Y1734229D01*
X1942407Y1733332D01*
X1941832Y1732390D01*
X1941328Y1731408D01*
X1940896Y1730394D01*
X1940540Y1729349D01*
X1940261Y1728283D01*
X1940060Y1727199D01*
X1939939Y1726102D01*
X1939899Y1725000D01*
X1939939Y1723897D01*
X1940060Y1722800D01*
X1940261Y1721716D01*
X1940540Y1720650D01*
X1940896Y1719605D01*
X1941328Y1718591D01*
X1941832Y1717609D01*
X1942407Y1716667D01*
X1943047Y1715770D01*
X1943753Y1714922D01*
X1944519Y1714128D01*
X1945340Y1713393D01*
X1946214Y1712719D01*
X1947133Y1712110D01*
X1948095Y1711570D01*
X1949093Y1711102D01*
X1950124Y1710709D01*
X1951180Y1710390D01*
X1952256Y1710151D01*
X1953347Y1709991D01*
G37*
G36*
X629448Y1854909D02*
G01*
X630551Y1854909D01*
X631651Y1854991D01*
X632743Y1855151D01*
X633818Y1855390D01*
X634875Y1855709D01*
X635906Y1856102D01*
X636903Y1856570D01*
X637865Y1857110D01*
X638786Y1857719D01*
X639659Y1858393D01*
X640480Y1859128D01*
X641246Y1859922D01*
X641952Y1860770D01*
X642593Y1861667D01*
X643168Y1862609D01*
X643672Y1863591D01*
X644104Y1864605D01*
X644459Y1865650D01*
X644738Y1866716D01*
X644938Y1867800D01*
X645059Y1868897D01*
X645100Y1870000D01*
X645059Y1871102D01*
X644938Y1872199D01*
X644738Y1873283D01*
X644459Y1874349D01*
X644104Y1875394D01*
X643672Y1876408D01*
X643168Y1877390D01*
X642593Y1878332D01*
X641952Y1879229D01*
X641246Y1880077D01*
X640480Y1880871D01*
X639659Y1881606D01*
X638786Y1882280D01*
X637865Y1882889D01*
X636903Y1883429D01*
X635906Y1883897D01*
X634875Y1884290D01*
X633818Y1884609D01*
X632743Y1884848D01*
X631651Y1885009D01*
X630551Y1885090D01*
X629448Y1885090D01*
X628348Y1885009D01*
X627256Y1884848D01*
X626181Y1884609D01*
X625124Y1884290D01*
X624094Y1883897D01*
X623096Y1883429D01*
X622134Y1882889D01*
X621214Y1882280D01*
X620340Y1881606D01*
X619519Y1880871D01*
X618753Y1880077D01*
X618047Y1879229D01*
X617406Y1878332D01*
X616831Y1877390D01*
X616327Y1876408D01*
X615895Y1875394D01*
X615540Y1874349D01*
X615261Y1873283D01*
X615061Y1872199D01*
X614940Y1871102D01*
X614899Y1870000D01*
X614940Y1868897D01*
X615061Y1867800D01*
X615261Y1866716D01*
X615540Y1865650D01*
X615895Y1864605D01*
X616327Y1863591D01*
X616831Y1862609D01*
X617406Y1861667D01*
X618047Y1860770D01*
X618753Y1859922D01*
X619519Y1859128D01*
X620340Y1858393D01*
X621214Y1857719D01*
X622134Y1857110D01*
X623096Y1856570D01*
X624094Y1856102D01*
X625124Y1855709D01*
X626181Y1855390D01*
X627256Y1855151D01*
X628348Y1854991D01*
G37*
G36*
X502564Y1870511D02*
G01*
X502669Y1870527D01*
X503829Y1870731D01*
X503976Y1870761D01*
X505124Y1871023D01*
X505268Y1871060D01*
X506403Y1871379D01*
X506549Y1871424D01*
X507665Y1871799D01*
X507802Y1871849D01*
X508899Y1872280D01*
X509038Y1872337D01*
X510111Y1872822D01*
X510246Y1872887D01*
X511295Y1873425D01*
X511424Y1873497D01*
X512444Y1874086D01*
X512572Y1874162D01*
X513562Y1874801D01*
X513685Y1874886D01*
X514641Y1875574D01*
X514760Y1875664D01*
X515682Y1876397D01*
X515797Y1876496D01*
X516680Y1877276D01*
X516788Y1877375D01*
X517631Y1878198D01*
X517737Y1878305D01*
X518539Y1879169D01*
X518636Y1879281D01*
X519394Y1880183D01*
X519486Y1880299D01*
X520198Y1881237D01*
X520286Y1881361D01*
X520949Y1882334D01*
X521030Y1882460D01*
X521644Y1883465D01*
X521718Y1883591D01*
X522283Y1884625D01*
X522352Y1884762D01*
X522480Y1885028D01*
X502564Y1885028D01*
G37*
G36*
X463195Y1870511D02*
G01*
X463195Y1885028D01*
X443279Y1885028D01*
X443407Y1884762D01*
X443476Y1884625D01*
X444041Y1883591D01*
X444115Y1883465D01*
X444729Y1882460D01*
X444810Y1882334D01*
X445473Y1881361D01*
X445561Y1881237D01*
X446273Y1880299D01*
X446365Y1880183D01*
X447123Y1879281D01*
X447220Y1879169D01*
X448022Y1878305D01*
X448128Y1878198D01*
X448971Y1877375D01*
X449079Y1877276D01*
X449962Y1876496D01*
X450077Y1876397D01*
X450999Y1875664D01*
X451118Y1875574D01*
X452073Y1874886D01*
X452197Y1874801D01*
X453188Y1874162D01*
X453314Y1874086D01*
X454335Y1873497D01*
X454465Y1873425D01*
X455513Y1872887D01*
X455648Y1872822D01*
X456721Y1872337D01*
X456860Y1872280D01*
X457957Y1871849D01*
X458094Y1871799D01*
X459211Y1871424D01*
X459357Y1871379D01*
X460491Y1871060D01*
X460635Y1871023D01*
X461783Y1870761D01*
X461930Y1870731D01*
X463090Y1870527D01*
G37*
G36*
X336026Y1870888D02*
G01*
X336617Y1871023D01*
X336761Y1871060D01*
X337896Y1871379D01*
X338042Y1871424D01*
X339158Y1871799D01*
X339295Y1871849D01*
X340392Y1872280D01*
X340531Y1872337D01*
X341604Y1872822D01*
X341739Y1872887D01*
X342788Y1873425D01*
X342917Y1873497D01*
X343937Y1874086D01*
X344065Y1874162D01*
X345055Y1874801D01*
X345178Y1874886D01*
X346134Y1875574D01*
X346253Y1875664D01*
X347175Y1876397D01*
X347291Y1876496D01*
X348173Y1877276D01*
X348281Y1877375D01*
X349124Y1878198D01*
X349230Y1878305D01*
X350032Y1879169D01*
X350129Y1879281D01*
X350886Y1880183D01*
X350979Y1880299D01*
X351691Y1881237D01*
X351779Y1881361D01*
X352442Y1882334D01*
X352523Y1882460D01*
X353137Y1883465D01*
X353211Y1883591D01*
X353775Y1884625D01*
X353845Y1884762D01*
X353973Y1885028D01*
X336026Y1885028D01*
G37*
G36*
X300592Y1870888D02*
G01*
X300592Y1885028D01*
X282647Y1885028D01*
X282775Y1884762D01*
X282844Y1884625D01*
X283407Y1883591D01*
X283481Y1883465D01*
X284095Y1882460D01*
X284176Y1882334D01*
X284839Y1881361D01*
X284929Y1881237D01*
X285641Y1880299D01*
X285733Y1880183D01*
X286489Y1879281D01*
X286588Y1879169D01*
X287388Y1878305D01*
X287494Y1878198D01*
X288337Y1877375D01*
X288445Y1877276D01*
X289328Y1876496D01*
X289445Y1876397D01*
X290365Y1875664D01*
X290484Y1875574D01*
X291440Y1874886D01*
X291565Y1874801D01*
X292555Y1874162D01*
X292681Y1874086D01*
X293701Y1873497D01*
X293832Y1873425D01*
X294879Y1872887D01*
X295016Y1872822D01*
X296089Y1872337D01*
X296228Y1872280D01*
X297325Y1871849D01*
X297462Y1871799D01*
X298578Y1871424D01*
X298724Y1871379D01*
X299857Y1871060D01*
X300001Y1871023D01*
G37*
G36*
X502564Y1908650D02*
G01*
X522480Y1908650D01*
X522352Y1908917D01*
X522283Y1909054D01*
X521718Y1910088D01*
X521644Y1910214D01*
X521030Y1911219D01*
X520949Y1911345D01*
X520286Y1912318D01*
X520198Y1912442D01*
X519486Y1913380D01*
X519394Y1913497D01*
X518636Y1914398D01*
X518539Y1914510D01*
X517737Y1915374D01*
X517631Y1915482D01*
X516788Y1916304D01*
X516680Y1916404D01*
X515797Y1917184D01*
X515682Y1917282D01*
X514760Y1918015D01*
X514641Y1918105D01*
X513685Y1918793D01*
X513562Y1918877D01*
X512572Y1919517D01*
X512444Y1919594D01*
X511424Y1920183D01*
X511295Y1920254D01*
X510246Y1920792D01*
X510111Y1920857D01*
X509038Y1921341D01*
X508899Y1921399D01*
X507802Y1921830D01*
X507665Y1921880D01*
X506549Y1922256D01*
X506403Y1922301D01*
X505268Y1922620D01*
X505124Y1922656D01*
X503976Y1922919D01*
X503829Y1922948D01*
X502669Y1923153D01*
X502564Y1923168D01*
G37*
G36*
X443279Y1908650D02*
G01*
X463195Y1908650D01*
X463195Y1923168D01*
X463090Y1923153D01*
X461930Y1922948D01*
X461783Y1922919D01*
X460635Y1922656D01*
X460491Y1922620D01*
X459357Y1922301D01*
X459211Y1922256D01*
X458094Y1921880D01*
X457957Y1921830D01*
X456860Y1921399D01*
X456721Y1921341D01*
X455648Y1920857D01*
X455513Y1920792D01*
X454465Y1920254D01*
X454335Y1920183D01*
X453314Y1919594D01*
X453188Y1919517D01*
X452197Y1918877D01*
X452073Y1918793D01*
X451118Y1918105D01*
X450999Y1918015D01*
X450077Y1917282D01*
X449962Y1917184D01*
X449079Y1916404D01*
X448971Y1916304D01*
X448128Y1915482D01*
X448022Y1915374D01*
X447220Y1914510D01*
X447123Y1914398D01*
X446365Y1913497D01*
X446273Y1913380D01*
X445561Y1912442D01*
X445473Y1912318D01*
X444810Y1911345D01*
X444729Y1911219D01*
X444115Y1910214D01*
X444041Y1910088D01*
X443476Y1909054D01*
X443407Y1908917D01*
G37*
G36*
X336026Y1908650D02*
G01*
X353973Y1908650D01*
X353845Y1908917D01*
X353775Y1909054D01*
X353211Y1910088D01*
X353137Y1910214D01*
X352523Y1911219D01*
X352442Y1911345D01*
X351779Y1912318D01*
X351691Y1912442D01*
X350979Y1913380D01*
X350886Y1913497D01*
X350129Y1914398D01*
X350032Y1914510D01*
X349230Y1915374D01*
X349124Y1915482D01*
X348281Y1916304D01*
X348173Y1916404D01*
X347291Y1917184D01*
X347175Y1917282D01*
X346253Y1918015D01*
X346134Y1918105D01*
X345178Y1918793D01*
X345055Y1918877D01*
X344065Y1919517D01*
X343937Y1919594D01*
X342917Y1920183D01*
X342788Y1920254D01*
X341739Y1920792D01*
X341604Y1920857D01*
X340531Y1921341D01*
X340392Y1921399D01*
X339295Y1921830D01*
X339158Y1921880D01*
X338042Y1922256D01*
X337896Y1922301D01*
X336761Y1922620D01*
X336617Y1922656D01*
X336026Y1922791D01*
G37*
G36*
X282647Y1908650D02*
G01*
X300592Y1908650D01*
X300592Y1922791D01*
X300001Y1922656D01*
X299857Y1922620D01*
X298724Y1922301D01*
X298578Y1922256D01*
X297462Y1921880D01*
X297325Y1921830D01*
X296228Y1921399D01*
X296089Y1921341D01*
X295016Y1920857D01*
X294879Y1920792D01*
X293832Y1920254D01*
X293701Y1920183D01*
X292681Y1919594D01*
X292555Y1919517D01*
X291565Y1918877D01*
X291440Y1918793D01*
X290484Y1918105D01*
X290365Y1918015D01*
X289445Y1917282D01*
X289328Y1917184D01*
X288445Y1916404D01*
X288337Y1916304D01*
X287494Y1915482D01*
X287388Y1915374D01*
X286588Y1914510D01*
X286489Y1914398D01*
X285733Y1913497D01*
X285641Y1913380D01*
X284929Y1912442D01*
X284839Y1912318D01*
X284176Y1911345D01*
X284095Y1911219D01*
X283481Y1910214D01*
X283407Y1910088D01*
X282844Y1909054D01*
X282775Y1908917D01*
G37*
G36*
X1644449Y1909909D02*
G01*
X1645550Y1909909D01*
X1646652Y1909991D01*
X1647743Y1910151D01*
X1648819Y1910390D01*
X1649875Y1910709D01*
X1650906Y1911102D01*
X1651904Y1911570D01*
X1652866Y1912110D01*
X1653786Y1912719D01*
X1654659Y1913393D01*
X1655480Y1914128D01*
X1656246Y1914922D01*
X1656952Y1915770D01*
X1657592Y1916667D01*
X1658167Y1917609D01*
X1658671Y1918591D01*
X1659103Y1919605D01*
X1659459Y1920650D01*
X1659738Y1921716D01*
X1659939Y1922800D01*
X1660060Y1923897D01*
X1660100Y1925000D01*
X1660060Y1926102D01*
X1659939Y1927199D01*
X1659738Y1928283D01*
X1659459Y1929349D01*
X1659103Y1930394D01*
X1658671Y1931408D01*
X1658167Y1932390D01*
X1657592Y1933332D01*
X1656952Y1934229D01*
X1656246Y1935077D01*
X1655480Y1935871D01*
X1654659Y1936606D01*
X1653786Y1937280D01*
X1652866Y1937889D01*
X1651904Y1938429D01*
X1650906Y1938897D01*
X1649875Y1939290D01*
X1648819Y1939609D01*
X1647743Y1939848D01*
X1646652Y1940009D01*
X1645550Y1940090D01*
X1644449Y1940090D01*
X1643347Y1940009D01*
X1642256Y1939848D01*
X1641180Y1939609D01*
X1640124Y1939290D01*
X1639093Y1938897D01*
X1638095Y1938429D01*
X1637133Y1937889D01*
X1636214Y1937280D01*
X1635340Y1936606D01*
X1634519Y1935871D01*
X1633753Y1935077D01*
X1633047Y1934229D01*
X1632407Y1933332D01*
X1631832Y1932390D01*
X1631328Y1931408D01*
X1630896Y1930394D01*
X1630540Y1929349D01*
X1630261Y1928283D01*
X1630060Y1927199D01*
X1629939Y1926102D01*
X1629899Y1925000D01*
X1629939Y1923897D01*
X1630060Y1922800D01*
X1630261Y1921716D01*
X1630540Y1920650D01*
X1630896Y1919605D01*
X1631328Y1918591D01*
X1631832Y1917609D01*
X1632407Y1916667D01*
X1633047Y1915770D01*
X1633753Y1914922D01*
X1634519Y1914128D01*
X1635340Y1913393D01*
X1636214Y1912719D01*
X1637133Y1912110D01*
X1638095Y1911570D01*
X1639093Y1911102D01*
X1640124Y1910709D01*
X1641180Y1910390D01*
X1642256Y1910151D01*
X1643347Y1909991D01*
G37*
G36*
X1604449Y1929909D02*
G01*
X1605550Y1929909D01*
X1606652Y1929991D01*
X1607743Y1930151D01*
X1608819Y1930390D01*
X1609875Y1930709D01*
X1610906Y1931102D01*
X1611904Y1931570D01*
X1612866Y1932110D01*
X1613786Y1932719D01*
X1614659Y1933393D01*
X1615480Y1934128D01*
X1616246Y1934922D01*
X1616952Y1935770D01*
X1617592Y1936667D01*
X1618167Y1937609D01*
X1618671Y1938591D01*
X1619103Y1939605D01*
X1619459Y1940650D01*
X1619738Y1941716D01*
X1619939Y1942800D01*
X1620060Y1943897D01*
X1620100Y1945000D01*
X1620060Y1946102D01*
X1619939Y1947199D01*
X1619738Y1948283D01*
X1619459Y1949349D01*
X1619103Y1950394D01*
X1618671Y1951408D01*
X1618167Y1952390D01*
X1617592Y1953332D01*
X1616952Y1954229D01*
X1616246Y1955077D01*
X1615480Y1955871D01*
X1614659Y1956606D01*
X1613786Y1957280D01*
X1612866Y1957889D01*
X1611904Y1958429D01*
X1610906Y1958897D01*
X1609875Y1959290D01*
X1608819Y1959609D01*
X1607743Y1959848D01*
X1606652Y1960009D01*
X1605550Y1960090D01*
X1604449Y1960090D01*
X1603347Y1960009D01*
X1602256Y1959848D01*
X1601180Y1959609D01*
X1600124Y1959290D01*
X1599093Y1958897D01*
X1598095Y1958429D01*
X1597133Y1957889D01*
X1596214Y1957280D01*
X1595340Y1956606D01*
X1594519Y1955871D01*
X1593753Y1955077D01*
X1593047Y1954229D01*
X1592407Y1953332D01*
X1591832Y1952390D01*
X1591328Y1951408D01*
X1590896Y1950394D01*
X1590540Y1949349D01*
X1590261Y1948283D01*
X1590060Y1947199D01*
X1589939Y1946102D01*
X1589899Y1945000D01*
X1589939Y1943897D01*
X1590060Y1942800D01*
X1590261Y1941716D01*
X1590540Y1940650D01*
X1590896Y1939605D01*
X1591328Y1938591D01*
X1591832Y1937609D01*
X1592407Y1936667D01*
X1593047Y1935770D01*
X1593753Y1934922D01*
X1594519Y1934128D01*
X1595340Y1933393D01*
X1596214Y1932719D01*
X1597133Y1932110D01*
X1598095Y1931570D01*
X1599093Y1931102D01*
X1600124Y1930709D01*
X1601180Y1930390D01*
X1602256Y1930151D01*
X1603347Y1929991D01*
G37*
G36*
X461718Y1936262D02*
G01*
X462883Y1936282D01*
X464045Y1936383D01*
X465196Y1936563D01*
X466332Y1936822D01*
X467447Y1937159D01*
X468537Y1937573D01*
X469594Y1938060D01*
X470617Y1938620D01*
X471599Y1939247D01*
X472534Y1939942D01*
X473420Y1940700D01*
X474250Y1941516D01*
X475023Y1942388D01*
X475734Y1943312D01*
X476379Y1944283D01*
X476956Y1945295D01*
X477462Y1946345D01*
X477894Y1947428D01*
X478249Y1948537D01*
X478528Y1949668D01*
X478728Y1950815D01*
X478850Y1951975D01*
X478890Y1953139D01*
X478850Y1954304D01*
X478728Y1955464D01*
X478528Y1956612D01*
X478249Y1957743D01*
X477894Y1958852D01*
X477462Y1959935D01*
X476956Y1960985D01*
X476379Y1961997D01*
X475734Y1962966D01*
X475023Y1963890D01*
X474250Y1964762D01*
X473420Y1965580D01*
X472534Y1966336D01*
X471599Y1967031D01*
X470617Y1967660D01*
X469594Y1968220D01*
X468537Y1968706D01*
X467447Y1969119D01*
X466332Y1969457D01*
X465196Y1969717D01*
X464045Y1969897D01*
X462883Y1969996D01*
X461718Y1970016D01*
X460554Y1969956D01*
X459398Y1969816D01*
X458254Y1969596D01*
X457127Y1969297D01*
X456024Y1968922D01*
X454949Y1968472D01*
X453908Y1967948D01*
X452905Y1967354D01*
X451947Y1966693D01*
X451035Y1965965D01*
X450176Y1965178D01*
X449375Y1964333D01*
X448632Y1963434D01*
X447955Y1962487D01*
X447343Y1961496D01*
X446801Y1960464D01*
X446332Y1959396D01*
X445938Y1958301D01*
X445621Y1957179D01*
X445381Y1956039D01*
X445219Y1954884D01*
X445140Y1953723D01*
X445140Y1952557D01*
X445219Y1951395D01*
X445381Y1950241D01*
X445621Y1949099D01*
X445938Y1947979D01*
X446332Y1946882D01*
X446801Y1945815D01*
X447343Y1944783D01*
X447955Y1943791D01*
X448632Y1942845D01*
X449375Y1941945D01*
X450176Y1941100D01*
X451035Y1940313D01*
X451947Y1939587D01*
X452905Y1938924D01*
X453908Y1938330D01*
X454949Y1937806D01*
X456024Y1937357D01*
X457127Y1936981D01*
X458254Y1936682D01*
X459398Y1936462D01*
X460554Y1936323D01*
G37*
G36*
X1574449Y1954909D02*
G01*
X1575550Y1954909D01*
X1576652Y1954991D01*
X1577743Y1955151D01*
X1578819Y1955390D01*
X1579875Y1955709D01*
X1580906Y1956102D01*
X1581904Y1956570D01*
X1582866Y1957110D01*
X1583786Y1957719D01*
X1584659Y1958393D01*
X1585480Y1959128D01*
X1586246Y1959922D01*
X1586952Y1960770D01*
X1587592Y1961667D01*
X1588167Y1962609D01*
X1588671Y1963591D01*
X1589103Y1964605D01*
X1589459Y1965650D01*
X1589738Y1966716D01*
X1589939Y1967800D01*
X1590060Y1968897D01*
X1590100Y1970000D01*
X1590060Y1971102D01*
X1589939Y1972199D01*
X1589738Y1973283D01*
X1589459Y1974349D01*
X1589103Y1975394D01*
X1588671Y1976408D01*
X1588167Y1977390D01*
X1587592Y1978332D01*
X1586952Y1979229D01*
X1586246Y1980077D01*
X1585480Y1980871D01*
X1584659Y1981606D01*
X1583786Y1982280D01*
X1582866Y1982889D01*
X1581904Y1983429D01*
X1580906Y1983897D01*
X1579875Y1984290D01*
X1578819Y1984609D01*
X1577743Y1984848D01*
X1576652Y1985009D01*
X1575550Y1985090D01*
X1574449Y1985090D01*
X1573347Y1985009D01*
X1572256Y1984848D01*
X1571180Y1984609D01*
X1570124Y1984290D01*
X1569093Y1983897D01*
X1568095Y1983429D01*
X1567133Y1982889D01*
X1566214Y1982280D01*
X1565340Y1981606D01*
X1564519Y1980871D01*
X1563753Y1980077D01*
X1563047Y1979229D01*
X1562407Y1978332D01*
X1561832Y1977390D01*
X1561328Y1976408D01*
X1560896Y1975394D01*
X1560540Y1974349D01*
X1560261Y1973283D01*
X1560060Y1972199D01*
X1559939Y1971102D01*
X1559899Y1970000D01*
X1559939Y1968897D01*
X1560060Y1967800D01*
X1560261Y1966716D01*
X1560540Y1965650D01*
X1560896Y1964605D01*
X1561328Y1963591D01*
X1561832Y1962609D01*
X1562407Y1961667D01*
X1563047Y1960770D01*
X1563753Y1959922D01*
X1564519Y1959128D01*
X1565340Y1958393D01*
X1566214Y1957719D01*
X1567133Y1957110D01*
X1568095Y1956570D01*
X1569093Y1956102D01*
X1570124Y1955709D01*
X1571180Y1955390D01*
X1572256Y1955151D01*
X1573347Y1954991D01*
G37*
G36*
X1534449Y1969909D02*
G01*
X1535550Y1969909D01*
X1536652Y1969991D01*
X1537743Y1970151D01*
X1538819Y1970390D01*
X1539875Y1970709D01*
X1540906Y1971102D01*
X1541904Y1971570D01*
X1542866Y1972110D01*
X1543786Y1972719D01*
X1544659Y1973393D01*
X1545480Y1974128D01*
X1546246Y1974922D01*
X1546952Y1975770D01*
X1547592Y1976667D01*
X1548167Y1977609D01*
X1548671Y1978591D01*
X1549103Y1979605D01*
X1549459Y1980650D01*
X1549738Y1981716D01*
X1549939Y1982800D01*
X1550060Y1983897D01*
X1550100Y1985000D01*
X1550060Y1986102D01*
X1549939Y1987199D01*
X1549738Y1988283D01*
X1549459Y1989349D01*
X1549103Y1990394D01*
X1548671Y1991408D01*
X1548167Y1992390D01*
X1547592Y1993332D01*
X1546952Y1994229D01*
X1546246Y1995077D01*
X1545480Y1995871D01*
X1544659Y1996606D01*
X1543786Y1997280D01*
X1542866Y1997889D01*
X1541904Y1998429D01*
X1540906Y1998897D01*
X1539875Y1999290D01*
X1538819Y1999609D01*
X1537743Y1999848D01*
X1536652Y2000009D01*
X1535550Y2000090D01*
X1534449Y2000090D01*
X1533347Y2000009D01*
X1532256Y1999848D01*
X1531180Y1999609D01*
X1530124Y1999290D01*
X1529093Y1998897D01*
X1528095Y1998429D01*
X1527133Y1997889D01*
X1526214Y1997280D01*
X1525340Y1996606D01*
X1524519Y1995871D01*
X1523753Y1995077D01*
X1523047Y1994229D01*
X1522407Y1993332D01*
X1521832Y1992390D01*
X1521328Y1991408D01*
X1520896Y1990394D01*
X1520540Y1989349D01*
X1520261Y1988283D01*
X1520060Y1987199D01*
X1519939Y1986102D01*
X1519899Y1985000D01*
X1519939Y1983897D01*
X1520060Y1982800D01*
X1520261Y1981716D01*
X1520540Y1980650D01*
X1520896Y1979605D01*
X1521328Y1978591D01*
X1521832Y1977609D01*
X1522407Y1976667D01*
X1523047Y1975770D01*
X1523753Y1974922D01*
X1524519Y1974128D01*
X1525340Y1973393D01*
X1526214Y1972719D01*
X1527133Y1972110D01*
X1528095Y1971570D01*
X1529093Y1971102D01*
X1530124Y1970709D01*
X1531180Y1970390D01*
X1532256Y1970151D01*
X1533347Y1969991D01*
G37*
G36*
X1499449Y1989909D02*
G01*
X1500550Y1989909D01*
X1501652Y1989991D01*
X1502743Y1990151D01*
X1503819Y1990390D01*
X1504875Y1990709D01*
X1505906Y1991102D01*
X1506904Y1991570D01*
X1507866Y1992110D01*
X1508786Y1992719D01*
X1509659Y1993393D01*
X1510480Y1994128D01*
X1511246Y1994922D01*
X1511952Y1995770D01*
X1512592Y1996667D01*
X1513167Y1997609D01*
X1513671Y1998591D01*
X1514103Y1999605D01*
X1514459Y2000650D01*
X1514738Y2001716D01*
X1514939Y2002800D01*
X1515060Y2003897D01*
X1515100Y2005000D01*
X1515060Y2006102D01*
X1514939Y2007199D01*
X1514738Y2008283D01*
X1514459Y2009349D01*
X1514103Y2010394D01*
X1513671Y2011408D01*
X1513167Y2012390D01*
X1512592Y2013332D01*
X1511952Y2014229D01*
X1511246Y2015077D01*
X1510480Y2015871D01*
X1509659Y2016606D01*
X1508786Y2017280D01*
X1507866Y2017889D01*
X1506904Y2018429D01*
X1505906Y2018897D01*
X1504875Y2019290D01*
X1503819Y2019609D01*
X1502743Y2019848D01*
X1501652Y2020009D01*
X1500550Y2020090D01*
X1499449Y2020090D01*
X1498347Y2020009D01*
X1497256Y2019848D01*
X1496180Y2019609D01*
X1495124Y2019290D01*
X1494093Y2018897D01*
X1493095Y2018429D01*
X1492133Y2017889D01*
X1491214Y2017280D01*
X1490340Y2016606D01*
X1489519Y2015871D01*
X1488753Y2015077D01*
X1488047Y2014229D01*
X1487407Y2013332D01*
X1486832Y2012390D01*
X1486328Y2011408D01*
X1485896Y2010394D01*
X1485540Y2009349D01*
X1485261Y2008283D01*
X1485060Y2007199D01*
X1484939Y2006102D01*
X1484899Y2005000D01*
X1484939Y2003897D01*
X1485060Y2002800D01*
X1485261Y2001716D01*
X1485540Y2000650D01*
X1485896Y1999605D01*
X1486328Y1998591D01*
X1486832Y1997609D01*
X1487407Y1996667D01*
X1488047Y1995770D01*
X1488753Y1994922D01*
X1489519Y1994128D01*
X1490340Y1993393D01*
X1491214Y1992719D01*
X1492133Y1992110D01*
X1493095Y1991570D01*
X1494093Y1991102D01*
X1495124Y1990709D01*
X1496180Y1990390D01*
X1497256Y1990151D01*
X1498347Y1989991D01*
G37*
G36*
X624448Y2049909D02*
G01*
X625551Y2049909D01*
X626651Y2049991D01*
X627743Y2050151D01*
X628818Y2050390D01*
X629875Y2050709D01*
X630906Y2051102D01*
X631903Y2051570D01*
X632865Y2052110D01*
X633786Y2052719D01*
X634659Y2053393D01*
X635480Y2054128D01*
X636246Y2054922D01*
X636952Y2055770D01*
X637593Y2056667D01*
X638168Y2057609D01*
X638672Y2058591D01*
X639104Y2059605D01*
X639459Y2060650D01*
X639738Y2061716D01*
X639938Y2062800D01*
X640059Y2063897D01*
X640100Y2065000D01*
X640059Y2066102D01*
X639938Y2067199D01*
X639738Y2068283D01*
X639459Y2069349D01*
X639104Y2070394D01*
X638672Y2071408D01*
X638168Y2072390D01*
X637593Y2073332D01*
X636952Y2074229D01*
X636246Y2075077D01*
X635480Y2075871D01*
X634659Y2076606D01*
X633786Y2077280D01*
X632865Y2077889D01*
X631903Y2078429D01*
X630906Y2078897D01*
X629875Y2079290D01*
X628818Y2079609D01*
X627743Y2079848D01*
X626651Y2080009D01*
X625551Y2080090D01*
X624448Y2080090D01*
X623348Y2080009D01*
X622256Y2079848D01*
X621181Y2079609D01*
X620124Y2079290D01*
X619094Y2078897D01*
X618096Y2078429D01*
X617134Y2077889D01*
X616214Y2077280D01*
X615340Y2076606D01*
X614519Y2075871D01*
X613753Y2075077D01*
X613047Y2074229D01*
X612406Y2073332D01*
X611831Y2072390D01*
X611327Y2071408D01*
X610895Y2070394D01*
X610540Y2069349D01*
X610261Y2068283D01*
X610061Y2067199D01*
X609940Y2066102D01*
X609899Y2065000D01*
X609940Y2063897D01*
X610061Y2062800D01*
X610261Y2061716D01*
X610540Y2060650D01*
X610895Y2059605D01*
X611327Y2058591D01*
X611831Y2057609D01*
X612406Y2056667D01*
X613047Y2055770D01*
X613753Y2054922D01*
X614519Y2054128D01*
X615340Y2053393D01*
X616214Y2052719D01*
X617134Y2052110D01*
X618096Y2051570D01*
X619094Y2051102D01*
X620124Y2050709D01*
X621181Y2050390D01*
X622256Y2050151D01*
X623348Y2049991D01*
G37*
G36*
X1394449Y2054909D02*
G01*
X1395550Y2054909D01*
X1396652Y2054991D01*
X1397743Y2055151D01*
X1398819Y2055390D01*
X1399875Y2055709D01*
X1400906Y2056102D01*
X1401904Y2056570D01*
X1402866Y2057110D01*
X1403786Y2057719D01*
X1404659Y2058393D01*
X1405480Y2059128D01*
X1406246Y2059922D01*
X1406952Y2060770D01*
X1407592Y2061667D01*
X1408167Y2062609D01*
X1408671Y2063591D01*
X1409103Y2064605D01*
X1409459Y2065650D01*
X1409738Y2066716D01*
X1409939Y2067800D01*
X1410060Y2068897D01*
X1410100Y2070000D01*
X1410060Y2071102D01*
X1409939Y2072199D01*
X1409738Y2073283D01*
X1409459Y2074349D01*
X1409103Y2075394D01*
X1408671Y2076408D01*
X1408167Y2077390D01*
X1407592Y2078332D01*
X1406952Y2079229D01*
X1406246Y2080077D01*
X1405480Y2080871D01*
X1404659Y2081606D01*
X1403786Y2082280D01*
X1402866Y2082889D01*
X1401904Y2083429D01*
X1400906Y2083897D01*
X1399875Y2084290D01*
X1398819Y2084609D01*
X1397743Y2084848D01*
X1396652Y2085009D01*
X1395550Y2085090D01*
X1394449Y2085090D01*
X1393347Y2085009D01*
X1392256Y2084848D01*
X1391180Y2084609D01*
X1390124Y2084290D01*
X1389093Y2083897D01*
X1388095Y2083429D01*
X1387133Y2082889D01*
X1386214Y2082280D01*
X1385340Y2081606D01*
X1384519Y2080871D01*
X1383753Y2080077D01*
X1383047Y2079229D01*
X1382407Y2078332D01*
X1381832Y2077390D01*
X1381328Y2076408D01*
X1380896Y2075394D01*
X1380540Y2074349D01*
X1380261Y2073283D01*
X1380060Y2072199D01*
X1379939Y2071102D01*
X1379899Y2070000D01*
X1379939Y2068897D01*
X1380060Y2067800D01*
X1380261Y2066716D01*
X1380540Y2065650D01*
X1380896Y2064605D01*
X1381328Y2063591D01*
X1381832Y2062609D01*
X1382407Y2061667D01*
X1383047Y2060770D01*
X1383753Y2059922D01*
X1384519Y2059128D01*
X1385340Y2058393D01*
X1386214Y2057719D01*
X1387133Y2057110D01*
X1388095Y2056570D01*
X1389093Y2056102D01*
X1390124Y2055709D01*
X1391180Y2055390D01*
X1392256Y2055151D01*
X1393347Y2054991D01*
G37*
G36*
X594448Y2084909D02*
G01*
X595551Y2084909D01*
X596651Y2084991D01*
X597743Y2085151D01*
X598818Y2085390D01*
X599875Y2085709D01*
X600906Y2086102D01*
X601903Y2086570D01*
X602865Y2087110D01*
X603786Y2087719D01*
X604659Y2088393D01*
X605480Y2089128D01*
X606246Y2089922D01*
X606952Y2090770D01*
X607593Y2091667D01*
X608168Y2092609D01*
X608672Y2093591D01*
X609104Y2094605D01*
X609459Y2095650D01*
X609738Y2096716D01*
X609938Y2097800D01*
X610059Y2098897D01*
X610100Y2100000D01*
X610059Y2101102D01*
X609938Y2102199D01*
X609738Y2103283D01*
X609459Y2104349D01*
X609104Y2105394D01*
X608672Y2106408D01*
X608168Y2107390D01*
X607593Y2108332D01*
X606952Y2109229D01*
X606246Y2110077D01*
X605480Y2110871D01*
X604659Y2111606D01*
X603786Y2112280D01*
X602865Y2112889D01*
X601903Y2113429D01*
X600906Y2113897D01*
X599875Y2114290D01*
X598818Y2114609D01*
X597743Y2114848D01*
X596651Y2115009D01*
X595551Y2115090D01*
X594448Y2115090D01*
X593348Y2115009D01*
X592256Y2114848D01*
X591181Y2114609D01*
X590124Y2114290D01*
X589094Y2113897D01*
X588096Y2113429D01*
X587134Y2112889D01*
X586214Y2112280D01*
X585340Y2111606D01*
X584519Y2110871D01*
X583753Y2110077D01*
X583047Y2109229D01*
X582406Y2108332D01*
X581831Y2107390D01*
X581327Y2106408D01*
X580895Y2105394D01*
X580540Y2104349D01*
X580261Y2103283D01*
X580061Y2102199D01*
X579940Y2101102D01*
X579899Y2100000D01*
X579940Y2098897D01*
X580061Y2097800D01*
X580261Y2096716D01*
X580540Y2095650D01*
X580895Y2094605D01*
X581327Y2093591D01*
X581831Y2092609D01*
X582406Y2091667D01*
X583047Y2090770D01*
X583753Y2089922D01*
X584519Y2089128D01*
X585340Y2088393D01*
X586214Y2087719D01*
X587134Y2087110D01*
X588096Y2086570D01*
X589094Y2086102D01*
X590124Y2085709D01*
X591181Y2085390D01*
X592256Y2085151D01*
X593348Y2084991D01*
G37*
G36*
X1309449Y2084909D02*
G01*
X1310550Y2084909D01*
X1311652Y2084991D01*
X1312743Y2085151D01*
X1313819Y2085390D01*
X1314875Y2085709D01*
X1315906Y2086102D01*
X1316904Y2086570D01*
X1317866Y2087110D01*
X1318786Y2087719D01*
X1319659Y2088393D01*
X1320480Y2089128D01*
X1321246Y2089922D01*
X1321952Y2090770D01*
X1322592Y2091667D01*
X1323167Y2092609D01*
X1323671Y2093591D01*
X1324103Y2094605D01*
X1324459Y2095650D01*
X1324738Y2096716D01*
X1324939Y2097800D01*
X1325060Y2098897D01*
X1325100Y2100000D01*
X1325060Y2101102D01*
X1324939Y2102199D01*
X1324738Y2103283D01*
X1324459Y2104349D01*
X1324103Y2105394D01*
X1323671Y2106408D01*
X1323167Y2107390D01*
X1322592Y2108332D01*
X1321952Y2109229D01*
X1321246Y2110077D01*
X1320480Y2110871D01*
X1319659Y2111606D01*
X1318786Y2112280D01*
X1317866Y2112889D01*
X1316904Y2113429D01*
X1315906Y2113897D01*
X1314875Y2114290D01*
X1313819Y2114609D01*
X1312743Y2114848D01*
X1311652Y2115009D01*
X1310550Y2115090D01*
X1309449Y2115090D01*
X1308347Y2115009D01*
X1307256Y2114848D01*
X1306180Y2114609D01*
X1305124Y2114290D01*
X1304093Y2113897D01*
X1303095Y2113429D01*
X1302133Y2112889D01*
X1301214Y2112280D01*
X1300340Y2111606D01*
X1299519Y2110871D01*
X1298753Y2110077D01*
X1298047Y2109229D01*
X1297407Y2108332D01*
X1296832Y2107390D01*
X1296328Y2106408D01*
X1295896Y2105394D01*
X1295540Y2104349D01*
X1295261Y2103283D01*
X1295060Y2102199D01*
X1294939Y2101102D01*
X1294899Y2100000D01*
X1294939Y2098897D01*
X1295060Y2097800D01*
X1295261Y2096716D01*
X1295540Y2095650D01*
X1295896Y2094605D01*
X1296328Y2093591D01*
X1296832Y2092609D01*
X1297407Y2091667D01*
X1298047Y2090770D01*
X1298753Y2089922D01*
X1299519Y2089128D01*
X1300340Y2088393D01*
X1301214Y2087719D01*
X1302133Y2087110D01*
X1303095Y2086570D01*
X1304093Y2086102D01*
X1305124Y2085709D01*
X1306180Y2085390D01*
X1307256Y2085151D01*
X1308347Y2084991D01*
G37*
G36*
X1509449Y2089909D02*
G01*
X1510550Y2089909D01*
X1511652Y2089991D01*
X1512743Y2090151D01*
X1513819Y2090390D01*
X1514875Y2090709D01*
X1515906Y2091102D01*
X1516904Y2091570D01*
X1517866Y2092110D01*
X1518786Y2092719D01*
X1519659Y2093393D01*
X1520480Y2094128D01*
X1521246Y2094922D01*
X1521952Y2095770D01*
X1522592Y2096667D01*
X1523167Y2097609D01*
X1523671Y2098591D01*
X1524103Y2099605D01*
X1524459Y2100650D01*
X1524738Y2101716D01*
X1524939Y2102800D01*
X1525060Y2103897D01*
X1525100Y2105000D01*
X1525060Y2106102D01*
X1524939Y2107199D01*
X1524738Y2108283D01*
X1524459Y2109349D01*
X1524103Y2110394D01*
X1523671Y2111408D01*
X1523167Y2112390D01*
X1522592Y2113332D01*
X1521952Y2114229D01*
X1521246Y2115077D01*
X1520480Y2115871D01*
X1519659Y2116606D01*
X1518786Y2117280D01*
X1517866Y2117889D01*
X1516904Y2118429D01*
X1515906Y2118897D01*
X1514875Y2119290D01*
X1513819Y2119609D01*
X1512743Y2119848D01*
X1511652Y2120009D01*
X1510550Y2120090D01*
X1509449Y2120090D01*
X1508347Y2120009D01*
X1507256Y2119848D01*
X1506180Y2119609D01*
X1505124Y2119290D01*
X1504093Y2118897D01*
X1503095Y2118429D01*
X1502133Y2117889D01*
X1501214Y2117280D01*
X1500340Y2116606D01*
X1499519Y2115871D01*
X1498753Y2115077D01*
X1498047Y2114229D01*
X1497407Y2113332D01*
X1496832Y2112390D01*
X1496328Y2111408D01*
X1495896Y2110394D01*
X1495540Y2109349D01*
X1495261Y2108283D01*
X1495060Y2107199D01*
X1494939Y2106102D01*
X1494899Y2105000D01*
X1494939Y2103897D01*
X1495060Y2102800D01*
X1495261Y2101716D01*
X1495540Y2100650D01*
X1495896Y2099605D01*
X1496328Y2098591D01*
X1496832Y2097609D01*
X1497407Y2096667D01*
X1498047Y2095770D01*
X1498753Y2094922D01*
X1499519Y2094128D01*
X1500340Y2093393D01*
X1501214Y2092719D01*
X1502133Y2092110D01*
X1503095Y2091570D01*
X1504093Y2091102D01*
X1505124Y2090709D01*
X1506180Y2090390D01*
X1507256Y2090151D01*
X1508347Y2089991D01*
G37*
G36*
X1264449Y2089909D02*
G01*
X1265550Y2089909D01*
X1266652Y2089991D01*
X1267743Y2090151D01*
X1268819Y2090390D01*
X1269875Y2090709D01*
X1270906Y2091102D01*
X1271904Y2091570D01*
X1272866Y2092110D01*
X1273786Y2092719D01*
X1274659Y2093393D01*
X1275480Y2094128D01*
X1276246Y2094922D01*
X1276952Y2095770D01*
X1277592Y2096667D01*
X1278167Y2097609D01*
X1278671Y2098591D01*
X1279103Y2099605D01*
X1279459Y2100650D01*
X1279738Y2101716D01*
X1279939Y2102800D01*
X1280060Y2103897D01*
X1280100Y2105000D01*
X1280060Y2106102D01*
X1279939Y2107199D01*
X1279738Y2108283D01*
X1279459Y2109349D01*
X1279103Y2110394D01*
X1278671Y2111408D01*
X1278167Y2112390D01*
X1277592Y2113332D01*
X1276952Y2114229D01*
X1276246Y2115077D01*
X1275480Y2115871D01*
X1274659Y2116606D01*
X1273786Y2117280D01*
X1272866Y2117889D01*
X1271904Y2118429D01*
X1270906Y2118897D01*
X1269875Y2119290D01*
X1268819Y2119609D01*
X1267743Y2119848D01*
X1266652Y2120009D01*
X1265550Y2120090D01*
X1264449Y2120090D01*
X1263347Y2120009D01*
X1262256Y2119848D01*
X1261180Y2119609D01*
X1260124Y2119290D01*
X1259093Y2118897D01*
X1258095Y2118429D01*
X1257133Y2117889D01*
X1256214Y2117280D01*
X1255340Y2116606D01*
X1254519Y2115871D01*
X1253753Y2115077D01*
X1253047Y2114229D01*
X1252407Y2113332D01*
X1251832Y2112390D01*
X1251328Y2111408D01*
X1250896Y2110394D01*
X1250540Y2109349D01*
X1250261Y2108283D01*
X1250060Y2107199D01*
X1249939Y2106102D01*
X1249899Y2105000D01*
X1249939Y2103897D01*
X1250060Y2102800D01*
X1250261Y2101716D01*
X1250540Y2100650D01*
X1250896Y2099605D01*
X1251328Y2098591D01*
X1251832Y2097609D01*
X1252407Y2096667D01*
X1253047Y2095770D01*
X1253753Y2094922D01*
X1254519Y2094128D01*
X1255340Y2093393D01*
X1256214Y2092719D01*
X1257133Y2092110D01*
X1258095Y2091570D01*
X1259093Y2091102D01*
X1260124Y2090709D01*
X1261180Y2090390D01*
X1262256Y2090151D01*
X1263347Y2089991D01*
G37*
G36*
X1219449Y2094909D02*
G01*
X1220550Y2094909D01*
X1221652Y2094991D01*
X1222743Y2095151D01*
X1223819Y2095390D01*
X1224875Y2095709D01*
X1225906Y2096102D01*
X1226904Y2096570D01*
X1227866Y2097110D01*
X1228786Y2097719D01*
X1229659Y2098393D01*
X1230480Y2099128D01*
X1231246Y2099922D01*
X1231952Y2100770D01*
X1232592Y2101667D01*
X1233167Y2102609D01*
X1233671Y2103591D01*
X1234103Y2104605D01*
X1234459Y2105650D01*
X1234738Y2106716D01*
X1234939Y2107800D01*
X1235060Y2108897D01*
X1235100Y2110000D01*
X1235060Y2111102D01*
X1234939Y2112199D01*
X1234738Y2113283D01*
X1234459Y2114349D01*
X1234103Y2115394D01*
X1233671Y2116408D01*
X1233167Y2117390D01*
X1232592Y2118332D01*
X1231952Y2119229D01*
X1231246Y2120077D01*
X1230480Y2120871D01*
X1229659Y2121606D01*
X1228786Y2122280D01*
X1227866Y2122889D01*
X1226904Y2123429D01*
X1225906Y2123897D01*
X1224875Y2124290D01*
X1223819Y2124609D01*
X1222743Y2124848D01*
X1221652Y2125009D01*
X1220550Y2125090D01*
X1219449Y2125090D01*
X1218347Y2125009D01*
X1217256Y2124848D01*
X1216180Y2124609D01*
X1215124Y2124290D01*
X1214093Y2123897D01*
X1213095Y2123429D01*
X1212133Y2122889D01*
X1211214Y2122280D01*
X1210340Y2121606D01*
X1209519Y2120871D01*
X1208753Y2120077D01*
X1208047Y2119229D01*
X1207407Y2118332D01*
X1206832Y2117390D01*
X1206328Y2116408D01*
X1205896Y2115394D01*
X1205540Y2114349D01*
X1205261Y2113283D01*
X1205060Y2112199D01*
X1204939Y2111102D01*
X1204899Y2110000D01*
X1204939Y2108897D01*
X1205060Y2107800D01*
X1205261Y2106716D01*
X1205540Y2105650D01*
X1205896Y2104605D01*
X1206328Y2103591D01*
X1206832Y2102609D01*
X1207407Y2101667D01*
X1208047Y2100770D01*
X1208753Y2099922D01*
X1209519Y2099128D01*
X1210340Y2098393D01*
X1211214Y2097719D01*
X1212133Y2097110D01*
X1213095Y2096570D01*
X1214093Y2096102D01*
X1215124Y2095709D01*
X1216180Y2095390D01*
X1217256Y2095151D01*
X1218347Y2094991D01*
G37*
G36*
X1369449Y2099910D02*
G01*
X1370550Y2099910D01*
X1371652Y2099991D01*
X1372743Y2100151D01*
X1373819Y2100390D01*
X1374875Y2100709D01*
X1375906Y2101102D01*
X1376904Y2101570D01*
X1377866Y2102111D01*
X1378786Y2102719D01*
X1379659Y2103393D01*
X1380480Y2104128D01*
X1381246Y2104922D01*
X1381952Y2105770D01*
X1382592Y2106667D01*
X1383167Y2107609D01*
X1383671Y2108591D01*
X1384103Y2109605D01*
X1384459Y2110650D01*
X1384738Y2111716D01*
X1384939Y2112800D01*
X1385060Y2113897D01*
X1385100Y2115000D01*
X1385060Y2116102D01*
X1384939Y2117199D01*
X1384738Y2118283D01*
X1384459Y2119349D01*
X1384103Y2120394D01*
X1383671Y2121408D01*
X1383167Y2122390D01*
X1382592Y2123332D01*
X1381952Y2124229D01*
X1381246Y2125077D01*
X1380480Y2125871D01*
X1379659Y2126606D01*
X1378786Y2127280D01*
X1377866Y2127889D01*
X1376904Y2128429D01*
X1375906Y2128897D01*
X1374875Y2129290D01*
X1373819Y2129609D01*
X1372743Y2129848D01*
X1371652Y2130009D01*
X1370550Y2130090D01*
X1369449Y2130090D01*
X1368347Y2130009D01*
X1367256Y2129848D01*
X1366180Y2129609D01*
X1365124Y2129290D01*
X1364093Y2128897D01*
X1363095Y2128429D01*
X1362133Y2127889D01*
X1361214Y2127280D01*
X1360340Y2126606D01*
X1359519Y2125871D01*
X1358753Y2125077D01*
X1358047Y2124229D01*
X1357407Y2123332D01*
X1356832Y2122390D01*
X1356328Y2121408D01*
X1355896Y2120394D01*
X1355540Y2119349D01*
X1355261Y2118283D01*
X1355060Y2117199D01*
X1354939Y2116102D01*
X1354899Y2115000D01*
X1354939Y2113897D01*
X1355060Y2112800D01*
X1355261Y2111716D01*
X1355540Y2110650D01*
X1355896Y2109605D01*
X1356328Y2108591D01*
X1356832Y2107609D01*
X1357407Y2106667D01*
X1358047Y2105770D01*
X1358753Y2104922D01*
X1359519Y2104128D01*
X1360340Y2103393D01*
X1361214Y2102719D01*
X1362133Y2102111D01*
X1363095Y2101570D01*
X1364093Y2101102D01*
X1365124Y2100709D01*
X1366180Y2100390D01*
X1367256Y2100151D01*
X1368347Y2099991D01*
G37*
G36*
X884449Y2114910D02*
G01*
X885550Y2114910D01*
X886652Y2114991D01*
X887743Y2115151D01*
X888819Y2115390D01*
X889875Y2115709D01*
X890906Y2116102D01*
X891904Y2116570D01*
X892866Y2117111D01*
X893786Y2117719D01*
X894659Y2118393D01*
X895480Y2119128D01*
X896246Y2119922D01*
X896952Y2120770D01*
X897592Y2121667D01*
X898167Y2122609D01*
X898671Y2123591D01*
X899103Y2124605D01*
X899459Y2125650D01*
X899738Y2126716D01*
X899939Y2127800D01*
X900060Y2128897D01*
X900100Y2130000D01*
X900060Y2131102D01*
X899939Y2132199D01*
X899738Y2133283D01*
X899459Y2134349D01*
X899103Y2135394D01*
X898671Y2136408D01*
X898167Y2137390D01*
X897592Y2138332D01*
X896952Y2139229D01*
X896246Y2140077D01*
X895480Y2140871D01*
X894659Y2141606D01*
X893786Y2142280D01*
X892866Y2142889D01*
X891904Y2143429D01*
X890906Y2143897D01*
X889875Y2144290D01*
X888819Y2144609D01*
X887743Y2144848D01*
X886652Y2145009D01*
X885550Y2145090D01*
X884449Y2145090D01*
X883347Y2145009D01*
X882256Y2144848D01*
X881180Y2144609D01*
X880124Y2144290D01*
X879093Y2143897D01*
X878095Y2143429D01*
X877133Y2142889D01*
X876214Y2142280D01*
X875340Y2141606D01*
X874519Y2140871D01*
X873753Y2140077D01*
X873047Y2139229D01*
X872407Y2138332D01*
X871832Y2137390D01*
X871328Y2136408D01*
X870896Y2135394D01*
X870540Y2134349D01*
X870261Y2133283D01*
X870060Y2132199D01*
X869939Y2131102D01*
X869899Y2130000D01*
X869939Y2128897D01*
X870060Y2127800D01*
X870261Y2126716D01*
X870540Y2125650D01*
X870896Y2124605D01*
X871328Y2123591D01*
X871832Y2122609D01*
X872407Y2121667D01*
X873047Y2120770D01*
X873753Y2119922D01*
X874519Y2119128D01*
X875340Y2118393D01*
X876214Y2117719D01*
X877133Y2117111D01*
X878095Y2116570D01*
X879093Y2116102D01*
X880124Y2115709D01*
X881180Y2115390D01*
X882256Y2115151D01*
X883347Y2114991D01*
G37*
G36*
X1554449Y2129910D02*
G01*
X1555550Y2129910D01*
X1556652Y2129991D01*
X1557743Y2130151D01*
X1558819Y2130390D01*
X1559875Y2130709D01*
X1560906Y2131102D01*
X1561904Y2131570D01*
X1562866Y2132111D01*
X1563786Y2132719D01*
X1564659Y2133393D01*
X1565480Y2134128D01*
X1566246Y2134922D01*
X1566952Y2135770D01*
X1567592Y2136667D01*
X1568167Y2137609D01*
X1568671Y2138591D01*
X1569103Y2139605D01*
X1569459Y2140650D01*
X1569738Y2141716D01*
X1569939Y2142800D01*
X1570060Y2143897D01*
X1570100Y2145000D01*
X1570060Y2146102D01*
X1569939Y2147199D01*
X1569738Y2148283D01*
X1569459Y2149349D01*
X1569103Y2150394D01*
X1568671Y2151408D01*
X1568167Y2152390D01*
X1567592Y2153332D01*
X1566952Y2154229D01*
X1566246Y2155077D01*
X1565480Y2155871D01*
X1564659Y2156606D01*
X1563786Y2157280D01*
X1562866Y2157889D01*
X1561904Y2158429D01*
X1560906Y2158897D01*
X1559875Y2159290D01*
X1558819Y2159609D01*
X1557743Y2159848D01*
X1556652Y2160009D01*
X1555550Y2160090D01*
X1554449Y2160090D01*
X1553347Y2160009D01*
X1552256Y2159848D01*
X1551180Y2159609D01*
X1550124Y2159290D01*
X1549093Y2158897D01*
X1548095Y2158429D01*
X1547133Y2157889D01*
X1546214Y2157280D01*
X1545340Y2156606D01*
X1544519Y2155871D01*
X1543753Y2155077D01*
X1543047Y2154229D01*
X1542407Y2153332D01*
X1541832Y2152390D01*
X1541328Y2151408D01*
X1540896Y2150394D01*
X1540540Y2149349D01*
X1540261Y2148283D01*
X1540060Y2147199D01*
X1539939Y2146102D01*
X1539899Y2145000D01*
X1539939Y2143897D01*
X1540060Y2142800D01*
X1540261Y2141716D01*
X1540540Y2140650D01*
X1540896Y2139605D01*
X1541328Y2138591D01*
X1541832Y2137609D01*
X1542407Y2136667D01*
X1543047Y2135770D01*
X1543753Y2134922D01*
X1544519Y2134128D01*
X1545340Y2133393D01*
X1546214Y2132719D01*
X1547133Y2132111D01*
X1548095Y2131570D01*
X1549093Y2131102D01*
X1550124Y2130709D01*
X1551180Y2130390D01*
X1552256Y2130151D01*
X1553347Y2129991D01*
G37*
G36*
X1184449Y2129910D02*
G01*
X1185550Y2129910D01*
X1186652Y2129991D01*
X1187743Y2130151D01*
X1188819Y2130390D01*
X1189875Y2130709D01*
X1190906Y2131102D01*
X1191904Y2131570D01*
X1192866Y2132111D01*
X1193786Y2132719D01*
X1194659Y2133393D01*
X1195480Y2134128D01*
X1196246Y2134922D01*
X1196952Y2135770D01*
X1197592Y2136667D01*
X1198167Y2137609D01*
X1198671Y2138591D01*
X1199103Y2139605D01*
X1199459Y2140650D01*
X1199738Y2141716D01*
X1199939Y2142800D01*
X1200060Y2143897D01*
X1200100Y2145000D01*
X1200060Y2146102D01*
X1199939Y2147199D01*
X1199738Y2148283D01*
X1199459Y2149349D01*
X1199103Y2150394D01*
X1198671Y2151408D01*
X1198167Y2152390D01*
X1197592Y2153332D01*
X1196952Y2154229D01*
X1196246Y2155077D01*
X1195480Y2155871D01*
X1194659Y2156606D01*
X1193786Y2157280D01*
X1192866Y2157889D01*
X1191904Y2158429D01*
X1190906Y2158897D01*
X1189875Y2159290D01*
X1188819Y2159609D01*
X1187743Y2159848D01*
X1186652Y2160009D01*
X1185550Y2160090D01*
X1184449Y2160090D01*
X1183347Y2160009D01*
X1182256Y2159848D01*
X1181180Y2159609D01*
X1180124Y2159290D01*
X1179093Y2158897D01*
X1178095Y2158429D01*
X1177133Y2157889D01*
X1176214Y2157280D01*
X1175340Y2156606D01*
X1174519Y2155871D01*
X1173753Y2155077D01*
X1173047Y2154229D01*
X1172407Y2153332D01*
X1171832Y2152390D01*
X1171328Y2151408D01*
X1170896Y2150394D01*
X1170540Y2149349D01*
X1170261Y2148283D01*
X1170060Y2147199D01*
X1169939Y2146102D01*
X1169899Y2145000D01*
X1169939Y2143897D01*
X1170060Y2142800D01*
X1170261Y2141716D01*
X1170540Y2140650D01*
X1170896Y2139605D01*
X1171328Y2138591D01*
X1171832Y2137609D01*
X1172407Y2136667D01*
X1173047Y2135770D01*
X1173753Y2134922D01*
X1174519Y2134128D01*
X1175340Y2133393D01*
X1176214Y2132719D01*
X1177133Y2132111D01*
X1178095Y2131570D01*
X1179093Y2131102D01*
X1180124Y2130709D01*
X1181180Y2130390D01*
X1182256Y2130151D01*
X1183347Y2129991D01*
G37*
G36*
X461718Y2163823D02*
G01*
X462883Y2163843D01*
X464045Y2163942D01*
X465196Y2164122D01*
X466332Y2164382D01*
X467447Y2164720D01*
X468537Y2165133D01*
X469594Y2165619D01*
X470617Y2166179D01*
X471599Y2166808D01*
X472534Y2167503D01*
X473420Y2168260D01*
X474250Y2169077D01*
X475023Y2169949D01*
X475734Y2170873D01*
X476379Y2171842D01*
X476956Y2172854D01*
X477462Y2173904D01*
X477894Y2174987D01*
X478249Y2176096D01*
X478528Y2177228D01*
X478728Y2178375D01*
X478850Y2179535D01*
X478890Y2180700D01*
X478850Y2181864D01*
X478728Y2183024D01*
X478528Y2184171D01*
X478249Y2185302D01*
X477894Y2186412D01*
X477462Y2187494D01*
X476956Y2188544D01*
X476379Y2189557D01*
X475734Y2190527D01*
X475023Y2191451D01*
X474250Y2192323D01*
X473420Y2193139D01*
X472534Y2193897D01*
X471599Y2194591D01*
X470617Y2195219D01*
X469594Y2195779D01*
X468537Y2196266D01*
X467447Y2196680D01*
X466332Y2197017D01*
X465196Y2197276D01*
X464045Y2197456D01*
X462883Y2197557D01*
X461718Y2197577D01*
X460554Y2197516D01*
X459398Y2197377D01*
X458254Y2197157D01*
X457127Y2196858D01*
X456024Y2196482D01*
X454949Y2196033D01*
X453908Y2195509D01*
X452905Y2194915D01*
X451947Y2194252D01*
X451035Y2193526D01*
X450176Y2192739D01*
X449375Y2191894D01*
X448632Y2190994D01*
X447955Y2190048D01*
X447343Y2189056D01*
X446801Y2188024D01*
X446332Y2186957D01*
X445938Y2185861D01*
X445621Y2184740D01*
X445381Y2183598D01*
X445219Y2182444D01*
X445140Y2181282D01*
X445140Y2180117D01*
X445219Y2178955D01*
X445381Y2177800D01*
X445621Y2176660D01*
X445938Y2175538D01*
X446332Y2174443D01*
X446801Y2173375D01*
X447343Y2172343D01*
X447955Y2171352D01*
X448632Y2170405D01*
X449375Y2169506D01*
X450176Y2168661D01*
X451035Y2167874D01*
X451947Y2167147D01*
X452905Y2166484D01*
X453908Y2165891D01*
X454949Y2165367D01*
X456024Y2164917D01*
X457127Y2164542D01*
X458254Y2164243D01*
X459398Y2164023D01*
X460554Y2163883D01*
G37*
G36*
X1589449Y2169910D02*
G01*
X1590550Y2169910D01*
X1591652Y2169991D01*
X1592743Y2170151D01*
X1593819Y2170390D01*
X1594875Y2170709D01*
X1595906Y2171102D01*
X1596904Y2171570D01*
X1597866Y2172111D01*
X1598786Y2172719D01*
X1599659Y2173393D01*
X1600480Y2174128D01*
X1601246Y2174922D01*
X1601952Y2175770D01*
X1602592Y2176667D01*
X1603167Y2177609D01*
X1603671Y2178591D01*
X1604103Y2179605D01*
X1604459Y2180650D01*
X1604738Y2181716D01*
X1604939Y2182800D01*
X1605060Y2183897D01*
X1605100Y2185000D01*
X1605060Y2186102D01*
X1604939Y2187199D01*
X1604738Y2188283D01*
X1604459Y2189349D01*
X1604103Y2190394D01*
X1603671Y2191408D01*
X1603167Y2192390D01*
X1602592Y2193332D01*
X1601952Y2194229D01*
X1601246Y2195077D01*
X1600480Y2195871D01*
X1599659Y2196606D01*
X1598786Y2197280D01*
X1597866Y2197889D01*
X1596904Y2198429D01*
X1595906Y2198897D01*
X1594875Y2199290D01*
X1593819Y2199609D01*
X1592743Y2199848D01*
X1591652Y2200009D01*
X1590550Y2200090D01*
X1589449Y2200090D01*
X1588347Y2200009D01*
X1587256Y2199848D01*
X1586180Y2199609D01*
X1585124Y2199290D01*
X1584093Y2198897D01*
X1583095Y2198429D01*
X1582133Y2197889D01*
X1581214Y2197280D01*
X1580340Y2196606D01*
X1579519Y2195871D01*
X1578753Y2195077D01*
X1578047Y2194229D01*
X1577407Y2193332D01*
X1576832Y2192390D01*
X1576328Y2191408D01*
X1575896Y2190394D01*
X1575540Y2189349D01*
X1575261Y2188283D01*
X1575060Y2187199D01*
X1574939Y2186102D01*
X1574899Y2185000D01*
X1574939Y2183897D01*
X1575060Y2182800D01*
X1575261Y2181716D01*
X1575540Y2180650D01*
X1575896Y2179605D01*
X1576328Y2178591D01*
X1576832Y2177609D01*
X1577407Y2176667D01*
X1578047Y2175770D01*
X1578753Y2174922D01*
X1579519Y2174128D01*
X1580340Y2173393D01*
X1581214Y2172719D01*
X1582133Y2172111D01*
X1583095Y2171570D01*
X1584093Y2171102D01*
X1585124Y2170709D01*
X1586180Y2170390D01*
X1587256Y2170151D01*
X1588347Y2169991D01*
G37*
G36*
X502564Y2210671D02*
G01*
X502669Y2210686D01*
X503829Y2210891D01*
X503976Y2210920D01*
X505124Y2211183D01*
X505268Y2211219D01*
X506403Y2211538D01*
X506549Y2211583D01*
X507665Y2211959D01*
X507802Y2212010D01*
X508899Y2212440D01*
X509038Y2212498D01*
X510111Y2212982D01*
X510246Y2213047D01*
X511295Y2213586D01*
X511424Y2213656D01*
X512444Y2214245D01*
X512572Y2214322D01*
X513562Y2214962D01*
X513685Y2215046D01*
X514641Y2215734D01*
X514760Y2215823D01*
X515682Y2216558D01*
X515797Y2216655D01*
X516680Y2217435D01*
X516788Y2217536D01*
X517631Y2218357D01*
X517737Y2218465D01*
X518539Y2219330D01*
X518636Y2219441D01*
X519394Y2220342D01*
X519486Y2220459D01*
X520198Y2221397D01*
X520286Y2221522D01*
X520949Y2222494D01*
X521030Y2222620D01*
X521644Y2223625D01*
X521718Y2223751D01*
X522283Y2224785D01*
X522352Y2224922D01*
X522480Y2225189D01*
X502564Y2225189D01*
G37*
G36*
X463195Y2210671D02*
G01*
X463195Y2225189D01*
X443279Y2225189D01*
X443407Y2224922D01*
X443476Y2224785D01*
X444041Y2223751D01*
X444115Y2223625D01*
X444729Y2222620D01*
X444810Y2222494D01*
X445473Y2221522D01*
X445561Y2221397D01*
X446273Y2220459D01*
X446365Y2220342D01*
X447123Y2219441D01*
X447220Y2219330D01*
X448022Y2218465D01*
X448128Y2218357D01*
X448971Y2217536D01*
X449079Y2217435D01*
X449962Y2216655D01*
X450077Y2216558D01*
X450999Y2215823D01*
X451118Y2215734D01*
X452073Y2215046D01*
X452197Y2214962D01*
X453188Y2214322D01*
X453314Y2214245D01*
X454335Y2213656D01*
X454465Y2213586D01*
X455513Y2213047D01*
X455648Y2212982D01*
X456721Y2212498D01*
X456860Y2212440D01*
X457957Y2212010D01*
X458094Y2211959D01*
X459211Y2211583D01*
X459357Y2211538D01*
X460491Y2211219D01*
X460635Y2211183D01*
X461783Y2210920D01*
X461930Y2210891D01*
X463090Y2210686D01*
G37*
G36*
X336026Y2211048D02*
G01*
X336617Y2211183D01*
X336761Y2211219D01*
X337896Y2211538D01*
X338042Y2211583D01*
X339158Y2211959D01*
X339295Y2212010D01*
X340392Y2212440D01*
X340531Y2212498D01*
X341604Y2212982D01*
X341739Y2213047D01*
X342788Y2213586D01*
X342917Y2213656D01*
X343937Y2214245D01*
X344065Y2214322D01*
X345055Y2214962D01*
X345178Y2215046D01*
X346134Y2215734D01*
X346253Y2215823D01*
X347175Y2216558D01*
X347291Y2216655D01*
X348173Y2217435D01*
X348281Y2217536D01*
X349124Y2218357D01*
X349230Y2218465D01*
X350032Y2219330D01*
X350129Y2219441D01*
X350886Y2220342D01*
X350979Y2220459D01*
X351691Y2221397D01*
X351779Y2221522D01*
X352442Y2222494D01*
X352523Y2222620D01*
X353137Y2223625D01*
X353211Y2223751D01*
X353775Y2224785D01*
X353845Y2224922D01*
X353973Y2225189D01*
X336026Y2225189D01*
G37*
G36*
X300592Y2211048D02*
G01*
X300592Y2225189D01*
X282647Y2225189D01*
X282775Y2224922D01*
X282844Y2224785D01*
X283407Y2223751D01*
X283481Y2223625D01*
X284095Y2222620D01*
X284176Y2222494D01*
X284839Y2221522D01*
X284929Y2221397D01*
X285641Y2220459D01*
X285733Y2220342D01*
X286489Y2219441D01*
X286588Y2219330D01*
X287388Y2218465D01*
X287494Y2218357D01*
X288337Y2217536D01*
X288445Y2217435D01*
X289328Y2216655D01*
X289445Y2216558D01*
X290365Y2215823D01*
X290484Y2215734D01*
X291440Y2215046D01*
X291565Y2214962D01*
X292555Y2214322D01*
X292681Y2214245D01*
X293701Y2213656D01*
X293832Y2213586D01*
X294879Y2213047D01*
X295016Y2212982D01*
X296089Y2212498D01*
X296228Y2212440D01*
X297325Y2212010D01*
X297462Y2211959D01*
X298578Y2211583D01*
X298724Y2211538D01*
X299857Y2211219D01*
X300001Y2211183D01*
G37*
G36*
X1624449Y2214910D02*
G01*
X1625550Y2214910D01*
X1626652Y2214991D01*
X1627743Y2215151D01*
X1628819Y2215390D01*
X1629875Y2215709D01*
X1630906Y2216102D01*
X1631904Y2216570D01*
X1632866Y2217111D01*
X1633786Y2217719D01*
X1634659Y2218393D01*
X1635480Y2219128D01*
X1636246Y2219922D01*
X1636952Y2220770D01*
X1637592Y2221667D01*
X1638167Y2222609D01*
X1638671Y2223591D01*
X1639103Y2224605D01*
X1639459Y2225650D01*
X1639738Y2226716D01*
X1639939Y2227800D01*
X1640060Y2228897D01*
X1640100Y2230000D01*
X1640060Y2231102D01*
X1639939Y2232199D01*
X1639738Y2233283D01*
X1639459Y2234349D01*
X1639103Y2235394D01*
X1638671Y2236408D01*
X1638167Y2237390D01*
X1637592Y2238332D01*
X1636952Y2239229D01*
X1636246Y2240077D01*
X1635480Y2240871D01*
X1634659Y2241606D01*
X1633786Y2242280D01*
X1632866Y2242889D01*
X1631904Y2243429D01*
X1630906Y2243897D01*
X1629875Y2244290D01*
X1628819Y2244609D01*
X1627743Y2244848D01*
X1626652Y2245009D01*
X1625550Y2245090D01*
X1624449Y2245090D01*
X1623347Y2245009D01*
X1622256Y2244848D01*
X1621180Y2244609D01*
X1620124Y2244290D01*
X1619093Y2243897D01*
X1618095Y2243429D01*
X1617133Y2242889D01*
X1616214Y2242280D01*
X1615340Y2241606D01*
X1614519Y2240871D01*
X1613753Y2240077D01*
X1613047Y2239229D01*
X1612407Y2238332D01*
X1611832Y2237390D01*
X1611328Y2236408D01*
X1610896Y2235394D01*
X1610540Y2234349D01*
X1610261Y2233283D01*
X1610060Y2232199D01*
X1609939Y2231102D01*
X1609899Y2230000D01*
X1609939Y2228897D01*
X1610060Y2227800D01*
X1610261Y2226716D01*
X1610540Y2225650D01*
X1610896Y2224605D01*
X1611328Y2223591D01*
X1611832Y2222609D01*
X1612407Y2221667D01*
X1613047Y2220770D01*
X1613753Y2219922D01*
X1614519Y2219128D01*
X1615340Y2218393D01*
X1616214Y2217719D01*
X1617133Y2217111D01*
X1618095Y2216570D01*
X1619093Y2216102D01*
X1620124Y2215709D01*
X1621180Y2215390D01*
X1622256Y2215151D01*
X1623347Y2214991D01*
G37*
G36*
X719448Y2224910D02*
G01*
X720551Y2224910D01*
X721651Y2224991D01*
X722743Y2225151D01*
X723818Y2225390D01*
X724875Y2225709D01*
X725906Y2226102D01*
X726903Y2226570D01*
X727865Y2227111D01*
X728786Y2227719D01*
X729659Y2228393D01*
X730480Y2229128D01*
X731246Y2229922D01*
X731952Y2230770D01*
X732593Y2231667D01*
X733168Y2232609D01*
X733672Y2233591D01*
X734104Y2234605D01*
X734459Y2235650D01*
X734738Y2236716D01*
X734938Y2237800D01*
X735059Y2238897D01*
X735100Y2240000D01*
X735059Y2241102D01*
X734938Y2242199D01*
X734738Y2243283D01*
X734459Y2244349D01*
X734104Y2245394D01*
X733672Y2246408D01*
X733168Y2247390D01*
X732593Y2248332D01*
X731952Y2249229D01*
X731246Y2250077D01*
X730480Y2250871D01*
X729659Y2251606D01*
X728786Y2252280D01*
X727865Y2252889D01*
X726903Y2253429D01*
X725906Y2253897D01*
X724875Y2254290D01*
X723818Y2254609D01*
X722743Y2254848D01*
X721651Y2255009D01*
X720551Y2255090D01*
X719448Y2255090D01*
X718348Y2255009D01*
X717256Y2254848D01*
X716181Y2254609D01*
X715124Y2254290D01*
X714094Y2253897D01*
X713096Y2253429D01*
X712134Y2252889D01*
X711214Y2252280D01*
X710340Y2251606D01*
X709519Y2250871D01*
X708753Y2250077D01*
X708047Y2249229D01*
X707406Y2248332D01*
X706831Y2247390D01*
X706327Y2246408D01*
X705895Y2245394D01*
X705540Y2244349D01*
X705261Y2243283D01*
X705061Y2242199D01*
X704940Y2241102D01*
X704899Y2240000D01*
X704940Y2238897D01*
X705061Y2237800D01*
X705261Y2236716D01*
X705540Y2235650D01*
X705895Y2234605D01*
X706327Y2233591D01*
X706831Y2232609D01*
X707406Y2231667D01*
X708047Y2230770D01*
X708753Y2229922D01*
X709519Y2229128D01*
X710340Y2228393D01*
X711214Y2227719D01*
X712134Y2227111D01*
X713096Y2226570D01*
X714094Y2226102D01*
X715124Y2225709D01*
X716181Y2225390D01*
X717256Y2225151D01*
X718348Y2224991D01*
G37*
G36*
X1234449Y2224910D02*
G01*
X1235550Y2224910D01*
X1236652Y2224991D01*
X1237743Y2225151D01*
X1238819Y2225390D01*
X1239875Y2225709D01*
X1240906Y2226102D01*
X1241904Y2226570D01*
X1242866Y2227111D01*
X1243786Y2227719D01*
X1244659Y2228393D01*
X1245480Y2229128D01*
X1246246Y2229922D01*
X1246952Y2230770D01*
X1247592Y2231667D01*
X1248167Y2232609D01*
X1248671Y2233591D01*
X1249103Y2234605D01*
X1249459Y2235650D01*
X1249738Y2236716D01*
X1249939Y2237800D01*
X1250060Y2238897D01*
X1250100Y2240000D01*
X1250060Y2241102D01*
X1249939Y2242199D01*
X1249738Y2243283D01*
X1249459Y2244349D01*
X1249103Y2245394D01*
X1248671Y2246408D01*
X1248167Y2247390D01*
X1247592Y2248332D01*
X1246952Y2249229D01*
X1246246Y2250077D01*
X1245480Y2250871D01*
X1244659Y2251606D01*
X1243786Y2252280D01*
X1242866Y2252889D01*
X1241904Y2253429D01*
X1240906Y2253897D01*
X1239875Y2254290D01*
X1238819Y2254609D01*
X1237743Y2254848D01*
X1236652Y2255009D01*
X1235550Y2255090D01*
X1234449Y2255090D01*
X1233347Y2255009D01*
X1232256Y2254848D01*
X1231180Y2254609D01*
X1230124Y2254290D01*
X1229093Y2253897D01*
X1228095Y2253429D01*
X1227133Y2252889D01*
X1226214Y2252280D01*
X1225340Y2251606D01*
X1224519Y2250871D01*
X1223753Y2250077D01*
X1223047Y2249229D01*
X1222407Y2248332D01*
X1221832Y2247390D01*
X1221328Y2246408D01*
X1220896Y2245394D01*
X1220540Y2244349D01*
X1220261Y2243283D01*
X1220060Y2242199D01*
X1219939Y2241102D01*
X1219899Y2240000D01*
X1219939Y2238897D01*
X1220060Y2237800D01*
X1220261Y2236716D01*
X1220540Y2235650D01*
X1220896Y2234605D01*
X1221328Y2233591D01*
X1221832Y2232609D01*
X1222407Y2231667D01*
X1223047Y2230770D01*
X1223753Y2229922D01*
X1224519Y2229128D01*
X1225340Y2228393D01*
X1226214Y2227719D01*
X1227133Y2227111D01*
X1228095Y2226570D01*
X1229093Y2226102D01*
X1230124Y2225709D01*
X1231180Y2225390D01*
X1232256Y2225151D01*
X1233347Y2224991D01*
G37*
G36*
X502564Y2248811D02*
G01*
X522480Y2248811D01*
X522352Y2249077D01*
X522283Y2249214D01*
X521718Y2250248D01*
X521644Y2250374D01*
X521030Y2251379D01*
X520949Y2251505D01*
X520286Y2252478D01*
X520198Y2252602D01*
X519486Y2253541D01*
X519394Y2253656D01*
X518636Y2254558D01*
X518539Y2254670D01*
X517737Y2255533D01*
X517631Y2255641D01*
X516788Y2256464D01*
X516680Y2256563D01*
X515797Y2257343D01*
X515682Y2257442D01*
X514760Y2258175D01*
X514641Y2258265D01*
X513685Y2258953D01*
X513562Y2259038D01*
X512572Y2259677D01*
X512444Y2259753D01*
X511424Y2260342D01*
X511295Y2260414D01*
X510246Y2260952D01*
X510111Y2261017D01*
X509038Y2261502D01*
X508899Y2261559D01*
X507802Y2261990D01*
X507665Y2262040D01*
X506549Y2262415D01*
X506403Y2262460D01*
X505268Y2262779D01*
X505124Y2262817D01*
X503976Y2263078D01*
X503829Y2263108D01*
X502669Y2263312D01*
X502564Y2263328D01*
G37*
G36*
X443279Y2248811D02*
G01*
X463195Y2248811D01*
X463195Y2263328D01*
X463090Y2263312D01*
X461930Y2263108D01*
X461783Y2263078D01*
X460635Y2262817D01*
X460491Y2262779D01*
X459357Y2262460D01*
X459211Y2262415D01*
X458094Y2262040D01*
X457957Y2261990D01*
X456860Y2261559D01*
X456721Y2261502D01*
X455648Y2261017D01*
X455513Y2260952D01*
X454465Y2260414D01*
X454335Y2260342D01*
X453314Y2259753D01*
X453188Y2259677D01*
X452197Y2259038D01*
X452073Y2258953D01*
X451118Y2258265D01*
X450999Y2258175D01*
X450077Y2257442D01*
X449962Y2257343D01*
X449079Y2256563D01*
X448971Y2256464D01*
X448128Y2255641D01*
X448022Y2255533D01*
X447220Y2254670D01*
X447123Y2254558D01*
X446365Y2253656D01*
X446273Y2253541D01*
X445561Y2252602D01*
X445473Y2252478D01*
X444810Y2251505D01*
X444729Y2251379D01*
X444115Y2250374D01*
X444041Y2250248D01*
X443476Y2249214D01*
X443407Y2249077D01*
G37*
G36*
X336026Y2248811D02*
G01*
X353973Y2248811D01*
X353845Y2249077D01*
X353775Y2249214D01*
X353211Y2250248D01*
X353137Y2250374D01*
X352523Y2251379D01*
X352442Y2251505D01*
X351779Y2252478D01*
X351691Y2252602D01*
X350979Y2253541D01*
X350886Y2253656D01*
X350129Y2254558D01*
X350032Y2254670D01*
X349230Y2255533D01*
X349124Y2255641D01*
X348281Y2256464D01*
X348173Y2256563D01*
X347291Y2257343D01*
X347175Y2257442D01*
X346253Y2258175D01*
X346134Y2258265D01*
X345178Y2258953D01*
X345055Y2259038D01*
X344065Y2259677D01*
X343937Y2259753D01*
X342917Y2260342D01*
X342788Y2260414D01*
X341739Y2260952D01*
X341604Y2261017D01*
X340531Y2261502D01*
X340392Y2261559D01*
X339295Y2261990D01*
X339158Y2262040D01*
X338042Y2262415D01*
X337896Y2262460D01*
X336761Y2262779D01*
X336617Y2262817D01*
X336026Y2262952D01*
G37*
G36*
X282647Y2248811D02*
G01*
X300592Y2248811D01*
X300592Y2262952D01*
X300001Y2262817D01*
X299857Y2262779D01*
X298724Y2262460D01*
X298578Y2262415D01*
X297462Y2262040D01*
X297325Y2261990D01*
X296228Y2261559D01*
X296089Y2261502D01*
X295016Y2261017D01*
X294879Y2260952D01*
X293832Y2260414D01*
X293701Y2260342D01*
X292681Y2259753D01*
X292555Y2259677D01*
X291565Y2259038D01*
X291440Y2258953D01*
X290484Y2258265D01*
X290365Y2258175D01*
X289445Y2257442D01*
X289328Y2257343D01*
X288445Y2256563D01*
X288337Y2256464D01*
X287494Y2255641D01*
X287388Y2255533D01*
X286588Y2254670D01*
X286489Y2254558D01*
X285733Y2253656D01*
X285641Y2253541D01*
X284929Y2252602D01*
X284839Y2252478D01*
X284176Y2251505D01*
X284095Y2251379D01*
X283481Y2250374D01*
X283407Y2250248D01*
X282844Y2249214D01*
X282775Y2249077D01*
G37*
G36*
X1139449Y2254910D02*
G01*
X1140550Y2254910D01*
X1141652Y2254991D01*
X1142743Y2255151D01*
X1143819Y2255390D01*
X1144875Y2255709D01*
X1145906Y2256102D01*
X1146904Y2256570D01*
X1147866Y2257111D01*
X1148786Y2257719D01*
X1149659Y2258393D01*
X1150480Y2259128D01*
X1151246Y2259922D01*
X1151952Y2260770D01*
X1152592Y2261667D01*
X1153167Y2262609D01*
X1153671Y2263591D01*
X1154103Y2264605D01*
X1154459Y2265650D01*
X1154738Y2266716D01*
X1154939Y2267800D01*
X1155060Y2268897D01*
X1155100Y2270000D01*
X1155060Y2271102D01*
X1154939Y2272199D01*
X1154738Y2273283D01*
X1154459Y2274349D01*
X1154103Y2275394D01*
X1153671Y2276408D01*
X1153167Y2277390D01*
X1152592Y2278332D01*
X1151952Y2279229D01*
X1151246Y2280077D01*
X1150480Y2280871D01*
X1149659Y2281606D01*
X1148786Y2282280D01*
X1147866Y2282889D01*
X1146904Y2283429D01*
X1145906Y2283897D01*
X1144875Y2284290D01*
X1143819Y2284609D01*
X1142743Y2284848D01*
X1141652Y2285009D01*
X1140550Y2285090D01*
X1139449Y2285090D01*
X1138347Y2285009D01*
X1137256Y2284848D01*
X1136180Y2284609D01*
X1135124Y2284290D01*
X1134093Y2283897D01*
X1133095Y2283429D01*
X1132133Y2282889D01*
X1131214Y2282280D01*
X1130340Y2281606D01*
X1129519Y2280871D01*
X1128753Y2280077D01*
X1128047Y2279229D01*
X1127407Y2278332D01*
X1126832Y2277390D01*
X1126328Y2276408D01*
X1125896Y2275394D01*
X1125540Y2274349D01*
X1125261Y2273283D01*
X1125060Y2272199D01*
X1124939Y2271102D01*
X1124899Y2270000D01*
X1124939Y2268897D01*
X1125060Y2267800D01*
X1125261Y2266716D01*
X1125540Y2265650D01*
X1125896Y2264605D01*
X1126328Y2263591D01*
X1126832Y2262609D01*
X1127407Y2261667D01*
X1128047Y2260770D01*
X1128753Y2259922D01*
X1129519Y2259128D01*
X1130340Y2258393D01*
X1131214Y2257719D01*
X1132133Y2257111D01*
X1133095Y2256570D01*
X1134093Y2256102D01*
X1135124Y2255709D01*
X1136180Y2255390D01*
X1137256Y2255151D01*
X1138347Y2254991D01*
G37*
G36*
X1194449Y2274910D02*
G01*
X1195550Y2274910D01*
X1196652Y2274991D01*
X1197743Y2275151D01*
X1198819Y2275390D01*
X1199875Y2275709D01*
X1200906Y2276102D01*
X1201904Y2276570D01*
X1202866Y2277111D01*
X1203786Y2277719D01*
X1204659Y2278393D01*
X1205480Y2279128D01*
X1206246Y2279922D01*
X1206952Y2280770D01*
X1207592Y2281667D01*
X1208167Y2282609D01*
X1208671Y2283591D01*
X1209103Y2284605D01*
X1209459Y2285650D01*
X1209738Y2286716D01*
X1209939Y2287800D01*
X1210060Y2288897D01*
X1210100Y2290000D01*
X1210060Y2291102D01*
X1209939Y2292199D01*
X1209738Y2293283D01*
X1209459Y2294349D01*
X1209103Y2295394D01*
X1208671Y2296408D01*
X1208167Y2297390D01*
X1207592Y2298332D01*
X1206952Y2299229D01*
X1206246Y2300077D01*
X1205480Y2300871D01*
X1204659Y2301606D01*
X1203786Y2302280D01*
X1202866Y2302889D01*
X1201904Y2303429D01*
X1200906Y2303897D01*
X1199875Y2304290D01*
X1198819Y2304609D01*
X1197743Y2304848D01*
X1196652Y2305009D01*
X1195550Y2305090D01*
X1194449Y2305090D01*
X1193347Y2305009D01*
X1192256Y2304848D01*
X1191180Y2304609D01*
X1190124Y2304290D01*
X1189093Y2303897D01*
X1188095Y2303429D01*
X1187133Y2302889D01*
X1186214Y2302280D01*
X1185340Y2301606D01*
X1184519Y2300871D01*
X1183753Y2300077D01*
X1183047Y2299229D01*
X1182407Y2298332D01*
X1181832Y2297390D01*
X1181328Y2296408D01*
X1180896Y2295394D01*
X1180540Y2294349D01*
X1180261Y2293283D01*
X1180060Y2292199D01*
X1179939Y2291102D01*
X1179899Y2290000D01*
X1179939Y2288897D01*
X1180060Y2287800D01*
X1180261Y2286716D01*
X1180540Y2285650D01*
X1180896Y2284605D01*
X1181328Y2283591D01*
X1181832Y2282609D01*
X1182407Y2281667D01*
X1183047Y2280770D01*
X1183753Y2279922D01*
X1184519Y2279128D01*
X1185340Y2278393D01*
X1186214Y2277719D01*
X1187133Y2277111D01*
X1188095Y2276570D01*
X1189093Y2276102D01*
X1190124Y2275709D01*
X1191180Y2275390D01*
X1192256Y2275151D01*
X1193347Y2274991D01*
G37*
G36*
X1104449Y2284910D02*
G01*
X1105550Y2284910D01*
X1106652Y2284991D01*
X1107743Y2285151D01*
X1108819Y2285390D01*
X1109875Y2285709D01*
X1110906Y2286102D01*
X1111904Y2286570D01*
X1112866Y2287111D01*
X1113786Y2287719D01*
X1114659Y2288393D01*
X1115480Y2289128D01*
X1116246Y2289922D01*
X1116952Y2290770D01*
X1117592Y2291667D01*
X1118167Y2292609D01*
X1118671Y2293591D01*
X1119103Y2294605D01*
X1119459Y2295650D01*
X1119738Y2296716D01*
X1119939Y2297800D01*
X1120060Y2298897D01*
X1120100Y2300000D01*
X1120060Y2301102D01*
X1119939Y2302199D01*
X1119738Y2303283D01*
X1119459Y2304349D01*
X1119103Y2305394D01*
X1118671Y2306408D01*
X1118167Y2307390D01*
X1117592Y2308332D01*
X1116952Y2309229D01*
X1116246Y2310077D01*
X1115480Y2310871D01*
X1114659Y2311606D01*
X1113786Y2312280D01*
X1112866Y2312889D01*
X1111904Y2313429D01*
X1110906Y2313897D01*
X1109875Y2314290D01*
X1108819Y2314609D01*
X1107743Y2314848D01*
X1106652Y2315009D01*
X1105550Y2315090D01*
X1104449Y2315090D01*
X1103347Y2315009D01*
X1102256Y2314848D01*
X1101180Y2314609D01*
X1100124Y2314290D01*
X1099093Y2313897D01*
X1098095Y2313429D01*
X1097133Y2312889D01*
X1096214Y2312280D01*
X1095340Y2311606D01*
X1094519Y2310871D01*
X1093753Y2310077D01*
X1093047Y2309229D01*
X1092407Y2308332D01*
X1091832Y2307390D01*
X1091328Y2306408D01*
X1090896Y2305394D01*
X1090540Y2304349D01*
X1090261Y2303283D01*
X1090060Y2302199D01*
X1089939Y2301102D01*
X1089899Y2300000D01*
X1089939Y2298897D01*
X1090060Y2297800D01*
X1090261Y2296716D01*
X1090540Y2295650D01*
X1090896Y2294605D01*
X1091328Y2293591D01*
X1091832Y2292609D01*
X1092407Y2291667D01*
X1093047Y2290770D01*
X1093753Y2289922D01*
X1094519Y2289128D01*
X1095340Y2288393D01*
X1096214Y2287719D01*
X1097133Y2287111D01*
X1098095Y2286570D01*
X1099093Y2286102D01*
X1100124Y2285709D01*
X1101180Y2285390D01*
X1102256Y2285151D01*
X1103347Y2284991D01*
G37*
G36*
X1619449Y2304910D02*
G01*
X1620550Y2304910D01*
X1621652Y2304991D01*
X1622743Y2305151D01*
X1623819Y2305390D01*
X1624875Y2305709D01*
X1625906Y2306102D01*
X1626904Y2306570D01*
X1627866Y2307111D01*
X1628786Y2307719D01*
X1629659Y2308393D01*
X1630480Y2309128D01*
X1631246Y2309922D01*
X1631952Y2310770D01*
X1632592Y2311667D01*
X1633167Y2312609D01*
X1633671Y2313591D01*
X1634103Y2314605D01*
X1634459Y2315650D01*
X1634738Y2316716D01*
X1634939Y2317800D01*
X1635060Y2318897D01*
X1635100Y2320000D01*
X1635060Y2321102D01*
X1634939Y2322199D01*
X1634738Y2323283D01*
X1634459Y2324349D01*
X1634103Y2325394D01*
X1633671Y2326408D01*
X1633167Y2327390D01*
X1632592Y2328332D01*
X1631952Y2329229D01*
X1631246Y2330077D01*
X1630480Y2330871D01*
X1629659Y2331606D01*
X1628786Y2332280D01*
X1627866Y2332889D01*
X1626904Y2333429D01*
X1625906Y2333897D01*
X1624875Y2334290D01*
X1623819Y2334609D01*
X1622743Y2334848D01*
X1621652Y2335009D01*
X1620550Y2335090D01*
X1619449Y2335090D01*
X1618347Y2335009D01*
X1617256Y2334848D01*
X1616180Y2334609D01*
X1615124Y2334290D01*
X1614093Y2333897D01*
X1613095Y2333429D01*
X1612133Y2332889D01*
X1611214Y2332280D01*
X1610340Y2331606D01*
X1609519Y2330871D01*
X1608753Y2330077D01*
X1608047Y2329229D01*
X1607407Y2328332D01*
X1606832Y2327390D01*
X1606328Y2326408D01*
X1605896Y2325394D01*
X1605540Y2324349D01*
X1605261Y2323283D01*
X1605060Y2322199D01*
X1604939Y2321102D01*
X1604899Y2320000D01*
X1604939Y2318897D01*
X1605060Y2317800D01*
X1605261Y2316716D01*
X1605540Y2315650D01*
X1605896Y2314605D01*
X1606328Y2313591D01*
X1606832Y2312609D01*
X1607407Y2311667D01*
X1608047Y2310770D01*
X1608753Y2309922D01*
X1609519Y2309128D01*
X1610340Y2308393D01*
X1611214Y2307719D01*
X1612133Y2307111D01*
X1613095Y2306570D01*
X1614093Y2306102D01*
X1615124Y2305709D01*
X1616180Y2305390D01*
X1617256Y2305151D01*
X1618347Y2304991D01*
G37*
G36*
X2629449Y2314910D02*
G01*
X2630550Y2314910D01*
X2631652Y2314991D01*
X2632743Y2315151D01*
X2633819Y2315390D01*
X2634875Y2315709D01*
X2635906Y2316102D01*
X2636904Y2316570D01*
X2637866Y2317111D01*
X2638786Y2317719D01*
X2639659Y2318393D01*
X2640481Y2319128D01*
X2641246Y2319922D01*
X2641952Y2320770D01*
X2642592Y2321667D01*
X2643167Y2322609D01*
X2643671Y2323591D01*
X2644103Y2324605D01*
X2644459Y2325650D01*
X2644738Y2326716D01*
X2644939Y2327800D01*
X2645060Y2328897D01*
X2645100Y2330000D01*
X2645060Y2331102D01*
X2644939Y2332199D01*
X2644738Y2333283D01*
X2644459Y2334349D01*
X2644103Y2335394D01*
X2643671Y2336408D01*
X2643167Y2337390D01*
X2642592Y2338332D01*
X2641952Y2339229D01*
X2641246Y2340077D01*
X2640481Y2340871D01*
X2639659Y2341606D01*
X2638786Y2342280D01*
X2637866Y2342889D01*
X2636904Y2343429D01*
X2635906Y2343897D01*
X2634875Y2344290D01*
X2633819Y2344609D01*
X2632743Y2344848D01*
X2631652Y2345009D01*
X2630550Y2345090D01*
X2629449Y2345090D01*
X2628347Y2345009D01*
X2627256Y2344848D01*
X2626180Y2344609D01*
X2625124Y2344290D01*
X2624093Y2343897D01*
X2623095Y2343429D01*
X2622133Y2342889D01*
X2621214Y2342280D01*
X2620340Y2341606D01*
X2619519Y2340871D01*
X2618753Y2340077D01*
X2618047Y2339229D01*
X2617407Y2338332D01*
X2616832Y2337390D01*
X2616328Y2336408D01*
X2615896Y2335394D01*
X2615540Y2334349D01*
X2615261Y2333283D01*
X2615060Y2332199D01*
X2614939Y2331102D01*
X2614899Y2330000D01*
X2614939Y2328897D01*
X2615060Y2327800D01*
X2615261Y2326716D01*
X2615540Y2325650D01*
X2615896Y2324605D01*
X2616328Y2323591D01*
X2616832Y2322609D01*
X2617407Y2321667D01*
X2618047Y2320770D01*
X2618753Y2319922D01*
X2619519Y2319128D01*
X2620340Y2318393D01*
X2621214Y2317719D01*
X2622133Y2317111D01*
X2623095Y2316570D01*
X2624093Y2316102D01*
X2625124Y2315709D01*
X2626180Y2315390D01*
X2627256Y2315151D01*
X2628347Y2314991D01*
G37*
G36*
X1904449Y2344910D02*
G01*
X1905550Y2344910D01*
X1906652Y2344991D01*
X1907743Y2345151D01*
X1908819Y2345390D01*
X1909875Y2345709D01*
X1910906Y2346102D01*
X1911904Y2346570D01*
X1912866Y2347111D01*
X1913786Y2347719D01*
X1914659Y2348393D01*
X1915480Y2349128D01*
X1916246Y2349922D01*
X1916952Y2350770D01*
X1917592Y2351667D01*
X1918167Y2352609D01*
X1918671Y2353591D01*
X1919103Y2354605D01*
X1919459Y2355650D01*
X1919738Y2356716D01*
X1919939Y2357800D01*
X1920060Y2358897D01*
X1920100Y2360000D01*
X1920060Y2361102D01*
X1919939Y2362199D01*
X1919738Y2363283D01*
X1919459Y2364349D01*
X1919103Y2365394D01*
X1918671Y2366408D01*
X1918167Y2367390D01*
X1917592Y2368332D01*
X1916952Y2369229D01*
X1916246Y2370077D01*
X1915480Y2370871D01*
X1914659Y2371606D01*
X1913786Y2372280D01*
X1912866Y2372889D01*
X1911904Y2373429D01*
X1910906Y2373897D01*
X1909875Y2374290D01*
X1908819Y2374609D01*
X1907743Y2374848D01*
X1906652Y2375009D01*
X1905550Y2375090D01*
X1904449Y2375090D01*
X1903347Y2375009D01*
X1902256Y2374848D01*
X1901180Y2374609D01*
X1900124Y2374290D01*
X1899093Y2373897D01*
X1898095Y2373429D01*
X1897133Y2372889D01*
X1896214Y2372280D01*
X1895340Y2371606D01*
X1894519Y2370871D01*
X1893753Y2370077D01*
X1893047Y2369229D01*
X1892407Y2368332D01*
X1891832Y2367390D01*
X1891328Y2366408D01*
X1890896Y2365394D01*
X1890540Y2364349D01*
X1890261Y2363283D01*
X1890060Y2362199D01*
X1889939Y2361102D01*
X1889899Y2360000D01*
X1889939Y2358897D01*
X1890060Y2357800D01*
X1890261Y2356716D01*
X1890540Y2355650D01*
X1890896Y2354605D01*
X1891328Y2353591D01*
X1891832Y2352609D01*
X1892407Y2351667D01*
X1893047Y2350770D01*
X1893753Y2349922D01*
X1894519Y2349128D01*
X1895340Y2348393D01*
X1896214Y2347719D01*
X1897133Y2347111D01*
X1898095Y2346570D01*
X1899093Y2346102D01*
X1900124Y2345709D01*
X1901180Y2345390D01*
X1902256Y2345151D01*
X1903347Y2344991D01*
G37*
G36*
X684448Y2409910D02*
G01*
X685551Y2409910D01*
X686651Y2409991D01*
X687743Y2410151D01*
X688818Y2410390D01*
X689875Y2410709D01*
X690906Y2411102D01*
X691903Y2411570D01*
X692865Y2412111D01*
X693786Y2412719D01*
X694659Y2413393D01*
X695480Y2414128D01*
X696246Y2414922D01*
X696952Y2415770D01*
X697593Y2416667D01*
X698168Y2417609D01*
X698672Y2418591D01*
X699104Y2419605D01*
X699459Y2420650D01*
X699738Y2421716D01*
X699938Y2422800D01*
X700059Y2423897D01*
X700100Y2425000D01*
X700059Y2426102D01*
X699938Y2427199D01*
X699738Y2428283D01*
X699459Y2429349D01*
X699104Y2430394D01*
X698672Y2431408D01*
X698168Y2432390D01*
X697593Y2433332D01*
X696952Y2434229D01*
X696246Y2435077D01*
X695480Y2435871D01*
X694659Y2436606D01*
X693786Y2437280D01*
X692865Y2437889D01*
X691903Y2438429D01*
X690906Y2438897D01*
X689875Y2439290D01*
X688818Y2439609D01*
X687743Y2439848D01*
X686651Y2440009D01*
X685551Y2440090D01*
X684448Y2440090D01*
X683348Y2440009D01*
X682256Y2439848D01*
X681181Y2439609D01*
X680124Y2439290D01*
X679094Y2438897D01*
X678096Y2438429D01*
X677134Y2437889D01*
X676214Y2437280D01*
X675340Y2436606D01*
X674519Y2435871D01*
X673753Y2435077D01*
X673047Y2434229D01*
X672406Y2433332D01*
X671831Y2432390D01*
X671327Y2431408D01*
X670895Y2430394D01*
X670540Y2429349D01*
X670261Y2428283D01*
X670061Y2427199D01*
X669940Y2426102D01*
X669899Y2425000D01*
X669940Y2423897D01*
X670061Y2422800D01*
X670261Y2421716D01*
X670540Y2420650D01*
X670895Y2419605D01*
X671327Y2418591D01*
X671831Y2417609D01*
X672406Y2416667D01*
X673047Y2415770D01*
X673753Y2414922D01*
X674519Y2414128D01*
X675340Y2413393D01*
X676214Y2412719D01*
X677134Y2412111D01*
X678096Y2411570D01*
X679094Y2411102D01*
X680124Y2410709D01*
X681181Y2410390D01*
X682256Y2410151D01*
X683348Y2409991D01*
G37*
G36*
X1614449Y2448449D02*
G01*
X1615550Y2448449D01*
X1616652Y2448530D01*
X1617743Y2448690D01*
X1618819Y2448930D01*
X1619875Y2449249D01*
X1620906Y2449643D01*
X1621904Y2450111D01*
X1622866Y2450650D01*
X1623786Y2451259D01*
X1624659Y2451932D01*
X1625480Y2452669D01*
X1626246Y2453463D01*
X1626952Y2454310D01*
X1627592Y2455207D01*
X1628167Y2456149D01*
X1628671Y2457130D01*
X1629103Y2458146D01*
X1629459Y2459189D01*
X1629738Y2460257D01*
X1629939Y2461341D01*
X1630060Y2462438D01*
X1630100Y2463539D01*
X1630060Y2464641D01*
X1629939Y2465738D01*
X1629738Y2466822D01*
X1629459Y2467890D01*
X1629103Y2468933D01*
X1628671Y2469949D01*
X1628167Y2470929D01*
X1627592Y2471871D01*
X1626952Y2472768D01*
X1626246Y2473616D01*
X1625480Y2474411D01*
X1624659Y2475147D01*
X1623786Y2475821D01*
X1622866Y2476428D01*
X1621904Y2476968D01*
X1620906Y2477437D01*
X1619875Y2477831D01*
X1618819Y2478148D01*
X1617743Y2478389D01*
X1616652Y2478548D01*
X1615550Y2478629D01*
X1614449Y2478629D01*
X1613347Y2478548D01*
X1612256Y2478389D01*
X1611180Y2478148D01*
X1610124Y2477831D01*
X1609093Y2477437D01*
X1608095Y2476968D01*
X1607133Y2476428D01*
X1606214Y2475821D01*
X1605340Y2475147D01*
X1604519Y2474411D01*
X1603753Y2473616D01*
X1603047Y2472768D01*
X1602407Y2471871D01*
X1601832Y2470929D01*
X1601328Y2469949D01*
X1600896Y2468933D01*
X1600540Y2467890D01*
X1600261Y2466822D01*
X1600060Y2465738D01*
X1599939Y2464641D01*
X1599899Y2463539D01*
X1599939Y2462438D01*
X1600060Y2461341D01*
X1600261Y2460257D01*
X1600540Y2459189D01*
X1600896Y2458146D01*
X1601328Y2457130D01*
X1601832Y2456149D01*
X1602407Y2455207D01*
X1603047Y2454310D01*
X1603753Y2453463D01*
X1604519Y2452669D01*
X1605340Y2451932D01*
X1606214Y2451259D01*
X1607133Y2450650D01*
X1608095Y2450111D01*
X1609093Y2449643D01*
X1610124Y2449249D01*
X1611180Y2448930D01*
X1612256Y2448690D01*
X1613347Y2448530D01*
G37*
G36*
X1764449Y2448449D02*
G01*
X1765550Y2448449D01*
X1766652Y2448530D01*
X1767743Y2448690D01*
X1768819Y2448930D01*
X1769875Y2449249D01*
X1770906Y2449643D01*
X1771904Y2450111D01*
X1772866Y2450650D01*
X1773786Y2451259D01*
X1774659Y2451932D01*
X1775480Y2452669D01*
X1776246Y2453463D01*
X1776952Y2454310D01*
X1777592Y2455207D01*
X1778167Y2456149D01*
X1778671Y2457130D01*
X1779103Y2458146D01*
X1779459Y2459189D01*
X1779738Y2460257D01*
X1779939Y2461341D01*
X1780060Y2462438D01*
X1780100Y2463539D01*
X1780060Y2464641D01*
X1779939Y2465738D01*
X1779738Y2466822D01*
X1779459Y2467890D01*
X1779103Y2468933D01*
X1778671Y2469949D01*
X1778167Y2470929D01*
X1777592Y2471871D01*
X1776952Y2472768D01*
X1776246Y2473616D01*
X1775480Y2474411D01*
X1774659Y2475147D01*
X1773786Y2475821D01*
X1772866Y2476428D01*
X1771904Y2476968D01*
X1770906Y2477437D01*
X1769875Y2477831D01*
X1768819Y2478148D01*
X1767743Y2478389D01*
X1766652Y2478548D01*
X1765550Y2478629D01*
X1764449Y2478629D01*
X1763347Y2478548D01*
X1762256Y2478389D01*
X1761180Y2478148D01*
X1760124Y2477831D01*
X1759093Y2477437D01*
X1758095Y2476968D01*
X1757133Y2476428D01*
X1756214Y2475821D01*
X1755340Y2475147D01*
X1754519Y2474411D01*
X1753753Y2473616D01*
X1753047Y2472768D01*
X1752407Y2471871D01*
X1751832Y2470929D01*
X1751328Y2469949D01*
X1750896Y2468933D01*
X1750540Y2467890D01*
X1750261Y2466822D01*
X1750060Y2465738D01*
X1749939Y2464641D01*
X1749899Y2463539D01*
X1749939Y2462438D01*
X1750060Y2461341D01*
X1750261Y2460257D01*
X1750540Y2459189D01*
X1750896Y2458146D01*
X1751328Y2457130D01*
X1751832Y2456149D01*
X1752407Y2455207D01*
X1753047Y2454310D01*
X1753753Y2453463D01*
X1754519Y2452669D01*
X1755340Y2451932D01*
X1756214Y2451259D01*
X1757133Y2450650D01*
X1758095Y2450111D01*
X1759093Y2449643D01*
X1760124Y2449249D01*
X1761180Y2448930D01*
X1762256Y2448690D01*
X1763347Y2448530D01*
G37*
G36*
X1866489Y2459910D02*
G01*
X1867591Y2459910D01*
X1868692Y2459991D01*
X1869782Y2460151D01*
X1870859Y2460390D01*
X1871914Y2460709D01*
X1872946Y2461102D01*
X1873944Y2461570D01*
X1874906Y2462111D01*
X1875825Y2462719D01*
X1876698Y2463393D01*
X1877520Y2464128D01*
X1878285Y2464922D01*
X1878991Y2465770D01*
X1879633Y2466667D01*
X1880208Y2467609D01*
X1880712Y2468591D01*
X1881144Y2469605D01*
X1881499Y2470650D01*
X1881778Y2471716D01*
X1881979Y2472800D01*
X1882100Y2473897D01*
X1882139Y2475000D01*
X1882100Y2476102D01*
X1881979Y2477199D01*
X1881778Y2478283D01*
X1881499Y2479349D01*
X1881144Y2480394D01*
X1880712Y2481408D01*
X1880208Y2482390D01*
X1879633Y2483332D01*
X1878991Y2484229D01*
X1878285Y2485077D01*
X1877520Y2485871D01*
X1876698Y2486606D01*
X1875825Y2487280D01*
X1874906Y2487889D01*
X1873944Y2488429D01*
X1872946Y2488897D01*
X1871914Y2489290D01*
X1870859Y2489609D01*
X1869782Y2489848D01*
X1868692Y2490009D01*
X1867591Y2490090D01*
X1866489Y2490090D01*
X1865388Y2490009D01*
X1864296Y2489848D01*
X1863221Y2489609D01*
X1862165Y2489290D01*
X1861134Y2488897D01*
X1860136Y2488429D01*
X1859174Y2487889D01*
X1858253Y2487280D01*
X1857380Y2486606D01*
X1856558Y2485871D01*
X1855793Y2485077D01*
X1855087Y2484229D01*
X1854447Y2483332D01*
X1853872Y2482390D01*
X1853368Y2481408D01*
X1852935Y2480394D01*
X1852579Y2479349D01*
X1852300Y2478283D01*
X1852101Y2477199D01*
X1851980Y2476102D01*
X1851940Y2475000D01*
X1851980Y2473897D01*
X1852101Y2472800D01*
X1852300Y2471716D01*
X1852579Y2470650D01*
X1852935Y2469605D01*
X1853368Y2468591D01*
X1853872Y2467609D01*
X1854447Y2466667D01*
X1855087Y2465770D01*
X1855793Y2464922D01*
X1856558Y2464128D01*
X1857380Y2463393D01*
X1858253Y2462719D01*
X1859174Y2462111D01*
X1860136Y2461570D01*
X1861134Y2461102D01*
X1862165Y2460709D01*
X1863221Y2460390D01*
X1864296Y2460151D01*
X1865388Y2459991D01*
G37*
G36*
X934449Y2469910D02*
G01*
X935550Y2469910D01*
X936652Y2469991D01*
X937743Y2470151D01*
X938819Y2470390D01*
X939875Y2470709D01*
X940906Y2471102D01*
X941904Y2471570D01*
X942866Y2472111D01*
X943786Y2472719D01*
X944659Y2473393D01*
X945480Y2474128D01*
X946246Y2474922D01*
X946952Y2475770D01*
X947592Y2476667D01*
X948167Y2477609D01*
X948671Y2478591D01*
X949103Y2479605D01*
X949459Y2480650D01*
X949738Y2481716D01*
X949939Y2482800D01*
X950060Y2483897D01*
X950100Y2485000D01*
X950060Y2486102D01*
X949939Y2487199D01*
X949738Y2488283D01*
X949459Y2489349D01*
X949103Y2490394D01*
X948671Y2491408D01*
X948167Y2492390D01*
X947592Y2493332D01*
X946952Y2494229D01*
X946246Y2495077D01*
X945480Y2495871D01*
X944659Y2496606D01*
X943786Y2497280D01*
X942866Y2497889D01*
X941904Y2498429D01*
X940906Y2498897D01*
X939875Y2499290D01*
X938819Y2499609D01*
X937743Y2499848D01*
X936652Y2500009D01*
X935550Y2500090D01*
X934449Y2500090D01*
X933347Y2500009D01*
X932256Y2499848D01*
X931180Y2499609D01*
X930124Y2499290D01*
X929093Y2498897D01*
X928095Y2498429D01*
X927133Y2497889D01*
X926214Y2497280D01*
X925340Y2496606D01*
X924519Y2495871D01*
X923753Y2495077D01*
X923047Y2494229D01*
X922407Y2493332D01*
X921832Y2492390D01*
X921328Y2491408D01*
X920896Y2490394D01*
X920540Y2489349D01*
X920261Y2488283D01*
X920060Y2487199D01*
X919939Y2486102D01*
X919899Y2485000D01*
X919939Y2483897D01*
X920060Y2482800D01*
X920261Y2481716D01*
X920540Y2480650D01*
X920896Y2479605D01*
X921328Y2478591D01*
X921832Y2477609D01*
X922407Y2476667D01*
X923047Y2475770D01*
X923753Y2474922D01*
X924519Y2474128D01*
X925340Y2473393D01*
X926214Y2472719D01*
X927133Y2472111D01*
X928095Y2471570D01*
X929093Y2471102D01*
X930124Y2470709D01*
X931180Y2470390D01*
X932256Y2470151D01*
X933347Y2469991D01*
G37*
G36*
X704448Y2469910D02*
G01*
X705551Y2469910D01*
X706651Y2469991D01*
X707743Y2470151D01*
X708818Y2470390D01*
X709875Y2470709D01*
X710906Y2471102D01*
X711903Y2471570D01*
X712865Y2472111D01*
X713786Y2472719D01*
X714659Y2473393D01*
X715480Y2474128D01*
X716246Y2474922D01*
X716952Y2475770D01*
X717593Y2476667D01*
X718168Y2477609D01*
X718672Y2478591D01*
X719104Y2479605D01*
X719459Y2480650D01*
X719738Y2481716D01*
X719938Y2482800D01*
X720059Y2483897D01*
X720100Y2485000D01*
X720059Y2486102D01*
X719938Y2487199D01*
X719738Y2488283D01*
X719459Y2489349D01*
X719104Y2490394D01*
X718672Y2491408D01*
X718168Y2492390D01*
X717593Y2493332D01*
X716952Y2494229D01*
X716246Y2495077D01*
X715480Y2495871D01*
X714659Y2496606D01*
X713786Y2497280D01*
X712865Y2497889D01*
X711903Y2498429D01*
X710906Y2498897D01*
X709875Y2499290D01*
X708818Y2499609D01*
X707743Y2499848D01*
X706651Y2500009D01*
X705551Y2500090D01*
X704448Y2500090D01*
X703348Y2500009D01*
X702256Y2499848D01*
X701181Y2499609D01*
X700124Y2499290D01*
X699094Y2498897D01*
X698096Y2498429D01*
X697134Y2497889D01*
X696214Y2497280D01*
X695340Y2496606D01*
X694519Y2495871D01*
X693753Y2495077D01*
X693047Y2494229D01*
X692406Y2493332D01*
X691831Y2492390D01*
X691327Y2491408D01*
X690895Y2490394D01*
X690540Y2489349D01*
X690261Y2488283D01*
X690061Y2487199D01*
X689940Y2486102D01*
X689899Y2485000D01*
X689940Y2483897D01*
X690061Y2482800D01*
X690261Y2481716D01*
X690540Y2480650D01*
X690895Y2479605D01*
X691327Y2478591D01*
X691831Y2477609D01*
X692406Y2476667D01*
X693047Y2475770D01*
X693753Y2474922D01*
X694519Y2474128D01*
X695340Y2473393D01*
X696214Y2472719D01*
X697134Y2472111D01*
X698096Y2471570D01*
X699094Y2471102D01*
X700124Y2470709D01*
X701181Y2470390D01*
X702256Y2470151D01*
X703348Y2469991D01*
G37*
G36*
X2849449Y2509910D02*
G01*
X2850550Y2509910D01*
X2851652Y2509991D01*
X2852743Y2510151D01*
X2853819Y2510390D01*
X2854875Y2510709D01*
X2855906Y2511102D01*
X2856904Y2511570D01*
X2857866Y2512111D01*
X2858786Y2512719D01*
X2859659Y2513393D01*
X2860481Y2514128D01*
X2861246Y2514922D01*
X2861952Y2515770D01*
X2862592Y2516667D01*
X2863167Y2517609D01*
X2863671Y2518591D01*
X2864103Y2519605D01*
X2864459Y2520650D01*
X2864738Y2521716D01*
X2864939Y2522800D01*
X2865060Y2523897D01*
X2865100Y2525000D01*
X2865060Y2526102D01*
X2864939Y2527199D01*
X2864738Y2528283D01*
X2864459Y2529349D01*
X2864103Y2530394D01*
X2863671Y2531408D01*
X2863167Y2532390D01*
X2862592Y2533332D01*
X2861952Y2534229D01*
X2861246Y2535077D01*
X2860481Y2535871D01*
X2859659Y2536606D01*
X2858786Y2537280D01*
X2857866Y2537889D01*
X2856904Y2538429D01*
X2855906Y2538897D01*
X2854875Y2539290D01*
X2853819Y2539609D01*
X2852743Y2539848D01*
X2851652Y2540009D01*
X2850550Y2540090D01*
X2849449Y2540090D01*
X2848347Y2540009D01*
X2847256Y2539848D01*
X2846180Y2539609D01*
X2845124Y2539290D01*
X2844093Y2538897D01*
X2843095Y2538429D01*
X2842133Y2537889D01*
X2841214Y2537280D01*
X2840340Y2536606D01*
X2839519Y2535871D01*
X2838753Y2535077D01*
X2838047Y2534229D01*
X2837407Y2533332D01*
X2836832Y2532390D01*
X2836328Y2531408D01*
X2835896Y2530394D01*
X2835540Y2529349D01*
X2835261Y2528283D01*
X2835060Y2527199D01*
X2834939Y2526102D01*
X2834899Y2525000D01*
X2834939Y2523897D01*
X2835060Y2522800D01*
X2835261Y2521716D01*
X2835540Y2520650D01*
X2835896Y2519605D01*
X2836328Y2518591D01*
X2836832Y2517609D01*
X2837407Y2516667D01*
X2838047Y2515770D01*
X2838753Y2514922D01*
X2839519Y2514128D01*
X2840340Y2513393D01*
X2841214Y2512719D01*
X2842133Y2512111D01*
X2843095Y2511570D01*
X2844093Y2511102D01*
X2845124Y2510709D01*
X2846180Y2510390D01*
X2847256Y2510151D01*
X2848347Y2509991D01*
G37*
G36*
X549448Y2534910D02*
G01*
X550551Y2534910D01*
X551651Y2534991D01*
X552743Y2535151D01*
X553818Y2535390D01*
X554875Y2535709D01*
X555906Y2536102D01*
X556903Y2536570D01*
X557865Y2537111D01*
X558786Y2537719D01*
X559659Y2538393D01*
X560480Y2539128D01*
X561246Y2539922D01*
X561952Y2540770D01*
X562593Y2541667D01*
X563168Y2542609D01*
X563672Y2543591D01*
X564104Y2544605D01*
X564459Y2545650D01*
X564738Y2546716D01*
X564938Y2547800D01*
X565059Y2548897D01*
X565100Y2550000D01*
X565059Y2551102D01*
X564938Y2552199D01*
X564738Y2553283D01*
X564459Y2554349D01*
X564104Y2555394D01*
X563672Y2556408D01*
X563168Y2557390D01*
X562593Y2558332D01*
X561952Y2559229D01*
X561246Y2560077D01*
X560480Y2560871D01*
X559659Y2561606D01*
X558786Y2562280D01*
X557865Y2562889D01*
X556903Y2563429D01*
X555906Y2563897D01*
X554875Y2564290D01*
X553818Y2564609D01*
X552743Y2564848D01*
X551651Y2565009D01*
X550551Y2565090D01*
X549448Y2565090D01*
X548348Y2565009D01*
X547256Y2564848D01*
X546181Y2564609D01*
X545124Y2564290D01*
X544094Y2563897D01*
X543096Y2563429D01*
X542134Y2562889D01*
X541214Y2562280D01*
X540340Y2561606D01*
X539519Y2560871D01*
X538753Y2560077D01*
X538047Y2559229D01*
X537406Y2558332D01*
X536831Y2557390D01*
X536327Y2556408D01*
X535895Y2555394D01*
X535540Y2554349D01*
X535261Y2553283D01*
X535061Y2552199D01*
X534940Y2551102D01*
X534899Y2550000D01*
X534940Y2548897D01*
X535061Y2547800D01*
X535261Y2546716D01*
X535540Y2545650D01*
X535895Y2544605D01*
X536327Y2543591D01*
X536831Y2542609D01*
X537406Y2541667D01*
X538047Y2540770D01*
X538753Y2539922D01*
X539519Y2539128D01*
X540340Y2538393D01*
X541214Y2537719D01*
X542134Y2537111D01*
X543096Y2536570D01*
X544094Y2536102D01*
X545124Y2535709D01*
X546181Y2535390D01*
X547256Y2535151D01*
X548348Y2534991D01*
G37*
G36*
X2129449Y2534910D02*
G01*
X2130550Y2534910D01*
X2131652Y2534991D01*
X2132743Y2535151D01*
X2133819Y2535390D01*
X2134875Y2535709D01*
X2135906Y2536102D01*
X2136904Y2536570D01*
X2137866Y2537111D01*
X2138786Y2537719D01*
X2139659Y2538393D01*
X2140481Y2539128D01*
X2141246Y2539922D01*
X2141952Y2540770D01*
X2142592Y2541667D01*
X2143167Y2542609D01*
X2143671Y2543591D01*
X2144103Y2544605D01*
X2144459Y2545650D01*
X2144738Y2546716D01*
X2144939Y2547800D01*
X2145060Y2548897D01*
X2145100Y2550000D01*
X2145060Y2551102D01*
X2144939Y2552199D01*
X2144738Y2553283D01*
X2144459Y2554349D01*
X2144103Y2555394D01*
X2143671Y2556408D01*
X2143167Y2557390D01*
X2142592Y2558332D01*
X2141952Y2559229D01*
X2141246Y2560077D01*
X2140481Y2560871D01*
X2139659Y2561606D01*
X2138786Y2562280D01*
X2137866Y2562889D01*
X2136904Y2563429D01*
X2135906Y2563897D01*
X2134875Y2564290D01*
X2133819Y2564609D01*
X2132743Y2564848D01*
X2131652Y2565009D01*
X2130550Y2565090D01*
X2129449Y2565090D01*
X2128347Y2565009D01*
X2127256Y2564848D01*
X2126180Y2564609D01*
X2125124Y2564290D01*
X2124093Y2563897D01*
X2123095Y2563429D01*
X2122133Y2562889D01*
X2121214Y2562280D01*
X2120340Y2561606D01*
X2119519Y2560871D01*
X2118753Y2560077D01*
X2118047Y2559229D01*
X2117407Y2558332D01*
X2116832Y2557390D01*
X2116328Y2556408D01*
X2115896Y2555394D01*
X2115540Y2554349D01*
X2115261Y2553283D01*
X2115060Y2552199D01*
X2114939Y2551102D01*
X2114899Y2550000D01*
X2114939Y2548897D01*
X2115060Y2547800D01*
X2115261Y2546716D01*
X2115540Y2545650D01*
X2115896Y2544605D01*
X2116328Y2543591D01*
X2116832Y2542609D01*
X2117407Y2541667D01*
X2118047Y2540770D01*
X2118753Y2539922D01*
X2119519Y2539128D01*
X2120340Y2538393D01*
X2121214Y2537719D01*
X2122133Y2537111D01*
X2123095Y2536570D01*
X2124093Y2536102D01*
X2125124Y2535709D01*
X2126180Y2535390D01*
X2127256Y2535151D01*
X2128347Y2534991D01*
G37*
G36*
X2224449Y2554910D02*
G01*
X2225550Y2554910D01*
X2226652Y2554991D01*
X2227743Y2555151D01*
X2228819Y2555390D01*
X2229875Y2555709D01*
X2230906Y2556102D01*
X2231904Y2556570D01*
X2232866Y2557111D01*
X2233786Y2557719D01*
X2234659Y2558393D01*
X2235481Y2559128D01*
X2236246Y2559922D01*
X2236952Y2560770D01*
X2237592Y2561667D01*
X2238167Y2562609D01*
X2238671Y2563591D01*
X2239103Y2564605D01*
X2239459Y2565650D01*
X2239738Y2566716D01*
X2239939Y2567800D01*
X2240060Y2568897D01*
X2240100Y2570000D01*
X2240060Y2571102D01*
X2239939Y2572199D01*
X2239738Y2573283D01*
X2239459Y2574349D01*
X2239103Y2575394D01*
X2238671Y2576408D01*
X2238167Y2577390D01*
X2237592Y2578332D01*
X2236952Y2579229D01*
X2236246Y2580077D01*
X2235481Y2580871D01*
X2234659Y2581606D01*
X2233786Y2582280D01*
X2232866Y2582889D01*
X2231904Y2583429D01*
X2230906Y2583897D01*
X2229875Y2584290D01*
X2228819Y2584609D01*
X2227743Y2584848D01*
X2226652Y2585009D01*
X2225550Y2585090D01*
X2224449Y2585090D01*
X2223347Y2585009D01*
X2222256Y2584848D01*
X2221180Y2584609D01*
X2220124Y2584290D01*
X2219093Y2583897D01*
X2218095Y2583429D01*
X2217133Y2582889D01*
X2216214Y2582280D01*
X2215340Y2581606D01*
X2214519Y2580871D01*
X2213753Y2580077D01*
X2213047Y2579229D01*
X2212407Y2578332D01*
X2211832Y2577390D01*
X2211328Y2576408D01*
X2210896Y2575394D01*
X2210540Y2574349D01*
X2210261Y2573283D01*
X2210060Y2572199D01*
X2209939Y2571102D01*
X2209899Y2570000D01*
X2209939Y2568897D01*
X2210060Y2567800D01*
X2210261Y2566716D01*
X2210540Y2565650D01*
X2210896Y2564605D01*
X2211328Y2563591D01*
X2211832Y2562609D01*
X2212407Y2561667D01*
X2213047Y2560770D01*
X2213753Y2559922D01*
X2214519Y2559128D01*
X2215340Y2558393D01*
X2216214Y2557719D01*
X2217133Y2557111D01*
X2218095Y2556570D01*
X2219093Y2556102D01*
X2220124Y2555709D01*
X2221180Y2555390D01*
X2222256Y2555151D01*
X2223347Y2554991D01*
G37*
G36*
X2284449Y2574910D02*
G01*
X2285550Y2574910D01*
X2286652Y2574991D01*
X2287743Y2575151D01*
X2288819Y2575390D01*
X2289875Y2575709D01*
X2290906Y2576102D01*
X2291904Y2576570D01*
X2292866Y2577111D01*
X2293786Y2577719D01*
X2294659Y2578393D01*
X2295481Y2579128D01*
X2296246Y2579922D01*
X2296952Y2580770D01*
X2297592Y2581667D01*
X2298167Y2582609D01*
X2298671Y2583591D01*
X2299103Y2584605D01*
X2299459Y2585650D01*
X2299738Y2586716D01*
X2299939Y2587800D01*
X2300060Y2588897D01*
X2300100Y2590000D01*
X2300060Y2591102D01*
X2299939Y2592199D01*
X2299738Y2593283D01*
X2299459Y2594349D01*
X2299103Y2595394D01*
X2298671Y2596408D01*
X2298167Y2597390D01*
X2297592Y2598332D01*
X2296952Y2599229D01*
X2296246Y2600077D01*
X2295481Y2600871D01*
X2294659Y2601606D01*
X2293786Y2602280D01*
X2292866Y2602889D01*
X2291904Y2603429D01*
X2290906Y2603897D01*
X2289875Y2604290D01*
X2288819Y2604609D01*
X2287743Y2604848D01*
X2286652Y2605009D01*
X2285550Y2605090D01*
X2284449Y2605090D01*
X2283347Y2605009D01*
X2282256Y2604848D01*
X2281180Y2604609D01*
X2280124Y2604290D01*
X2279093Y2603897D01*
X2278095Y2603429D01*
X2277133Y2602889D01*
X2276214Y2602280D01*
X2275340Y2601606D01*
X2274519Y2600871D01*
X2273753Y2600077D01*
X2273047Y2599229D01*
X2272407Y2598332D01*
X2271832Y2597390D01*
X2271328Y2596408D01*
X2270896Y2595394D01*
X2270540Y2594349D01*
X2270261Y2593283D01*
X2270060Y2592199D01*
X2269939Y2591102D01*
X2269899Y2590000D01*
X2269939Y2588897D01*
X2270060Y2587800D01*
X2270261Y2586716D01*
X2270540Y2585650D01*
X2270896Y2584605D01*
X2271328Y2583591D01*
X2271832Y2582609D01*
X2272407Y2581667D01*
X2273047Y2580770D01*
X2273753Y2579922D01*
X2274519Y2579128D01*
X2275340Y2578393D01*
X2276214Y2577719D01*
X2277133Y2577111D01*
X2278095Y2576570D01*
X2279093Y2576102D01*
X2280124Y2575709D01*
X2281180Y2575390D01*
X2282256Y2575151D01*
X2283347Y2574991D01*
G37*
G36*
X2384449Y2599910D02*
G01*
X2385550Y2599910D01*
X2386652Y2599991D01*
X2387743Y2600151D01*
X2388819Y2600390D01*
X2389875Y2600709D01*
X2390906Y2601102D01*
X2391904Y2601570D01*
X2392866Y2602111D01*
X2393786Y2602719D01*
X2394659Y2603393D01*
X2395481Y2604128D01*
X2396246Y2604922D01*
X2396952Y2605770D01*
X2397592Y2606667D01*
X2398167Y2607609D01*
X2398671Y2608591D01*
X2399103Y2609605D01*
X2399459Y2610650D01*
X2399738Y2611716D01*
X2399939Y2612800D01*
X2400060Y2613897D01*
X2400100Y2615000D01*
X2400060Y2616102D01*
X2399939Y2617199D01*
X2399738Y2618283D01*
X2399459Y2619349D01*
X2399103Y2620394D01*
X2398671Y2621408D01*
X2398167Y2622390D01*
X2397592Y2623332D01*
X2396952Y2624229D01*
X2396246Y2625077D01*
X2395481Y2625871D01*
X2394659Y2626606D01*
X2393786Y2627280D01*
X2392866Y2627889D01*
X2391904Y2628429D01*
X2390906Y2628897D01*
X2389875Y2629290D01*
X2388819Y2629609D01*
X2387743Y2629848D01*
X2386652Y2630009D01*
X2385550Y2630090D01*
X2384449Y2630090D01*
X2383347Y2630009D01*
X2382256Y2629848D01*
X2381180Y2629609D01*
X2380124Y2629290D01*
X2379093Y2628897D01*
X2378095Y2628429D01*
X2377133Y2627889D01*
X2376214Y2627280D01*
X2375340Y2626606D01*
X2374519Y2625871D01*
X2373753Y2625077D01*
X2373047Y2624229D01*
X2372407Y2623332D01*
X2371832Y2622390D01*
X2371328Y2621408D01*
X2370896Y2620394D01*
X2370540Y2619349D01*
X2370261Y2618283D01*
X2370060Y2617199D01*
X2369939Y2616102D01*
X2369899Y2615000D01*
X2369939Y2613897D01*
X2370060Y2612800D01*
X2370261Y2611716D01*
X2370540Y2610650D01*
X2370896Y2609605D01*
X2371328Y2608591D01*
X2371832Y2607609D01*
X2372407Y2606667D01*
X2373047Y2605770D01*
X2373753Y2604922D01*
X2374519Y2604128D01*
X2375340Y2603393D01*
X2376214Y2602719D01*
X2377133Y2602111D01*
X2378095Y2601570D01*
X2379093Y2601102D01*
X2380124Y2600709D01*
X2381180Y2600390D01*
X2382256Y2600151D01*
X2383347Y2599991D01*
G37*
G36*
X2935466Y2601903D02*
G01*
X2937332Y2601963D01*
X2939194Y2602105D01*
X2941049Y2602327D01*
X2942893Y2602629D01*
X2944720Y2603009D01*
X2946530Y2603470D01*
X2948319Y2604009D01*
X2950082Y2604625D01*
X2951817Y2605315D01*
X2953519Y2606082D01*
X2955187Y2606921D01*
X2956818Y2607831D01*
X2958409Y2608811D01*
X2959953Y2609859D01*
X2961453Y2610972D01*
X2962902Y2612150D01*
X2964299Y2613389D01*
X2965640Y2614688D01*
X2966925Y2616044D01*
X2968149Y2617455D01*
X2969312Y2618917D01*
X2970408Y2620428D01*
X2971440Y2621984D01*
X2972403Y2623584D01*
X2973296Y2625225D01*
X2974116Y2626903D01*
X2974863Y2628613D01*
X2975536Y2630356D01*
X2976131Y2632125D01*
X2976651Y2633919D01*
X2977092Y2635734D01*
X2977453Y2637566D01*
X2977736Y2639412D01*
X2977938Y2641269D01*
X2978059Y2643132D01*
X2978100Y2645000D01*
X2978059Y2646867D01*
X2977938Y2648730D01*
X2977736Y2650587D01*
X2977453Y2652433D01*
X2977092Y2654265D01*
X2976651Y2656080D01*
X2976131Y2657874D01*
X2975536Y2659643D01*
X2974863Y2661386D01*
X2974116Y2663096D01*
X2973296Y2664774D01*
X2972403Y2666415D01*
X2971440Y2668015D01*
X2970408Y2669571D01*
X2969312Y2671082D01*
X2968149Y2672545D01*
X2966925Y2673955D01*
X2965640Y2675311D01*
X2964299Y2676610D01*
X2962902Y2677849D01*
X2961453Y2679027D01*
X2959953Y2680140D01*
X2958409Y2681188D01*
X2956818Y2682168D01*
X2955187Y2683078D01*
X2953519Y2683917D01*
X2951817Y2684684D01*
X2950082Y2685374D01*
X2948319Y2685990D01*
X2946530Y2686529D01*
X2944720Y2686990D01*
X2942893Y2687370D01*
X2941049Y2687673D01*
X2939194Y2687894D01*
X2937332Y2688036D01*
X2935466Y2688096D01*
X2933599Y2688076D01*
X2931734Y2687975D01*
X2929876Y2687793D01*
X2928027Y2687532D01*
X2926190Y2687190D01*
X2924372Y2686768D01*
X2922573Y2686269D01*
X2920796Y2685691D01*
X2919047Y2685039D01*
X2917327Y2684310D01*
X2915640Y2683508D01*
X2913990Y2682633D01*
X2912380Y2681687D01*
X2910812Y2680673D01*
X2909290Y2679591D01*
X2907816Y2678445D01*
X2906392Y2677237D01*
X2905023Y2675967D01*
X2903710Y2674639D01*
X2902455Y2673256D01*
X2901261Y2671819D01*
X2900131Y2670333D01*
X2899066Y2668798D01*
X2898068Y2667220D01*
X2897142Y2665599D01*
X2896284Y2663939D01*
X2895501Y2662246D01*
X2894790Y2660518D01*
X2894156Y2658762D01*
X2893598Y2656979D01*
X2893118Y2655174D01*
X2892717Y2653350D01*
X2892394Y2651511D01*
X2892152Y2649659D01*
X2891990Y2647799D01*
X2891909Y2645934D01*
X2891909Y2644065D01*
X2891990Y2642201D01*
X2892152Y2640340D01*
X2892394Y2638488D01*
X2892717Y2636649D01*
X2893118Y2634825D01*
X2893598Y2633020D01*
X2894156Y2631237D01*
X2894790Y2629481D01*
X2895501Y2627754D01*
X2896284Y2626060D01*
X2897142Y2624400D01*
X2898068Y2622779D01*
X2899066Y2621201D01*
X2900131Y2619666D01*
X2901261Y2618180D01*
X2902455Y2616743D01*
X2903710Y2615360D01*
X2905023Y2614032D01*
X2906392Y2612763D01*
X2907816Y2611554D01*
X2909290Y2610408D01*
X2910812Y2609326D01*
X2912380Y2608312D01*
X2913990Y2607366D01*
X2915640Y2606491D01*
X2917327Y2605689D01*
X2919047Y2604960D01*
X2920796Y2604308D01*
X2922573Y2603730D01*
X2924372Y2603231D01*
X2926190Y2602809D01*
X2928027Y2602467D01*
X2929876Y2602206D01*
X2931734Y2602024D01*
X2933599Y2601923D01*
G37*
G36*
X370466Y2616903D02*
G01*
X372332Y2616963D01*
X374194Y2617105D01*
X376050Y2617327D01*
X377892Y2617629D01*
X379720Y2618009D01*
X381529Y2618470D01*
X383319Y2619009D01*
X385082Y2619625D01*
X386817Y2620315D01*
X388519Y2621082D01*
X390187Y2621921D01*
X391819Y2622831D01*
X393409Y2623811D01*
X394953Y2624859D01*
X396453Y2625972D01*
X397901Y2627150D01*
X399299Y2628389D01*
X400641Y2629688D01*
X401925Y2631044D01*
X403150Y2632455D01*
X404311Y2633917D01*
X405408Y2635428D01*
X406439Y2636984D01*
X407402Y2638584D01*
X408296Y2640225D01*
X409117Y2641903D01*
X409863Y2643613D01*
X410536Y2645356D01*
X411131Y2647125D01*
X411651Y2648919D01*
X412091Y2650734D01*
X412453Y2652566D01*
X412735Y2654412D01*
X412937Y2656269D01*
X413060Y2658132D01*
X413099Y2660000D01*
X413060Y2661867D01*
X412937Y2663730D01*
X412735Y2665587D01*
X412453Y2667433D01*
X412091Y2669265D01*
X411651Y2671080D01*
X411131Y2672874D01*
X410536Y2674643D01*
X409863Y2676386D01*
X409117Y2678096D01*
X408296Y2679774D01*
X407402Y2681415D01*
X406439Y2683015D01*
X405408Y2684571D01*
X404311Y2686082D01*
X403150Y2687545D01*
X401925Y2688955D01*
X400641Y2690311D01*
X399299Y2691610D01*
X397901Y2692849D01*
X396453Y2694027D01*
X394953Y2695140D01*
X393409Y2696188D01*
X391819Y2697168D01*
X390187Y2698078D01*
X388519Y2698917D01*
X386817Y2699684D01*
X385082Y2700374D01*
X383319Y2700990D01*
X381529Y2701529D01*
X379720Y2701990D01*
X377892Y2702370D01*
X376050Y2702673D01*
X374194Y2702894D01*
X372332Y2703036D01*
X370466Y2703096D01*
X368600Y2703076D01*
X366734Y2702975D01*
X364875Y2702793D01*
X363027Y2702532D01*
X361190Y2702190D01*
X359371Y2701768D01*
X357573Y2701269D01*
X355796Y2700691D01*
X354047Y2700039D01*
X352328Y2699310D01*
X350641Y2698508D01*
X348991Y2697633D01*
X347381Y2696687D01*
X345812Y2695673D01*
X344290Y2694591D01*
X342815Y2693445D01*
X341392Y2692237D01*
X340023Y2690967D01*
X338710Y2689639D01*
X337454Y2688256D01*
X336262Y2686819D01*
X335131Y2685333D01*
X334067Y2683798D01*
X333069Y2682220D01*
X332141Y2680599D01*
X331284Y2678939D01*
X330500Y2677246D01*
X329791Y2675518D01*
X329155Y2673762D01*
X328598Y2671979D01*
X328117Y2670174D01*
X327716Y2668350D01*
X327395Y2666511D01*
X327152Y2664659D01*
X326990Y2662799D01*
X326909Y2660934D01*
X326909Y2659065D01*
X326990Y2657201D01*
X327152Y2655340D01*
X327395Y2653488D01*
X327716Y2651649D01*
X328117Y2649825D01*
X328598Y2648020D01*
X329155Y2646237D01*
X329791Y2644481D01*
X330500Y2642754D01*
X331284Y2641060D01*
X332141Y2639400D01*
X333069Y2637779D01*
X334067Y2636201D01*
X335131Y2634666D01*
X336262Y2633180D01*
X337454Y2631743D01*
X338710Y2630360D01*
X340023Y2629032D01*
X341392Y2627763D01*
X342815Y2626554D01*
X344290Y2625408D01*
X345812Y2624326D01*
X347381Y2623312D01*
X348991Y2622366D01*
X350641Y2621491D01*
X352328Y2620689D01*
X354047Y2619960D01*
X355796Y2619308D01*
X357573Y2618730D01*
X359371Y2618231D01*
X361190Y2617809D01*
X363027Y2617467D01*
X364875Y2617206D01*
X366734Y2617024D01*
X368600Y2616923D01*
G37*
G36*
X2329449Y2624910D02*
G01*
X2330550Y2624910D01*
X2331652Y2624991D01*
X2332743Y2625151D01*
X2333819Y2625390D01*
X2334875Y2625709D01*
X2335906Y2626102D01*
X2336904Y2626570D01*
X2337866Y2627111D01*
X2338786Y2627719D01*
X2339659Y2628393D01*
X2340481Y2629128D01*
X2341246Y2629922D01*
X2341952Y2630770D01*
X2342592Y2631667D01*
X2343167Y2632609D01*
X2343671Y2633591D01*
X2344103Y2634605D01*
X2344459Y2635650D01*
X2344738Y2636716D01*
X2344939Y2637800D01*
X2345060Y2638897D01*
X2345100Y2640000D01*
X2345060Y2641102D01*
X2344939Y2642199D01*
X2344738Y2643283D01*
X2344459Y2644349D01*
X2344103Y2645394D01*
X2343671Y2646408D01*
X2343167Y2647390D01*
X2342592Y2648332D01*
X2341952Y2649229D01*
X2341246Y2650077D01*
X2340481Y2650871D01*
X2339659Y2651606D01*
X2338786Y2652280D01*
X2337866Y2652889D01*
X2336904Y2653429D01*
X2335906Y2653897D01*
X2334875Y2654290D01*
X2333819Y2654609D01*
X2332743Y2654848D01*
X2331652Y2655009D01*
X2330550Y2655090D01*
X2329449Y2655090D01*
X2328347Y2655009D01*
X2327256Y2654848D01*
X2326180Y2654609D01*
X2325124Y2654290D01*
X2324093Y2653897D01*
X2323095Y2653429D01*
X2322133Y2652889D01*
X2321214Y2652280D01*
X2320340Y2651606D01*
X2319519Y2650871D01*
X2318753Y2650077D01*
X2318047Y2649229D01*
X2317407Y2648332D01*
X2316832Y2647390D01*
X2316328Y2646408D01*
X2315896Y2645394D01*
X2315540Y2644349D01*
X2315261Y2643283D01*
X2315060Y2642199D01*
X2314939Y2641102D01*
X2314899Y2640000D01*
X2314939Y2638897D01*
X2315060Y2637800D01*
X2315261Y2636716D01*
X2315540Y2635650D01*
X2315896Y2634605D01*
X2316328Y2633591D01*
X2316832Y2632609D01*
X2317407Y2631667D01*
X2318047Y2630770D01*
X2318753Y2629922D01*
X2319519Y2629128D01*
X2320340Y2628393D01*
X2321214Y2627719D01*
X2322133Y2627111D01*
X2323095Y2626570D01*
X2324093Y2626102D01*
X2325124Y2625709D01*
X2326180Y2625390D01*
X2327256Y2625151D01*
X2328347Y2624991D01*
G37*
G36*
X2574449Y2639910D02*
G01*
X2575550Y2639910D01*
X2576652Y2639991D01*
X2577743Y2640151D01*
X2578819Y2640390D01*
X2579875Y2640709D01*
X2580906Y2641102D01*
X2581904Y2641570D01*
X2582866Y2642111D01*
X2583786Y2642719D01*
X2584659Y2643393D01*
X2585481Y2644128D01*
X2586246Y2644922D01*
X2586952Y2645770D01*
X2587592Y2646667D01*
X2588167Y2647609D01*
X2588671Y2648591D01*
X2589103Y2649605D01*
X2589459Y2650650D01*
X2589738Y2651716D01*
X2589939Y2652800D01*
X2590060Y2653897D01*
X2590100Y2655000D01*
X2590060Y2656102D01*
X2589939Y2657199D01*
X2589738Y2658283D01*
X2589459Y2659349D01*
X2589103Y2660394D01*
X2588671Y2661408D01*
X2588167Y2662390D01*
X2587592Y2663332D01*
X2586952Y2664229D01*
X2586246Y2665077D01*
X2585481Y2665871D01*
X2584659Y2666606D01*
X2583786Y2667280D01*
X2582866Y2667889D01*
X2581904Y2668429D01*
X2580906Y2668897D01*
X2579875Y2669290D01*
X2578819Y2669609D01*
X2577743Y2669848D01*
X2576652Y2670009D01*
X2575550Y2670090D01*
X2574449Y2670090D01*
X2573347Y2670009D01*
X2572256Y2669848D01*
X2571180Y2669609D01*
X2570124Y2669290D01*
X2569093Y2668897D01*
X2568095Y2668429D01*
X2567133Y2667889D01*
X2566214Y2667280D01*
X2565340Y2666606D01*
X2564519Y2665871D01*
X2563753Y2665077D01*
X2563047Y2664229D01*
X2562407Y2663332D01*
X2561832Y2662390D01*
X2561328Y2661408D01*
X2560896Y2660394D01*
X2560540Y2659349D01*
X2560261Y2658283D01*
X2560060Y2657199D01*
X2559939Y2656102D01*
X2559899Y2655000D01*
X2559939Y2653897D01*
X2560060Y2652800D01*
X2560261Y2651716D01*
X2560540Y2650650D01*
X2560896Y2649605D01*
X2561328Y2648591D01*
X2561832Y2647609D01*
X2562407Y2646667D01*
X2563047Y2645770D01*
X2563753Y2644922D01*
X2564519Y2644128D01*
X2565340Y2643393D01*
X2566214Y2642719D01*
X2567133Y2642111D01*
X2568095Y2641570D01*
X2569093Y2641102D01*
X2570124Y2640709D01*
X2571180Y2640390D01*
X2572256Y2640151D01*
X2573347Y2639991D01*
G37*
G36*
X2689449Y2639910D02*
G01*
X2690550Y2639910D01*
X2691652Y2639991D01*
X2692743Y2640151D01*
X2693819Y2640390D01*
X2694875Y2640709D01*
X2695906Y2641102D01*
X2696904Y2641570D01*
X2697866Y2642111D01*
X2698786Y2642719D01*
X2699659Y2643393D01*
X2700481Y2644128D01*
X2701246Y2644922D01*
X2701952Y2645770D01*
X2702592Y2646667D01*
X2703167Y2647609D01*
X2703671Y2648591D01*
X2704103Y2649605D01*
X2704459Y2650650D01*
X2704738Y2651716D01*
X2704939Y2652800D01*
X2705060Y2653897D01*
X2705100Y2655000D01*
X2705060Y2656102D01*
X2704939Y2657199D01*
X2704738Y2658283D01*
X2704459Y2659349D01*
X2704103Y2660394D01*
X2703671Y2661408D01*
X2703167Y2662390D01*
X2702592Y2663332D01*
X2701952Y2664229D01*
X2701246Y2665077D01*
X2700481Y2665871D01*
X2699659Y2666606D01*
X2698786Y2667280D01*
X2697866Y2667889D01*
X2696904Y2668429D01*
X2695906Y2668897D01*
X2694875Y2669290D01*
X2693819Y2669609D01*
X2692743Y2669848D01*
X2691652Y2670009D01*
X2690550Y2670090D01*
X2689449Y2670090D01*
X2688347Y2670009D01*
X2687256Y2669848D01*
X2686180Y2669609D01*
X2685124Y2669290D01*
X2684093Y2668897D01*
X2683095Y2668429D01*
X2682133Y2667889D01*
X2681214Y2667280D01*
X2680340Y2666606D01*
X2679519Y2665871D01*
X2678753Y2665077D01*
X2678047Y2664229D01*
X2677407Y2663332D01*
X2676832Y2662390D01*
X2676328Y2661408D01*
X2675896Y2660394D01*
X2675540Y2659349D01*
X2675261Y2658283D01*
X2675060Y2657199D01*
X2674939Y2656102D01*
X2674899Y2655000D01*
X2674939Y2653897D01*
X2675060Y2652800D01*
X2675261Y2651716D01*
X2675540Y2650650D01*
X2675896Y2649605D01*
X2676328Y2648591D01*
X2676832Y2647609D01*
X2677407Y2646667D01*
X2678047Y2645770D01*
X2678753Y2644922D01*
X2679519Y2644128D01*
X2680340Y2643393D01*
X2681214Y2642719D01*
X2682133Y2642111D01*
X2683095Y2641570D01*
X2684093Y2641102D01*
X2685124Y2640709D01*
X2686180Y2640390D01*
X2687256Y2640151D01*
X2688347Y2639991D01*
G37*
G36*
X2434449Y2639910D02*
G01*
X2435550Y2639910D01*
X2436652Y2639991D01*
X2437743Y2640151D01*
X2438819Y2640390D01*
X2439875Y2640709D01*
X2440906Y2641102D01*
X2441904Y2641570D01*
X2442866Y2642111D01*
X2443786Y2642719D01*
X2444659Y2643393D01*
X2445481Y2644128D01*
X2446246Y2644922D01*
X2446952Y2645770D01*
X2447592Y2646667D01*
X2448167Y2647609D01*
X2448671Y2648591D01*
X2449103Y2649605D01*
X2449459Y2650650D01*
X2449738Y2651716D01*
X2449939Y2652800D01*
X2450060Y2653897D01*
X2450100Y2655000D01*
X2450060Y2656102D01*
X2449939Y2657199D01*
X2449738Y2658283D01*
X2449459Y2659349D01*
X2449103Y2660394D01*
X2448671Y2661408D01*
X2448167Y2662390D01*
X2447592Y2663332D01*
X2446952Y2664229D01*
X2446246Y2665077D01*
X2445481Y2665871D01*
X2444659Y2666606D01*
X2443786Y2667280D01*
X2442866Y2667889D01*
X2441904Y2668429D01*
X2440906Y2668897D01*
X2439875Y2669290D01*
X2438819Y2669609D01*
X2437743Y2669848D01*
X2436652Y2670009D01*
X2435550Y2670090D01*
X2434449Y2670090D01*
X2433347Y2670009D01*
X2432256Y2669848D01*
X2431180Y2669609D01*
X2430124Y2669290D01*
X2429093Y2668897D01*
X2428095Y2668429D01*
X2427133Y2667889D01*
X2426214Y2667280D01*
X2425340Y2666606D01*
X2424519Y2665871D01*
X2423753Y2665077D01*
X2423047Y2664229D01*
X2422407Y2663332D01*
X2421832Y2662390D01*
X2421328Y2661408D01*
X2420896Y2660394D01*
X2420540Y2659349D01*
X2420261Y2658283D01*
X2420060Y2657199D01*
X2419939Y2656102D01*
X2419899Y2655000D01*
X2419939Y2653897D01*
X2420060Y2652800D01*
X2420261Y2651716D01*
X2420540Y2650650D01*
X2420896Y2649605D01*
X2421328Y2648591D01*
X2421832Y2647609D01*
X2422407Y2646667D01*
X2423047Y2645770D01*
X2423753Y2644922D01*
X2424519Y2644128D01*
X2425340Y2643393D01*
X2426214Y2642719D01*
X2427133Y2642111D01*
X2428095Y2641570D01*
X2429093Y2641102D01*
X2430124Y2640709D01*
X2431180Y2640390D01*
X2432256Y2640151D01*
X2433347Y2639991D01*
G37*
G36*
X2479449Y2659910D02*
G01*
X2480550Y2659910D01*
X2481652Y2659991D01*
X2482743Y2660151D01*
X2483819Y2660390D01*
X2484875Y2660709D01*
X2485906Y2661102D01*
X2486904Y2661570D01*
X2487866Y2662111D01*
X2488786Y2662719D01*
X2489659Y2663393D01*
X2490481Y2664128D01*
X2491246Y2664922D01*
X2491952Y2665770D01*
X2492592Y2666667D01*
X2493167Y2667609D01*
X2493671Y2668591D01*
X2494103Y2669605D01*
X2494459Y2670650D01*
X2494738Y2671716D01*
X2494939Y2672800D01*
X2495060Y2673897D01*
X2495100Y2675000D01*
X2495060Y2676102D01*
X2494939Y2677199D01*
X2494738Y2678283D01*
X2494459Y2679349D01*
X2494103Y2680394D01*
X2493671Y2681408D01*
X2493167Y2682390D01*
X2492592Y2683332D01*
X2491952Y2684229D01*
X2491246Y2685077D01*
X2490481Y2685871D01*
X2489659Y2686606D01*
X2488786Y2687280D01*
X2487866Y2687889D01*
X2486904Y2688429D01*
X2485906Y2688897D01*
X2484875Y2689290D01*
X2483819Y2689609D01*
X2482743Y2689848D01*
X2481652Y2690009D01*
X2480550Y2690090D01*
X2479449Y2690090D01*
X2478347Y2690009D01*
X2477256Y2689848D01*
X2476180Y2689609D01*
X2475124Y2689290D01*
X2474093Y2688897D01*
X2473095Y2688429D01*
X2472133Y2687889D01*
X2471214Y2687280D01*
X2470340Y2686606D01*
X2469519Y2685871D01*
X2468753Y2685077D01*
X2468047Y2684229D01*
X2467407Y2683332D01*
X2466832Y2682390D01*
X2466328Y2681408D01*
X2465896Y2680394D01*
X2465540Y2679349D01*
X2465261Y2678283D01*
X2465060Y2677199D01*
X2464939Y2676102D01*
X2464899Y2675000D01*
X2464939Y2673897D01*
X2465060Y2672800D01*
X2465261Y2671716D01*
X2465540Y2670650D01*
X2465896Y2669605D01*
X2466328Y2668591D01*
X2466832Y2667609D01*
X2467407Y2666667D01*
X2468047Y2665770D01*
X2468753Y2664922D01*
X2469519Y2664128D01*
X2470340Y2663393D01*
X2471214Y2662719D01*
X2472133Y2662111D01*
X2473095Y2661570D01*
X2474093Y2661102D01*
X2475124Y2660709D01*
X2476180Y2660390D01*
X2477256Y2660151D01*
X2478347Y2659991D01*
G37*
G36*
X2529449Y2669910D02*
G01*
X2530550Y2669910D01*
X2531652Y2669991D01*
X2532743Y2670151D01*
X2533819Y2670390D01*
X2534875Y2670709D01*
X2535906Y2671102D01*
X2536904Y2671570D01*
X2537866Y2672111D01*
X2538786Y2672719D01*
X2539659Y2673393D01*
X2540481Y2674128D01*
X2541246Y2674922D01*
X2541952Y2675770D01*
X2542592Y2676667D01*
X2543167Y2677609D01*
X2543671Y2678591D01*
X2544103Y2679605D01*
X2544459Y2680650D01*
X2544738Y2681716D01*
X2544939Y2682800D01*
X2545060Y2683897D01*
X2545100Y2685000D01*
X2545060Y2686102D01*
X2544939Y2687199D01*
X2544738Y2688283D01*
X2544459Y2689349D01*
X2544103Y2690394D01*
X2543671Y2691408D01*
X2543167Y2692390D01*
X2542592Y2693332D01*
X2541952Y2694229D01*
X2541246Y2695077D01*
X2540481Y2695871D01*
X2539659Y2696606D01*
X2538786Y2697280D01*
X2537866Y2697889D01*
X2536904Y2698429D01*
X2535906Y2698897D01*
X2534875Y2699290D01*
X2533819Y2699609D01*
X2532743Y2699848D01*
X2531652Y2700009D01*
X2530550Y2700090D01*
X2529449Y2700090D01*
X2528347Y2700009D01*
X2527256Y2699848D01*
X2526180Y2699609D01*
X2525124Y2699290D01*
X2524093Y2698897D01*
X2523095Y2698429D01*
X2522133Y2697889D01*
X2521214Y2697280D01*
X2520340Y2696606D01*
X2519519Y2695871D01*
X2518753Y2695077D01*
X2518047Y2694229D01*
X2517407Y2693332D01*
X2516832Y2692390D01*
X2516328Y2691408D01*
X2515896Y2690394D01*
X2515540Y2689349D01*
X2515261Y2688283D01*
X2515060Y2687199D01*
X2514939Y2686102D01*
X2514899Y2685000D01*
X2514939Y2683897D01*
X2515060Y2682800D01*
X2515261Y2681716D01*
X2515540Y2680650D01*
X2515896Y2679605D01*
X2516328Y2678591D01*
X2516832Y2677609D01*
X2517407Y2676667D01*
X2518047Y2675770D01*
X2518753Y2674922D01*
X2519519Y2674128D01*
X2520340Y2673393D01*
X2521214Y2672719D01*
X2522133Y2672111D01*
X2523095Y2671570D01*
X2524093Y2671102D01*
X2525124Y2670709D01*
X2526180Y2670390D01*
X2527256Y2670151D01*
X2528347Y2669991D01*
G37*
G36*
X2624449Y2674910D02*
G01*
X2625550Y2674910D01*
X2626652Y2674991D01*
X2627743Y2675151D01*
X2628819Y2675390D01*
X2629875Y2675709D01*
X2630906Y2676102D01*
X2631904Y2676570D01*
X2632866Y2677111D01*
X2633786Y2677719D01*
X2634659Y2678393D01*
X2635481Y2679128D01*
X2636246Y2679922D01*
X2636952Y2680770D01*
X2637592Y2681667D01*
X2638167Y2682609D01*
X2638671Y2683591D01*
X2639103Y2684605D01*
X2639459Y2685650D01*
X2639738Y2686716D01*
X2639939Y2687800D01*
X2640060Y2688897D01*
X2640100Y2690000D01*
X2640060Y2691102D01*
X2639939Y2692199D01*
X2639738Y2693283D01*
X2639459Y2694349D01*
X2639103Y2695394D01*
X2638671Y2696408D01*
X2638167Y2697390D01*
X2637592Y2698332D01*
X2636952Y2699229D01*
X2636246Y2700077D01*
X2635481Y2700871D01*
X2634659Y2701606D01*
X2633786Y2702280D01*
X2632866Y2702889D01*
X2631904Y2703429D01*
X2630906Y2703897D01*
X2629875Y2704290D01*
X2628819Y2704609D01*
X2627743Y2704848D01*
X2626652Y2705009D01*
X2625550Y2705090D01*
X2624449Y2705090D01*
X2623347Y2705009D01*
X2622256Y2704848D01*
X2621180Y2704609D01*
X2620124Y2704290D01*
X2619093Y2703897D01*
X2618095Y2703429D01*
X2617133Y2702889D01*
X2616214Y2702280D01*
X2615340Y2701606D01*
X2614519Y2700871D01*
X2613753Y2700077D01*
X2613047Y2699229D01*
X2612407Y2698332D01*
X2611832Y2697390D01*
X2611328Y2696408D01*
X2610896Y2695394D01*
X2610540Y2694349D01*
X2610261Y2693283D01*
X2610060Y2692199D01*
X2609939Y2691102D01*
X2609899Y2690000D01*
X2609939Y2688897D01*
X2610060Y2687800D01*
X2610261Y2686716D01*
X2610540Y2685650D01*
X2610896Y2684605D01*
X2611328Y2683591D01*
X2611832Y2682609D01*
X2612407Y2681667D01*
X2613047Y2680770D01*
X2613753Y2679922D01*
X2614519Y2679128D01*
X2615340Y2678393D01*
X2616214Y2677719D01*
X2617133Y2677111D01*
X2618095Y2676570D01*
X2619093Y2676102D01*
X2620124Y2675709D01*
X2621180Y2675390D01*
X2622256Y2675151D01*
X2623347Y2674991D01*
G37*
G36*
X529448Y2709910D02*
G01*
X530551Y2709910D01*
X531651Y2709991D01*
X532743Y2710151D01*
X533818Y2710390D01*
X534875Y2710709D01*
X535906Y2711102D01*
X536903Y2711570D01*
X537865Y2712111D01*
X538786Y2712719D01*
X539659Y2713393D01*
X540480Y2714128D01*
X541246Y2714922D01*
X541952Y2715770D01*
X542593Y2716667D01*
X543168Y2717609D01*
X543672Y2718591D01*
X544104Y2719605D01*
X544459Y2720650D01*
X544738Y2721716D01*
X544938Y2722800D01*
X545059Y2723897D01*
X545100Y2725000D01*
X545059Y2726102D01*
X544938Y2727199D01*
X544738Y2728283D01*
X544459Y2729349D01*
X544104Y2730394D01*
X543672Y2731408D01*
X543168Y2732390D01*
X542593Y2733332D01*
X541952Y2734229D01*
X541246Y2735077D01*
X540480Y2735871D01*
X539659Y2736606D01*
X538786Y2737280D01*
X537865Y2737889D01*
X536903Y2738429D01*
X535906Y2738897D01*
X534875Y2739290D01*
X533818Y2739609D01*
X532743Y2739848D01*
X531651Y2740009D01*
X530551Y2740090D01*
X529448Y2740090D01*
X528348Y2740009D01*
X527256Y2739848D01*
X526181Y2739609D01*
X525124Y2739290D01*
X524094Y2738897D01*
X523096Y2738429D01*
X522134Y2737889D01*
X521213Y2737280D01*
X520340Y2736606D01*
X519519Y2735871D01*
X518753Y2735077D01*
X518047Y2734229D01*
X517406Y2733332D01*
X516831Y2732390D01*
X516327Y2731408D01*
X515895Y2730394D01*
X515540Y2729349D01*
X515261Y2728283D01*
X515061Y2727199D01*
X514940Y2726102D01*
X514899Y2725000D01*
X514940Y2723897D01*
X515061Y2722800D01*
X515261Y2721716D01*
X515540Y2720650D01*
X515895Y2719605D01*
X516327Y2718591D01*
X516831Y2717609D01*
X517406Y2716667D01*
X518047Y2715770D01*
X518753Y2714922D01*
X519519Y2714128D01*
X520340Y2713393D01*
X521213Y2712719D01*
X522134Y2712111D01*
X523096Y2711570D01*
X524094Y2711102D01*
X525124Y2710709D01*
X526181Y2710390D01*
X527256Y2710151D01*
X528348Y2709991D01*
G37*
G36*
X1149449Y2709910D02*
G01*
X1150550Y2709910D01*
X1151652Y2709991D01*
X1152743Y2710151D01*
X1153819Y2710390D01*
X1154875Y2710709D01*
X1155906Y2711102D01*
X1156904Y2711570D01*
X1157866Y2712111D01*
X1158786Y2712719D01*
X1159659Y2713393D01*
X1160480Y2714128D01*
X1161246Y2714922D01*
X1161952Y2715770D01*
X1162592Y2716667D01*
X1163167Y2717609D01*
X1163671Y2718591D01*
X1164103Y2719605D01*
X1164459Y2720650D01*
X1164738Y2721716D01*
X1164939Y2722800D01*
X1165060Y2723897D01*
X1165100Y2725000D01*
X1165060Y2726102D01*
X1164939Y2727199D01*
X1164738Y2728283D01*
X1164459Y2729349D01*
X1164103Y2730394D01*
X1163671Y2731408D01*
X1163167Y2732390D01*
X1162592Y2733332D01*
X1161952Y2734229D01*
X1161246Y2735077D01*
X1160480Y2735871D01*
X1159659Y2736606D01*
X1158786Y2737280D01*
X1157866Y2737889D01*
X1156904Y2738429D01*
X1155906Y2738897D01*
X1154875Y2739290D01*
X1153819Y2739609D01*
X1152743Y2739848D01*
X1151652Y2740009D01*
X1150550Y2740090D01*
X1149449Y2740090D01*
X1148347Y2740009D01*
X1147256Y2739848D01*
X1146180Y2739609D01*
X1145124Y2739290D01*
X1144093Y2738897D01*
X1143095Y2738429D01*
X1142133Y2737889D01*
X1141214Y2737280D01*
X1140340Y2736606D01*
X1139519Y2735871D01*
X1138753Y2735077D01*
X1138047Y2734229D01*
X1137407Y2733332D01*
X1136832Y2732390D01*
X1136328Y2731408D01*
X1135896Y2730394D01*
X1135540Y2729349D01*
X1135261Y2728283D01*
X1135060Y2727199D01*
X1134939Y2726102D01*
X1134899Y2725000D01*
X1134939Y2723897D01*
X1135060Y2722800D01*
X1135261Y2721716D01*
X1135540Y2720650D01*
X1135896Y2719605D01*
X1136328Y2718591D01*
X1136832Y2717609D01*
X1137407Y2716667D01*
X1138047Y2715770D01*
X1138753Y2714922D01*
X1139519Y2714128D01*
X1140340Y2713393D01*
X1141214Y2712719D01*
X1142133Y2712111D01*
X1143095Y2711570D01*
X1144093Y2711102D01*
X1145124Y2710709D01*
X1146180Y2710390D01*
X1147256Y2710151D01*
X1148347Y2709991D01*
G37*
G36*
X2654449Y2714910D02*
G01*
X2655550Y2714910D01*
X2656652Y2714991D01*
X2657743Y2715151D01*
X2658819Y2715390D01*
X2659875Y2715709D01*
X2660906Y2716102D01*
X2661904Y2716570D01*
X2662866Y2717111D01*
X2663786Y2717719D01*
X2664659Y2718393D01*
X2665481Y2719128D01*
X2666246Y2719922D01*
X2666952Y2720770D01*
X2667592Y2721667D01*
X2668167Y2722609D01*
X2668671Y2723591D01*
X2669103Y2724605D01*
X2669459Y2725650D01*
X2669738Y2726716D01*
X2669939Y2727800D01*
X2670060Y2728897D01*
X2670100Y2730000D01*
X2670060Y2731102D01*
X2669939Y2732199D01*
X2669738Y2733283D01*
X2669459Y2734349D01*
X2669103Y2735394D01*
X2668671Y2736408D01*
X2668167Y2737390D01*
X2667592Y2738332D01*
X2666952Y2739229D01*
X2666246Y2740077D01*
X2665481Y2740871D01*
X2664659Y2741606D01*
X2663786Y2742280D01*
X2662866Y2742889D01*
X2661904Y2743429D01*
X2660906Y2743897D01*
X2659875Y2744290D01*
X2658819Y2744609D01*
X2657743Y2744848D01*
X2656652Y2745009D01*
X2655550Y2745090D01*
X2654449Y2745090D01*
X2653347Y2745009D01*
X2652256Y2744848D01*
X2651180Y2744609D01*
X2650124Y2744290D01*
X2649093Y2743897D01*
X2648095Y2743429D01*
X2647133Y2742889D01*
X2646214Y2742280D01*
X2645340Y2741606D01*
X2644519Y2740871D01*
X2643753Y2740077D01*
X2643047Y2739229D01*
X2642407Y2738332D01*
X2641832Y2737390D01*
X2641328Y2736408D01*
X2640896Y2735394D01*
X2640540Y2734349D01*
X2640261Y2733283D01*
X2640060Y2732199D01*
X2639939Y2731102D01*
X2639899Y2730000D01*
X2639939Y2728897D01*
X2640060Y2727800D01*
X2640261Y2726716D01*
X2640540Y2725650D01*
X2640896Y2724605D01*
X2641328Y2723591D01*
X2641832Y2722609D01*
X2642407Y2721667D01*
X2643047Y2720770D01*
X2643753Y2719922D01*
X2644519Y2719128D01*
X2645340Y2718393D01*
X2646214Y2717719D01*
X2647133Y2717111D01*
X2648095Y2716570D01*
X2649093Y2716102D01*
X2650124Y2715709D01*
X2651180Y2715390D01*
X2652256Y2715151D01*
X2653347Y2714991D01*
G37*

%LPD*%
D10*
G01*
X318310Y2236999D03*
G01*
X318310Y1896840D03*
D11*
G01*
X482880Y1896840D03*
G01*
X482880Y2236999D03*
D12*
G01*
X2455709Y2125979D03*
G01*
X2400590Y2125979D03*
G01*
X2483270Y2153539D03*
G01*
X2455709Y2181100D03*
G01*
X2400590Y2181100D03*
G01*
X2400590Y2070859D03*
G01*
X2455709Y2070859D03*
G01*
X2483270Y2098420D03*
G01*
X2428149Y2098420D03*
G01*
X2428149Y2153539D03*
G01*
X2373029Y2153539D03*
G01*
X2373029Y2098420D03*
D13*
G01*
X1450000Y1550000D03*
G01*
X1105000Y2300000D03*
G01*
X1105000Y2300000D03*
G01*
X2625000Y2690000D03*
G01*
X1140000Y2270000D03*
G01*
X2530000Y2685000D03*
G01*
X1195000Y2290000D03*
G01*
X2480000Y2675000D03*
G01*
X1235000Y2240000D03*
G01*
X2435000Y2655000D03*
G01*
X1265000Y2105000D03*
G01*
X2330000Y2640000D03*
G01*
X1310000Y2100000D03*
G01*
X2385000Y2615000D03*
G01*
X1370000Y2115000D03*
G01*
X2285000Y2590000D03*
G01*
X1395000Y2070000D03*
G01*
X2225000Y2570000D03*
G01*
X595000Y2100000D03*
G01*
X1185000Y2145000D03*
G01*
X625000Y2065000D03*
G01*
X1220000Y2110000D03*
G01*
X1645000Y1925000D03*
G01*
X2130000Y2550000D03*
G01*
X1605000Y1945000D03*
G01*
X1575000Y1970000D03*
G01*
X1535000Y1985000D03*
G01*
X1500000Y2005000D03*
G01*
X1625000Y2230000D03*
G01*
X1590000Y2185000D03*
G01*
X1555000Y2145000D03*
G01*
X1510000Y2105000D03*
G01*
X330000Y1815000D03*
G01*
X335000Y1775000D03*
G01*
X705000Y2485000D03*
G01*
X720000Y2240000D03*
G01*
X935000Y2485000D03*
G01*
X885000Y2130000D03*
G01*
X630000Y1870000D03*
G01*
X665000Y2020000D03*
G01*
X725000Y2015000D03*
G01*
X570000Y1875000D03*
G01*
X660000Y2650000D03*
G01*
X1245000Y1660000D03*
G01*
X1230000Y1720000D03*
G01*
X1470000Y1710000D03*
G01*
X1470000Y1510000D03*
G01*
X1340000Y1800000D03*
G01*
X1375000Y1850000D03*
G01*
X1460000Y1665000D03*
G01*
X1350000Y1585000D03*
G01*
X1210000Y1505000D03*
G01*
X635000Y2430000D03*
G01*
X2850000Y2525000D03*
G01*
X2835000Y2640000D03*
G01*
X2760000Y2735000D03*
G01*
X2850000Y2460000D03*
G01*
X550000Y2550000D03*
G01*
X1150000Y2725000D03*
G01*
X2655000Y2730000D03*
G01*
X2630000Y2330000D03*
G01*
X310000Y2495000D03*
G01*
X315000Y1575000D03*
G01*
X335000Y1720000D03*
G01*
X570000Y1640000D03*
G01*
X1955000Y1725000D03*
G01*
X1225000Y1410000D03*
G01*
X1190000Y1725000D03*
G01*
X530000Y2725000D03*
G01*
X475000Y2730000D03*
G01*
X610000Y2725000D03*
G01*
X685000Y2425000D03*
G01*
X765000Y1745000D03*
G01*
X845000Y2435000D03*
G01*
X495000Y1850000D03*
G01*
X325000Y1855000D03*
G01*
X325000Y2285000D03*
G01*
X465000Y2285000D03*
G01*
X538499Y1905000D03*
G01*
X1935000Y1465000D03*
G01*
X2325000Y1470000D03*
G01*
X2320000Y1580000D03*
G01*
X2825000Y1670000D03*
G01*
X2690000Y2655000D03*
G01*
X2575000Y2655000D03*
G01*
X1055000Y1430000D03*
G01*
X2560000Y2185000D03*
G01*
X2560000Y2070000D03*
G01*
X2290000Y2070000D03*
G01*
X2295000Y2185000D03*
G01*
X910000Y2640000D03*
G01*
X950000Y2640000D03*
G01*
X805000Y2490000D03*
G01*
X860000Y2280000D03*
G01*
X2775000Y1615000D03*
G01*
X2480000Y1620000D03*
G01*
X2485000Y1490000D03*
G01*
X2795000Y1450000D03*
G01*
X2605159Y1450000D03*
G01*
X2650000Y1445000D03*
G01*
X2730000Y1517530D03*
G01*
X2565000Y1420000D03*
G01*
X2510000Y1570000D03*
G01*
X1765000Y2463539D03*
G01*
X1615000Y2463539D03*
G01*
X1765000Y2506460D03*
G01*
X1610000Y2506460D03*
G01*
X1785000Y2310000D03*
G01*
X1905000Y2360000D03*
G01*
X1867039Y2475000D03*
G01*
X1620000Y2320000D03*
G01*
X2645000Y1635000D03*
M02*
